<mxfile host="65bd71144e">
    <diagram id="HIP3nbAZw_EuaXWnEj3U" name="Page-1">
        <mxGraphModel dx="1382" dy="431" grid="1" gridSize="10" guides="1" tooltips="1" connect="1" arrows="1" fold="1" page="1" pageScale="1" pageWidth="850" pageHeight="1100" math="0" shadow="0">
            <root>
                <mxCell id="0"/>
                <mxCell id="1" parent="0"/>
                <mxCell id="7" value="http://ics2o.mths.ca" style="swimlane;whiteSpace=wrap;html=1;startSize=20;fillColor=#CCE5FF;" vertex="1" parent="1">
                    <mxGeometry x="50" y="440" width="760" height="420" as="geometry"/>
                </mxCell>
                <mxCell id="8" value="" style="whiteSpace=wrap;html=1;fillColor=#FFFFFF;" vertex="1" parent="7">
                    <mxGeometry y="20" width="760" height="40" as="geometry"/>
                </mxCell>
                <mxCell id="9" value="&lt;h1&gt;&lt;font color=&quot;#cce5ff&quot;&gt;Multiplication Loop&lt;/font&gt;&lt;/h1&gt;" style="text;html=1;align=center;verticalAlign=middle;resizable=0;points=[];autosize=1;strokeColor=none;fillColor=none;" vertex="1" parent="7">
                    <mxGeometry x="240" y="5" width="250" height="70" as="geometry"/>
                </mxCell>
                <mxCell id="12" value="&lt;b&gt;Length&lt;/b&gt;" style="text;strokeColor=none;align=center;fillColor=none;html=1;verticalAlign=middle;whiteSpace=wrap;rounded=0;labelBackgroundColor=none;fontFamily=Times New Roman;fontColor=#CCE5FF;" vertex="1" parent="7">
                    <mxGeometry y="135" width="60" height="30" as="geometry"/>
                </mxCell>
                <mxCell id="13" value="6" style="shape=partialRectangle;whiteSpace=wrap;html=1;top=0;left=0;fillColor=none;labelBackgroundColor=none;fontFamily=Times New Roman;fontColor=#CCE5FF;" vertex="1" parent="7">
                    <mxGeometry x="60" y="140" width="100" height="20" as="geometry"/>
                </mxCell>
                <mxCell id="14" value="&lt;b&gt;&lt;br&gt;&lt;font color=&quot;#0a58f5&quot;&gt;Calculate&lt;/font&gt;&lt;br&gt;&lt;/b&gt;" style="labelPosition=center;verticalLabelPosition=middle;align=center;html=1;shape=mxgraph.basic.shaded_button;dx=10;fillColor=#E6E6E6;strokeColor=none;whiteSpace=wrap;labelBackgroundColor=none;fontFamily=Times New Roman;fontColor=#CCE5FF;" vertex="1" parent="7">
                    <mxGeometry x="40" y="290" width="80" height="50" as="geometry"/>
                </mxCell>
                <mxCell id="15" value="&lt;h3&gt;36&lt;/h3&gt;" style="text;strokeColor=none;align=center;fillColor=none;html=1;verticalAlign=middle;whiteSpace=wrap;rounded=0;labelBackgroundColor=none;fontFamily=Times New Roman;fontColor=#0A58F5;" vertex="1" parent="7">
                    <mxGeometry x="-60" y="360" width="280" height="30" as="geometry"/>
                </mxCell>
                <mxCell id="16" value="6" style="shape=partialRectangle;whiteSpace=wrap;html=1;top=0;left=0;fillColor=none;labelBackgroundColor=none;fontFamily=Times New Roman;fontColor=#CCE5FF;" vertex="1" parent="7">
                    <mxGeometry x="60" y="220" width="100" height="20" as="geometry"/>
                </mxCell>
                <mxCell id="17" value="&lt;b&gt;Width&lt;/b&gt;" style="text;strokeColor=none;align=center;fillColor=none;html=1;verticalAlign=middle;whiteSpace=wrap;rounded=0;labelBackgroundColor=none;fontFamily=Times New Roman;fontColor=#CCE5FF;" vertex="1" parent="7">
                    <mxGeometry y="220" width="60" height="30" as="geometry"/>
                </mxCell>
                <mxCell id="21" value="" style="shape=image;imageAspect=0;aspect=fixed;verticalLabelPosition=bottom;verticalAlign=top;image=data:image/png,iVBORw0KGgoAAAANSUhEUgAAAggAAAHWCAYAAAASIHGhAAAAAXNSR0IArs4c6QAAIABJREFUeF7sfQd4ZFd59nun9z6jttI2aat37bXBBtu490Yw5ac7wYY/MTiQBAgO/BgINQFsCCUQkgAJgYBNccW9F4xtbK+3ane10qrOaHqv93++c2ekWa00c0eaGc1I5/DYrHfuPfec95x77nu+833vJ4iiKIIXjgBHgCPAEeAIcAQ4AmUICJwg8PnAEeAIcAQ4AhwBjsBcBDhB4HOCI8AR4AhwBDgCHIETEOAEgU8KjgBHgCPAEeAIcAQ4QeBzgCPAEeAIcAQ4AhyB6ghwC0J1jPgVHAGOAEeAI8ARWHUIcIKw6oacd5gjwBHgCHAEOALVEeAEoTpG/AqOAEeAI8AR4AisOgQ4QVh1Q847zBHgCHAEOAIcgeoIcIJQHSN+BUeAI8AR4AhwBFYdApwgrLoh5x3mCHAEOAIcAY5AdQQ4QaiOEb+irgiQsrfAaixpfM/+l/QnXjgCHAGOAEdg+RHgBGH5x2BVtWA28YeIUhYQRgsEoYw2cKKwqiYF7yxHgCPQkghwgtCSw7IyG0XkgHKDxTI57Bv3YSoaB9GCTosBmzucMOk0UAicHKzM0ee94ghwBNoNAU4Q2m3E2ri96Vweh3wB3L/3KMKpJBSCgvUmVyjAYzLgos3rsdFjg0apbONe8qavJgQyhTzyuQI7NVMoFNAoFBA4yV1NU2BF95UThBU9vK3TuVQ2h93jPjw7NIpgIgsFMxTM+iPQfzmNWpy1sRfbu1xQKSTywAtHoBURIFI7FYljyB9COJlhc9moVaPXZkWvw8xJbisOGm9TzQhwglAzZPwGuQjQcQLtprKFPJ4bmsBzQ2NIZ/MQ2f8ECOSEULbbIs6gVatwyZZ12NnjLvNLkPtEfh1HoPEIEDnYP+nHE4dGEEvnmAWM5rqSLAhKBU7p7cBZG3qgUSkZB+YWhcaPCX9CYxDgBKExuPJaZ6IURLx4bBIP7x9GhkyxFQrZExSCCLVSgat3DGBbh7NIII63NHBwOQLLhUBBLODgVBAP7DuKSDrDiEF5EYrz97yBdTi1rwNqbglbrqHiz60DApwg1AFEXsX8CJDPwUvHJvH4oVFksvlyY8EJN5SsDdIPIgxaFS7ctI4dNxBhKIVGcqw5AsuFAFnC9oz78ejBYcTS2eJMZZ63zEpAFrASXTBoVDh3oA8nr3FDreA+Ncs1Zvy5S0OAE4Sl4cfvngcBWiSTmRz+dGwSjx0aRqFwfGQCHS2IVR25RJi0GlywaS22dTmh5o6LfK4tEwI0nzO5PPZO+PDg/mEQ8Z0pogAIx1sRWLQORDiNOly6dT36XXZ+zLBMY8cfuzQEOEFYGn787jkI0OJIC+jzR8fxx+EJJDK5mZ1WzQGMAmDX63FO/xrs6HExK4Iwx7GRDwBHoJEISGQ3y47JXhieZJYDuQdedNzgNhlx2bYNWOuwNLKZvG6OQEMQ4AShIbCuzkpLC+fjg8fwxOERyeRKO6wllJLZ9tqTNzFLAnf4WgKY/FbZCDDfAgHI5wt4cWQSTx4eQyqXZfOZPvxy5jV7HwQRWqUK7ztjO7osJtnP5xdyBFoBAU4QWmEUVkgbyAz7wgj5HIwgl5fMrnJ3W5UgoEWWtBGuOKkfWzqcUCpKqosrBDjejZZEgJxqXx6bBBHeVLbsWKHG1hLJXe+04JJtG+AyGYqKoTVWwi/nCCwDApwgLAPoK/GRsXQGTx8exYujU4wcLM1uUEToOHYhwqrX4uyNvTipmxwXlfV5xkocDN6nJSNAR2PPHR1nobkUxigdby2u0H0UzLC104XzBvpgN+gWVxG/iyPQZAQ4QWgy4CvxcfFMFs8dHcPzRyeRy9NiWtluUM2qUO4NXsKrZI+w6bU4b2AttneRJYGLKa3E+bScfaKjhXg6i+eHJ/CHo+PIFY53QFxs28hpkWTET+vrwvkDvdCRRkJVR93FPo3fxxGoDwKcINQHx1VZCy2mtIA+PjiCl0Ynkc5W1jko/9gTCVCqVCiQyAzbockvFr0WF25eh+2dDu6TIB82fmU1BEQRkXQWTx0+ht1jPmTzBYgUoVCDH83x4bonPlCjUuD0tUQS1hajHxZrl6jWGf47R2DpCHCCsHQMV2UNtBDmCyLu33eE7bTUSrUU3FU0D1Ra9uhelVoNZ1c3sukMgt5JaRGeEy62ELBUdzKXxTtftx3bOyXHxXmUm1fluPBOLw4B2uGT8euRA8PMGkYzSq4zopwnzlrFSFk0i8u3bcQZ67p5cjI54PFrlg0BThCWDfr2fbCUkTGL54bG8YejY8yju9qxQXlvyXJgc7uhM0le3fFgCJFgEIW8FBIpp9DiTToJJKa0udPBte/lgMavmRcBIgehRJodK7w4PIEcCR9JIQiyEFMolUxRkaxhRHRpbs4tc4/NdGoVLtxCR2UuaLnGhyyc+UXNR4AThOZj3vZPDCfTeOoImWGnmRmWijyCIEKj1cHq6oDWoJ1dgOncNxJFxD+NfK4KSSh7ENESq16HszeuwY5uN1RMcZEXjoB8BIgcBBNpdky2Z8JbDF+UT3iVajWsTieymQxiRHKJXMh4PF3jNOlw0eZ16HdzISUZkPFLlgEBThCWAfR2fiQ5JD55aBQvj00hWyW3wtx+qrUa2Nwe6AxGpjRXXphzWDiMiD8wryVhPsfFEjGxG7S4aMtaFgK5eF/zdh4V3vbFIEAzcDqWwFOHR7F/cho1Tmd2TGb3eKA1GhmxDft8SESjNTRFhMdswBXbN2KNzcz9aWpAjl/aHAQ4QWgOzm3/FPqgk87B3a8NYf/UNAqkc8C2SmRBWHjnXjrHVWk00mJqMCyMBZGEUBSh6SkUCqRvLx82SrX75h0D2OC2ydrBya+ZX7mSECgZoGg+kyXs93uHcMgXlHxnZBcRGp0ODk8H1DqdRHXJJyeXxfT4JDKpZA0fexEdFiPedsoWOIw8/FH2EPALm4IAJwhNgbm9H0JmU7IcPLjvKF4d80KlFBgvqJ5PQeq3Sq2CvaMTOqORndVW8vQmh8NYMITQtBdi1RCz8vMG6c/v2LUFG902qHgIZHtPuga2nuZzIpPFXa8OYnA6CKECwS01o3zOqjQq2D2d0OqNxznW0twV8wVMjYwgm0lLt1ZzviVVxgKwwWXDW07ZBINaNUsu5J3bNRApXvVqR4AThNU+A6r0nxZTfzyJ549O4JUxH/JzQhIre3pLOy2ry32c5YAtpBW2bNJxQwjRQLC6T0JZ+8ni4DQacO5ALzZ57Jwk8LldRKBkHhDY/B0Lx/D0oVEM+gIQBHl+K9K3muazHhanEzqyhM1j4qK5nU4kEPR6kU0XSYKscRCxvcvN5q7DoKvBAiGrcn4RR2BRCHCCsCjYVs9N0/EkHj1wFIenQ5LPATP7y7H9i9Dq9bCRGVarrQkwWmTJIzwZjSI8PY18NjfvI0sbrHL/BBKjsRg0uHBgHbZ2ObhPQk3Ir+yL6VhhIhzDQ/uHMRKInuAHU6n3oliAVqeHvaMLap2mMlAikIzHEPL5kMtmq74tUnZTMHXQU3s7WHIyLVkSqt65sseL9275EeAEYfnHoGVbkMzmcN+eI8zngDQP2Fe6mslUsquynRaFMmr0+kX3T7IkRBhJEAvza+HPb4UVQYqLlLthg8s6z0LLbbeLHpQWvvH4US3/L6IGAsbDUTywdxhjocgcF9nqnSLHWprPap12QesXEVUWxVC0LCQiEWZJILIrh1LTe6NWKvCm/j68YV0XFAqFzPuqt59fwRFYDAKcICwGtRV+D32Yw6kM7nplEEOBcI3mzgIjBXRGW6vlYF5YmeNiBEHfFHMko7V3oYiG4+8vQK/R4JodA+h32+YI0nCCsBKnsEQDShau2TGm+eyNJfC7VwcxGY7JPlYoYcTIgccDlYbEwGoooohoMMgsCXKzkDJJZggssdNpvR5OEmqAm19afwQ4Qag/pm1dI/M5iCXxyMFh7J8KsHwHlfwFSp0tOXFRKKOzswuqGo8VKoFGiysttBG/H4V8DVn1BBEGtZqFkQ0wn4TSPk7efq6tB5I3niFAPgeTkTju2n2IkYRKZvsT/GkEgZFcR0ftx2Tl8Ie9PuZTQ++WrMJSRCtx1Y5+bPI4mC8Np7SykOMX1RkBThDqDGg7V0cf+YlonGnRH/KGiscK8npEC5jeYIDV5WKhX/Uu1LYE6SQE/MjnKpOEcgsDWRw8JgM71x2gVNG1xE7WuxO8vqYiQFkYD/tCePzQMCbCSczwQxmtIFKqN5thttuXbAmjaJzwtJcdl8kh2yXZMZdJj/MGejHgdnARMBljxi+pPwKcINQf07atMZhI4Z7XDmM4EDlht1MtCY1khnWD9A6WWhbaLZGjWDJCOgmkw1DFJ6F0HlFUzDWqVbjypAEMdJBOArcgLHWMWv5+ERgJhHH3nsMIJBIoiJQeXN4Onua60WKB3e2GoFItoqsnzuBcNoeQ14tUPFaxvuPILQCPxYDLtq5Hr4N8aXjhCDQXAU4Qmot3yz4tkkrj7t2HcWg6NLsQlTkkzgjMlDlhsc6IIlNGtHUQOagtWmExYDDHxWAI4Wk/RCbSNF850V1NIYgwqtV4885NWO+ez3FxMa3h97QiAiSyNeQP4TevHkIynWE6BywrI5FFFjEw/6dWyqGggNFkhsXtgqKMHNSW1HEOQWDZIElIKYfA1ATSiWQNRwYi1jmtuPbkzTBo50Y28IOHVpx/K6lNnCCspNFcRF/oXJRCvygr42iQHLjk71PoSokceECa9E0rBYpuiCLsJ12GPCM08hwXwaIbLtqyruiTIC8Gvmn94g9aAgKSiyLN530T03hg/xAT96olVTM93GCxwOp0Q6kmy4E8i0Mtjc6k0whMTiCXThUVSGc1GhauR8Rapw3X7OiHVactk1+Qc28trePXcgSOR4AThNU6I0QSQxQxFYnh0YMjGPKHi8cKMgmCAOj1Btg6O0HZGZtdSoqLYea4KCcLpPQBITOzQ6/HBVvWljkuyuxzszvJnycbAfpUpnN5HJwKMAdbsojVcpTEfA4sJlidHihVStnPXcyF6WQCQSIJpO8xQ20XnoNk2aCkaKf2duK8gT5Y9Jqa+raYNvJ7OAJFi5tc11oO2EpCgInGhGJ4dHAYw4FoTQ6JZGTQmy0wOxxQ18HnYLG4ioUC4pEIooEAM99W85MoGWTJbuA2GyQHMJbgiZd2RoDGNZcvMBnwp4+MshwL8sS8pF6T3oDRaoXF4YTQ8Iygkq0rFYsxfQ/KAim3aFQCdq3pxFkb18BYa8il3Ifw6zgCZQhwC8IqnQ6BRBK/fHE/psmBiwkkyv9M6kwkGtPBciw0q5QS4tBOryTVXPp/8g4nBzByYpRbiOSQ29r/ed02rHdZauq/3Gfw6xqPQMnI/tr4NO55bbCYflzeXJbuLcBid8LidLHTCFLibGgRBZC6M1MKjUQqOtzO1w5q3tkb1uDM/h5oBGUtPKih3eKVr0wEOEFYmeO6YK/ojNYbpbjwQYxHpLhwtiTKUkiUfA6spCinJTNnI05pax8QshzEQmG2I2OZb2QWMt2aNGqmuLjRZWOaD7y0FwKpbB67x324b+8R1vBqn/dytz4imGa7FWanq2bxpHqgRBYwsn5FQ4Gq07bcOmbQqHDxlnXY3u2CUmYuiXq0l9ex+hDgBGEVjXleFFno18MHKC6c8tZX/yDO5DsoHitYna6iA1eLAcd0EqII+X1Fn4Rqn4pS+0W4jHqcM9CHTR0OqDlJaLGBnac5xUmZyubwx+FJPDc0jmQuV5UcHFeTIMLqcMFks0NQks9B/R0S5QDJSII/gEgwWFMbzFoNLtmyDlu6nJLVQyxy/OJDeXyDHPT5NdUQ4AShGkIr5HfagRwLRvHY4AiOBSPIk2yxzL5JPgdmlpVxORwSZTaTXUapoklMSY7i4qwFRITbpMf5m9Yy5bpaIjlqaRu/tj4IkP9MIp3FCyOTjCBQzhD5RWROiCa7A2abHczev0zkoNTmQr7A5JgTkZAMG4h0FxEAk1aFq08aYPlG5lq/OEGQPyP4lQsjwAnCKpgdRA5GAhHcu+cIAokUc+YjQ7wcgkDkgEK/yIGrqaGMixwX5rgYjiDin2bnvJXLLEWggxanUYtLt67DejdlgeSlFREgckDlkQMjeOnYJOiIQW6hMVUolSxds8FqbSkiSOqgEZ8X8WhE5psp9brbZsSlW9ejx0Z+NCUNRrmI8Os4AlVWSFGe9ifHsU0RoE+kLxLHfz3/GjPD1hoXrjMZ4OjoYgtrq5WFdklkAQiT2XaakuSIEJlQTfVC12ayBVz3hh1Y77I23mGtepP4FQwBaaQp3ooIwgP7hvDs0ERZbg26hmb6wkdmRIkVCiVszg4YbRZ57LjB6Eu9mm03pTUPTE0hlYjLJqjkU7TOacE1OweYxkctzsYN7h6vfgUgwC0IK2AQF+oCadGPBKN4ZP9RjIdjLBWivE8lXSrAYLbA4nK2/LHCfP0n/ftowI9oKASyKsxbyshDCRciCU6DHhdsXosNbhvUinJixA23y/O6SHaDSDKD546O45kj43PIQbWdswiFSg2r0wmj1bbsRwqVMEwnEuy4IZumUM3KZVbdtIDtXS5ctHU9LNpyIaVqNfDfOQLcgrAK54DIQhcHfUHmc+CLxmcS4VYCY4Y8KASYrJJ3N8WIt2uRjhsowVNAlk9CqZ90rOI06nFufy82dzrKPMU5QViOuUD0IJLK4MnBY9gzOY1Mbn7CN19UDRlISRXR7u6A3mSU8oW3chGBTCqJwOQkstmsbEJP8g1bO924fPsG6FTKGqScWxkM3rblRoBbEJZ7BBrwfOaQGIjg9/uGWEgjKQjKLWQ5MFrNMDtcUCrVJF4v99aWvI5IQiwkOS6SVaF6mdmXsegGkmXu99iZMVg+itWfwq+QiYAoIpLO4PHBEbw65oOsISyrmpKHkXMtIwdtVFLROIK+KeToWHCOKPPC3RBx+toevKm/BwYupNRGo926TeUEoXXHZlEtI3JweDqE37xyAKmstNOqZd9rdtgkRTlmWm8VpYNFQTFzEztuCAYQ8ftlVVSOl1mrxjU7N2K9izsuygKvDheV458tiPjNywdw0BtkUuCMpAkFQDzRsjV3nlO0gt3TAZ3R1BI+B7VAQ7ycVEKD3inWb7mxFhqVAmdt6MHp67qhaUG/oVow4NcuPwKcICz/GNStBSQ3OxyM4HevHkI8k55xzqu28y2JsBgtVtg8HVLkV5uWBcmQIDCnxWggyKI4ZBdBhFpQ4Npdm7HBZYOqjY9cZPe5BS6kj2Ikmcbdrx3GIV8AyuN8QSo3kEUrKJRwdHVBZzRKCputfrRQ1iXWVJqiIhHbIFi+kRI5WqDrs2mbCjBqNLhi+0YMeBxQKqq9/S0w2LwJLYsAJwgtOzS1NSyblxLVPHn4GHyxVE1WA6ZFbyGfAwcUysZksautN425monSBIPsyEGOTkKpFbRge0wGnDvQh35SXGy4Xn9j+t8utRKBm4rG8cShURz0+ueNQlmICNLfa7RaWN0u6I2m2shgSwEksQRKRBbxB9i8lavPQfzXbqCspaTr4eQkoaXGtb0awwlCe43XTEKiYuBXkQgIODAVwEMHjiKYoDSy8kL7aCGm8EUSjDE77BBWwe5YSvAUZouuPJIgIU2Ls8OgZep1G9122Yt1m02vJjd3dt9bejA5JPqiSfx+7xDGQmEs4I94fDtnZMJFaPR62FweaPS6JvelcY8r5PII+aYRj4RqmHcibHodrjxpI7N81XLM2Lie8JrbDQFOENptxMraSy89mR6HAxHcs3sQoaT8zHBUDR0lmG0OpipH57U1md7bGDcSUIqFgoj6aXdaS0dEOI06XHVSP3rtluJizZfeWhCc99oihEQO/LEkE/Qa9oeKKoeV9Q1miQWg0+tgc3ug1ulbOpRxMXiRHw2liE7Eo7K0TCT9DxEdZiOu2jGATqsJCk4TFgP9qr6HE4R2HX4RyBYK2D0+jfv3HmF/Lj9trJb6mBYQilQw28khsV1BWHy7acGNBP1MB19uEcjkCwFWvRpv3rEJfQ4LF1OSC16F66TjdhHeSAJ3vjaIqUhsRvRIjpssO1bQqOHo7IJaR5YDGqlaYnfq0IkmVJHLZBCYmkQmkZTtU0HY9NnNzCeBUpxzj4QmDNQKegQnCG02mGzDK4rIFvLMs5sSL0VTmZp2wuRzQFKzVhdlsVvFS0bJcTFYQUxpnigQGgObTsoCuc5p5Y6Li32HipaDfKGAsVAM9+49zMJyKfkQqV/SZ56UPysJYdL0VWt1cHZ2Q6lpXvrxxXZ5sfeVUpsTOaDwx0w6I/tjrxQEnNTjwnkDfbDotIttAr9vFSLACUIbDjqzHIx58cyRUQQTpLgm/yOvVCthstpgtNnbWgSpXsPGdBKClHI3LMsnoXSgQAt2l8WI8wZ6sd5lK1oS+HHDYsZlyB/C4wePYTQclU10JQsZWAgj6Ryo6cNX23nRYpq6/PeIIpNiDnl9NQkpqZUK7OxxM0dbIyNS8teM5e80b8FyIcAJwnIhL/O57JMz892R/vDSMS8ePTiMZFbyOZCfawBsMTVSoppV4JBYDeLSrkwSU4ogEphmssxyP/N0NGPSqPCWnXTc0FrJf6r1vRV+p4/8sD+C3756ELFMTgpHrPrhorN1ycJuKGUYVatboTvNa4MoIhmPYXpsvCYLoFIQcUpvJy7cvBYalaoq0s3rEH9SqyLACUKrjsw87aLcCqQmd89rg8Xk77XsAkRYnORz4IDAY6NPQLdQFFOK+n0Vk/4QWSsIx0tIWXQqXHvy5jLHxTaaVMvUVPIRGPJHcMef9rOMjKWZLMdnlIiFwWiErbOzLfOE1ANyIrcUjROcmpKlEEq4KgSRWbou2LQOr1/bJYU/ymXD9Wg0r6PtEOAEoQ2GjBbTdC6Pl4958eThkWKK28rkYNZJkUIZFUwdkciBnAW4DSBpSBOl44YQokE/iDDILXSlx6TDRZvXSccNCgXfnVUAjwS9DngDeOzgMALkcFfMwijHIZGApWMFu8ezaslBCVp6x2PBIMs1slBCsuMtkJI50qhWM3+EnT0eqLimh9zXfFVexwlCGwx7MpvFnnE/nj4yikjqRJ+DShELJOpD5IB8DvhXS95gRwOSMM18OgknRu5LdRKJIzGlizavZSRByY9w5gU7XxBxYMqPhw8OM80OolKVqdjsFlfKMGqGvbODZcYo3beaN8H5XB4R/zQSkYisMGWJMIiwG3W4ZOt6DHBND3mLwiq9ihOEFh/4dD6PPwyN44XhScQzGRa8JfdggbQNrA4n9BYL9zmoYZyJGMRDIURDRBJI95/OFFgw3rxn5NLfktOcAp0WiSSsLfNJKP2+2hjaXLTId+DVcR+eOjyCAAl6VQpPmBkvSQeBJREjtU+HA+Rou9qwrDR987ksyzMSC0fYZbLWB1IHNRtw1faN6LaZalhVaniR+KVtjwAnCC0whFLM9vyv9bNHxvDI4AgKYoE5I9I5ohynRLIqkBnWaLVxn4PFjDHp4IeCiEyTmJL84wbSl1AKwPtevwM9DjNfeIssgY5sXhnz4s7dg+zsW84cLh82UvuksFxw/5l5Z3Mhl8P0+DjSyWRNjovEta5/4ylwmvXMmsN9EhazWKzcezhBaMGxpTWVjhXI5+CxwRHkCkQg5BtS6ViBFlODxSpbUKUFYViWJpUf15DiIh03xEJ0xrtwc8odF6XjBsBpkBLmrHWQTwKRP3mKgMvS6YY8dHa+ZnJ57B734eGDI8jkiOhKol5yaBdFihgsFiafzCNvKg9ULpNDYHIMmRTJrVezI5TsWgVscNpw6bYNLL25lC2z2r0NmTC80hZEgBOEFhsUem3T2SyeH57A80cnkczmZS6lUkeUKhXsLhf0Fis7F+dlaQhIIZBhRhQKhZyMhVd6HhG6DouU4Gmjy15MmLO6Fl6afalsDn86NoU/HB1HLJ2taTDI2dPkcDDdDnK05aUaAgIyqSRCXm+RJFS6vkTgRDY3t3W6cN6mtbDqNdzqVQ3mVfQ7JwgtNtipXA4vDU/guaMTiGfogyS/qNRqWBwOtuPiuwD5uFVcRovHC5IloeiTMOeG+Ww7EjUTmZjSBZvXsoQ58r1H6tP25a2F1D5FvDg8gaePjCORmZ8cLGQXoyRiJpuN+RysarXPmgaRjggKSMbiCE37kGc6KfJIKfnUvq6vE2/a2Au9Ri3zrpoaxy9uQwQ4QWiRQaOFMpPL4clDo3hxZBIZco6roSjVKthcbuhNJk4OasBN7qXkuMgSPFFImQzDTOnDR9Zat0mPq07aiG6reeZjJ//ASG4Ll/O6E9wRkcrl8eShMbw8OlkMy52/fXOjQui/6WNFmh3klEhEgRf5CLDDLFJbjMYQ8E4Uwx/pb6sRBREalRJnrOvCOf19bH+xugitfIxX05WcILTAaNOiSOfdTx8Zw6MHR6AUKO+ajK9Qse2imIerp1ciB7w0DAGKUgj7phEOTDNZ32o7W/axYyMpIp/P4/ozT0GPvZjgaWUxhBnMZ4ju4VE8NXgMKpWiZodEIrpEEAoiHa/xsigESEgpGEDI52W3V3IKLfe7yRXyuPqkfuzq62SiSix4h0o1frGoRvKbWh0BThCWeYTo40HJlv5wdAIvjkwhmy/5HMh4IwWAHSs4PTCYjcvck9XxePJJiAQDTFBpIXEatp5KeYbYMQPtxgqiwEIgL9y0liV4Wok6CdJczuLFkQm8eGwCyUx1K1g5T6KwXLPdDhPT7JDm/wrlUQ1/WUqWBBb+GAzWFImjUSpwybb12N7lgoZbcBo+Vq38AE4QlnF0aPEj+eTHDw6z/ApklpVP1kWoNVpYyCGRWw6aOopk7UmEw0zBbj4xpYUaQxaHDrOeqdhtdNtXVKpoFnmTyeLxQ8ewe8yHdK7o0FlKnFBxhESo1BpYnE7ozSamJ8FLfRAgHY9owI9YKFSVJMySsQKcJgO4moKpAAAgAElEQVQu3rwe/W5bVUtZfVrKa2lFBDhBWJZRkQ4QEpkcnh0aw4vDk0jnpdCvaoXi7MlcqNaoWSij1kgLqnRaKP9QotpT+O8LIVBaRIkkUBZI2p3NlWWeWWjnbH9L49Np0eOSLetYCGS1Y4p2GAlpLmfx+OAIXhn1MtI71ya9kKWazNsqtRJWlwd686yPRqnf3IKw9BmQz+UQ9vmQiEZlVUZKi2T96rQYWfhjr83MLDpy1idZD+AXtQ0CnCA0eKiYyM6cl4voAUUoPLz/KNttzfdhr7QwkuOWs7MLWqOeHw42ePwqVc+OG6anEQ2FjrtsobEr/3sKJ3vrKZvQbbWUBZy05+cwlEzh/j1DOOgLLgjXfARBRAEKQQFXVze0RiN3rm3QXKYPezabQWBiHJlkWhbOknJHAV0WM9526hbYdJoimW3POdogaFd8tZwgNGmIS45AzMM4m8OTh0fxx+EJUE6gWpg5ie44urrZsUItCn9N6uaqewxZAAJTU+zIgY0x7b4o+dCMd9eJkJBGQkEQYVAq8dZdW1iq6Hb0SaCehhMplnp872SQec/Ls2RJdIF8DhwdXdAV57Ks04hVN8Pq12Exn4P32AiyLOS0yqpTdKIhUav1LjuuPXkT9FqVlDtDhoNu/VrNa1pOBDhBaDL64WQKzxwZY7Kz2bz8QwF6ndU6HTun1dFui5eWQYApLjIt/HBFx8XZBku7MPLD67YacW5/n5QFss0U7KZjCZZAbN9koOhcW560ufIHSK3VwkpzmfvPNG0eE5lNxxMI+qaQTWWKHKG6RYCu2NHtYuGPDqOWhz82bcSW/0GcIDRtDETQ0eyduw9i/1QQ2Zp0DkSoNFqWW0Gn10Nssw9J0yBexgcxnYSwpLhYMfXunDbSou00aNlZ73qXtS0WX/pgRJJp3LPnMI76Q6hlKpMPjUqjg9Xths5gmEFDys4onzAv41C396NFIBWPI+SbQi6bK0tEVqFbNGYKBU7tJSGlHujV6hXhO9PeA9mc1nOC0FCcZ9k5Laj37TmMA75g0bgn82BBBNRaDWwdHdDqyeeAl1ZAgD7s0pHCbFJCIglMcZHCyuY0slI4OX0Y3SYdrtzej147+STInBvLAAT1IxhP4d49hzEUCMv2jJXehAILy7V3dEFbRg6WoRur/pGUHjrk89UUhUNCSucN9OL1fV3F/CKrHsYVDwAnCI0Y4jlu7OFkGg8fGMaeCRItkR/CRR8gMsU6Ozuh1hE54DusRgxXPesU83mE6bhBpuNi6dk0sg6DBlfvkEiCgvkxlP+6/KSBojWmonH8ft8QjgWjbCZXm5HlBmyNTgtHZxdUGk09Ied11YoAU2QWEQ1SttJa1iRJ0+Py7RtwSk8HKFfG8s/KWjvPr68FAU4QakGrlmvZzlIEkYNnj4zjpWOTzCGxWil3ACJy4CByoNVWu43/3kIIkAUg6PUiXvRJkOO4SM2n+eLUa3H59n6sdVhaynGRHBC90QQeOXAUR/wUU1/Dp0EANDod7J4OqLR0hs1LKyBATqFh3yTi4ehxDs8LOSGWxk2tUjAiu8njYEcPvKxcBDhBaODYhhJJJp28byqAvBx2UGwLvYhagxFWpwtqPScHDRyiulQ934IqCdQEEAtXVlyc2wByVFxjN+P8gT70OsxFn4TqjmR16cgClZDlYDgQwVNHxjAcCBWjFeQ5JNKOk0IYLXYHNOQ/wz3gGzlUVesuHY3NXCiK7KghHonIdLCV7qTU0Odt6sUAJwlVMW/nCzhBqNPoMeNAMYsPLYqUbOl/X9yHkUCULahyF0Z2rKCRTLFanZaEeiuGzNWp+byaBiAgiSmVEjzJMB8V26AQAKtei3ecuhVus37ZHRfpOOG3rx5k1rCZRFVkQagQylmCk/xmmOWAjhWKnELuu9CAIeFVziNfTUJKlLMhGY3JwofGj4isx2LEJVvXodduZvljeFl5CHCCUOcxpc8ACcfcvXsQh6ejoMWeihyzKr14Gp0Grp4eqNRarnNQ57FpVnXHOS4WxZSIKMxNwV2yC8z3wSTHRadRz+LPO63GZSEJebGAkWAM9+05AgpplD2Pi0DTsQKJIClVallkolnjw59zPAI0X3O5LAKTU0gnSyTh+A/+vDYsQcQGhw3XnLwJJo2KOdfSvOWaiytnhnGCsKixnN/kS39LC+ljgyM4OCUJx8gvIvPstnd0Qq3RcHIgH7iWv5IcFylvw1w9/GoHB/T7GqsJF25ZKzkuNjG6gebuYV8Ijxw8Cm80zpxrBVFgfhJViyAwIS+72wOFiqdrropXi1yQSaUQnJxENj2rtlja2Jwonl3a+IjY6LbhypP6YdZKViJOEFpkQOvQDE4QFgni3F0fvUD+aBKPHxrB/il/8QMvx24gmRfIFGtze0Ce3jXxikW2n9/WfARID1++mJLUvuUgCZRLYdgfwcMHjrKohdKCX40asNkuAHqjGRaXGyoNkQOZ70Dzh4M/cR4E0okEIwlkUTh+7Bams3kxj11rOnDeprWw6LgT6kqaWJwg1GE06dXxxeJ4aO+w5OEts86SLC0pI1pdTqi1Opl38staHYH5jg3yubyU4Kmq4uLxizFzXLSZcOm29eiwmBr6yaV043smpvHkoVEEk+man2WyWmGy21l2RghEm/nZdKvP1bntS8XiCE17kctkZkhCJRlsEr9SKpQ4rbcDZ5OQkkZT87xpN4xWS3s5QVjkSM+cHwOIpbP45Yt7MR4mUyyLV6t65lrK167WquHu6ZNMsUUTMt9zLXJQ2uE2UWQ6CRThsHCRKKbky1ByYhGhVajxgTNPgtPUGMdFIjV7Jvx4YN8Q4pl02Q5SasNCzoXUWrGQh8liZSJITMKBzqMLAgSFXLrcDoO3OtpIGgmU+TE87QVF48gpRBLI0nTmhm6cubEXWiU/WpKDW6tfwwnCokZIWvQolcJEOIb79x7BWIgcEhUz1gMpZeqJn/pSumYiA3Ss4OomwRENl5ld1Di0z00nOC6WQsvmnCdV8kug7IeUXe/y7evRZSXP8ZINqlZKeeJT0vkc9k748eShYwgnMozjyhFCYkRGAIwWC6zuDgglr9z2GRre0nkQILnwKFm7AqR5UWDr2txZM/PfZRsig0aFCzavxck9nqb6zPBBbAwCnCAsElfy1vVGk3hw/xCGA2GWZ0F+EZkTl9Xphooce3hZdQiQ4yIp2VGq6IVyN8wHCu3Me21mnDvQiz6HubgIL4YgsE970TIAvHhsEk8dHkWUkvhUtIBJn4UZaqIQYLTaYHE4oVAqTvyKrLqRXTkdFvMiIgE/IsHA7HhX7Z4Ii16Ly7ZtwCaPnTssVsWrtS/gBGER40Me3lORBB4+MIQhf1i2IxYtrbTBInJgcbq45OwisF9JtxAxiNSUBXLm3AF9djPbqa2h3A1LACWVy2H3mBdPHBpDgqUBll/IWkDkwGx3sNTNvKwgBIrmAcovQhoJlLtBrsMprY9mnRrX7OjHeqetpRRBV9AINaUrnCDUCDO9NyOBCO7fexhT0YTsqN+Sz4HBbIbN7YJSrZb9wtXYRH55iyKwkONiSXGxlvAVsiR0WYx4886Bok9CDZ0uLv5EDl44OoFnhkaRyjFJrtlSzY9GEJhjLREE0uTnZeUiQCQh7PMiHonK7iRZWLutJly2dT16lkhiZT+UX1h3BDhBqAHSfKHA9Oh/++ogfLHkzIIqRxmOrtHq9PD0rgGKC+oJsqc1tIVfunIQYLkbpqZOSPA0Xw/LfVvIJ0GtUOEDZ+6Ax2SoKQskSX+/dGwKDx0YRi6fl630SW0i6WVKPW5xOqRw3mqCDitnqFZlT2iM6UjMPzGJVDJRg8VKxEaXFZdt74fdQOGPS7F1rUrol73TnCDIHAJKpTASCOGRAyMYZQ6Jpfz11Sc9mWINJiNs5MSlVM3kwCud48psAr9shSEwn+JiIhw+QWCr8vdXRK/Nigs297EcDnLElOgo4cWRSTw7NIZUriB72aZ2qNRKmKx2mO32E5QhV9jw8O6UG5REEZlkCiHflCSkVHXWzMZ5bety48LNfbDpdNVv46i3FAKcIMgYDprqFKVw/74hTITjNakcSh7eVpgdjuKxgowH8ktWJQLMcTEUYs6LM46LMnbnRAq6rUbmk9DnIJ+EhUlrLl/AwweP4tVRL5LZfDGydoHrWYQFk8ZjhYiuzeWGwWKBwI8VVt0cpWiGTDKNwOQEKH9DtSLNHhFKpYBtHW5cddJGqJQ0mapvqqrVzX9vDgKcIFTAmSY4OdwM+UO4f89hBJJpycO7hmK0WlhWRoWKLAe8cAQqI0DnvcwngaIb5Ehqzsgfi8xx8dKtG+bN3UBzOZJM4xlKPT46XhZ1I8jQ7RAhKJSwuYvkoImSz3y+tBICktZBMhZj6cxzuRz71MuyhAoizljbhTcN9EJPuTl4aQsEOEGoQhCO+sO4b88hBBIpiDWQA8rkZ7ZaYXV7ICgVNZ0Pt8XM4Y2sCwILpYoOT08jFgpWnTclXY2SHJHbpMfbd22Gk3wSylpIYl4kA06WA/I/kC9fJLLwRbunCwazqYb76gIPr6TFECiRgXgkjNDk5IyTdqX5VDKCUaDLWRvW4Ix13dDyDVOLjez8zeEEYYFhyhVEjAUjeGDfEUwWk9VIl8qw+QoCM8M6PR3HGRxk3NkWk4Y3svEIkONiYHKShZctZEkgckAOgwoy5BZ39eS4aNPp8dZdlAXSxHwS4uksnhsax3NHx6RAiWoRCmXdUyiVsHk8TAip1A45TrmNR4g/YdkQIKsVCoiHwgj7p0GboUp2VRbeXRSOM2lVuGTrBmzpcPDwx2UbQPkP5gRhDlaMCYvAQa8fTxw6hskIySfLP1aghd1AlgMnCcfw2HD5U5FfORcBWnij09OIRyJsEZZFTotaG312C87b1AujWoNnj47j5WNTyBf3e3OJ6oy6Z1kD6BqNRgOz0wW9ycgcEuW/BXwsVwMCdBwWCZClKyxNzQqlfM45jDqcP9CHzR1OKLnyZktPFU4Q5hmeQW8A9+0dYme2C837+awB9HeUrMbidEKpVFfNx9DSM4M3riUQoEWY/BHIL4GcxOSSVVp3SSdBrVBgNBxFLi/7VmYpIG0DZ3c3S0FOpJcXjsB8COTzOYS9PkZi5cyTkuOi3aDD1ScNYK3TwoFtYQQ4QSgbHDLXHvIFcdfuw0hka1SVI3Jgt8PscEHBPHV54QjUBwHKAhnx+xAPk5pd9Z1ayZxL2zrJOjArZLRQjhCqtUSGyXJg7+iEhoelVYOb/850MQoITEwglYjV5MTtMRvwlpM3w2PWcxxbFAFOEMoGJphI497XDuFoIIRCDQ6JlHbPbHMyywFPVtOiM73NmzUreVtZzU6S8yZSUE5SZy0PZAxY2NlWhFqrYQ6JGr1OjrdNm6PKm790BGhCAflchoU/ppJJJicvz6G7wKTCr9zeD7f5eKfapbeL11APBDhBKKJIZtVBXxD3vHYIsXT1GN8S+GSKNdooWY0LAlecrcec5HUsgACZcP2TE0gyx8WFYVqsE6FGp4HV5YFOb5g3mpcrf/KpWQmBTDKBkHcK2UyGEQSao5VPp0Tmg7Cty4XzBvpg0+s4wC2GACcIJYIA4JVRL36/9wiycnOgKwSYbA6mKscy2fHCEWgwAiRQEw34mS5+eRbIEl+Qc7h1gv8MyYAb9LC4XNDqDHLdHBrcU1592yEgikjF4wj5ppHNZmQ4tUqzVqNUYmePG+dt6oOe5agpFR73tdxzgBOEMoJAnt5EECjEkQoF85T+Pd9AkfXA0dEJndm03OPIn7+KEJC8x2fFlOSQgoXgIcdHrVYPR083lCqVLEezVQQ172qtCIhAMh6Fb3QUCoW8KC6av3QsdsqaTly0dR3USqUMclFrw/j1i0GAE4QZgiBicCqIu/ccZnHj1UpJMESn18PW0cFTN1cDjP9eVwQK+QJLwxsPk5iSvIV4bgPI/KvV6+Hs6oZCqUIt8kl17QyvbEUhQEdR8XAYQe8kWOBNpVKuySEIuHTLOryurxMKHv7YEnOCE4SyYQglUrh3zxEc8QdlOdmws16FAJ3BCJunAyo1l1NuiVm9ShpRyBUQ8vuYmFItqaJL8OiMBtjcHqg0dPZbbSVfJaDybtYNAQrNpeMwig6brxx/gED0VIBJo8K5A33Y2eOBmh/b1m0sFlsRJwhlyFHehX1Tfjy0nzQQqlsRSsI1RBQo5wIlsuE5FxY7Ffl9i0GAHMFCXi8S0chxPgkV6xIE6I0G5nOg1mhrUlZcTBv5PasJgVlvGHYUVhT6kpNXRFIGBUsNfdHW9djsccjKTrqa0G12XzlBmIN4Np9nWggP7DuKSCoz82tVdxlBgNFsgtXdsaDDIvcCb/b0Xh3Py2eziAYDzKwrFmgfRt/8+T0TyOeAZMCtLhdUas3qAIj3sokIHL9S0tyM+AOIR0JVlbpKx7Y0dTvMBhb+2GUzcX+EJo7e3EdxgnAC+AXGYvdPBXDna4PI5uSltSmFllFCG0dHF3ndHFdzSWVMDpNexvnAH92uCIgigj4vYsEQKBNzKQxSogvFjHtiASabDXbKEUJ/xxUS23W026bdtN6RJcE/Po5MKlW13TMhuqIIjVqFD511MmwGbcUU5lUr5RcsGgFOEBaAjkIdnzkyxhLcpHOVk5GUV0E+CRaHAyabHQKt1LxwBJqEgCSmNI1krBgCyQLRJXogKAUYTFZmOVASMRAowZPUMIUIFJYSCtGk/vHHtC8CuUwW/olRZGU4gJd6WUABG5x2XL5t/Wx20qqm3PbFqBVbzgnCAqNC8zCZyeKPw5OMJNDRgzx1MLAkTbQQU14GefaHVpwavE3tiABFN6TiUSTjceSy0hGZSqWB3miCzmiEgnLuzikl02479pe3uV0QEJBJJREkISVmSZDHSElIaXtRSMmq17ZLZ1dMOzlBqDKU0XQGjx8cwUujkxAg3yJAwkl2dwf0pJHATbkr5oVpj44IEPMFUCIdcqRVKlWMtPIwxvYYvZXaSvJ/SccTLDw3x3LdyCcJu9Z04E0DvTBq1DLvWqkoNrdfnCBUwZsW1Wgyg4cOHMVr49M1ndsqVEQSOiWSwAtHgCPAEVjlCJCPQTIaZiShQBlGZRaNSoE3rO/GOf19JxAEfuogE8RFXMYJQlXQKPGNiLwI3P6n/TjkCx0Xcl4KzVnI4Yu0EUiIRk2Z8XjhCHAEOAKrHAFaM6OBMELTPln6HSXHxUIhj7efuhWbO50s/JEdjZEWDbfQNmxGcYIgE1rSSJiMxJklYSRQOVnO3CopbS4J0lCGPF44AhwBjsBqQmC+HT4dN0T9AUSDJEonz1OLrlIpgCu292Nbl4PlcJB7TLGa8K5nXzlBqAHNfEHEeDiGB/YdwXg4XsOdYMlwnJ3d8zqJ1VQRv5gjwBHgCKwABCjqhghCrBpJYAyjRDNEOI16XLJlPTa6bdx60OB5wAlCjQDTND0yHcI9ew4hlEjPxOdWOwcjlkzqdfbOLpYUhxeOAEeAI7BaEZCOBgAmFz7tRSISlQ0FHS10Wg24eOsG9Nkt3GlRNnK1X8gJQu2YgY4bhgJh/PKF/cgWJI2EWX5b2ehlMBthc3dCUCo4+10E9vwWjgBHYKUgIK2aFI7rHx9DJp0tfuyrbbdovRXRYzXiradsgXVGSKn6fSsFuWb1gxOERSBdOjE7OOXH3a8dRiJD7rgFZgUjiduKceUCYLbZYHa6QOmieeEIcAQ4AqsZAVovc9kcvKPHQNLM1UrJ+kD/v8njxNU7+mHQ8FTl1XBbzO+cICwGtaLFIJPP46WRSaa4mEjnZPnLELkgYmCy22C226FUUHw6LxwBjgBHYHUjkEkmEPR6kU2nZTsfEknY2ePG2f29cBh0PLlTnacQJwhLALSktvj88DiePjLGcjjILSSkZHE42T+FqknT5dbKr+MIcAQ4Au2LQCoeZyRBElKSteeCSilgV28nztm4Bno1tyTUc/Q5QVgCmqUTL8rb8MiBo/jjyASrjSSZ5ZyGUa4Gu8cDvdnM/RGWMA78Vo4AR6C9ESjPdJuMRhHyTSGfq77jYhZZQYRGpcS5/X04rbcTSvLvam84Wqb1nCDUaSgob8Pv9x7B7onp2jKPCQIcHR0wmC3y6HKd2sur4QhwBDgCrYWAtK0SCwXEQyGEp6drOH4VoVIocMnW9di1xgOFoGDJyORt1VoLhVZqDScIdRoNOguLZ3K457VDODwdAmkmkGJYpQRPJRVGtVbLLAlag7Ho3VCnRvFqOAIcAY5AGyJAJCHk9SERJVE6OV5aErnQqVW4+qSNGPA4QImeSkWORbcNYWp4kzlBqBvEFHgjwBeN4+EDw0wroSBnXhcPIzQ6LawuIgn6urWIV8QR4AhwBNoHgePjv8SCiPC0D7FwSIojlyGtTJe5TTqcO7AWmzx2ZlWYLZwm1DoXOEGoFbEFr5cmX14UMRGO4Vd/2o9YqnrITnl1JMns6ulhmfd44QhwBDgCqxOB2Q95PpdHyDuFRDQq20+LBJhcRj0u27YBfQ6LFNnAucGiphInCIuCrfpN46EofvniPkQyOVnnYIwgiyJ0Rj1cXWuYkBIvHAGOAEdg9SAgWRDKHRZpXcxnsgh6p5BKJBgUlRwQSzyAOMEGlx1Xbd8Is04tm1ysHqzl9ZQTBHk4LeoqSZL5MIKJlGzHRTpvI7VFq7sDKrV6Uc/lN3EEOAIcgZWEQCaVQnBqCtl0SmbwI5iU82aPg1kSTDoNj2xYxITgBGERoMm9pQARr4768NjgMKI1HDeQ7cBos0pqi8XjBtJnJC8HXjgCHAGOwGpEIBWLI+SdRC5HyrXlhcIh57e45sUCTlnTgQs29cGi0/KThhonDicINQJW6+WZXJ6FPj55aASxdKZiVEN53QqFAKPNBovTxc1jtYLOr+cIcARWHgIikE6QkNJUUUipstpByeWRUkS/rq+LqS1SlAMd5dIxBi/VEeAEoTpGS76CJJmfPjyKpw6PAJDrgEghkiIsbg+sDicPf1zyKPAKOAIcgXZE4LjYBhHMYZHUFsXCXEvCib1TiCIKggBy6TpjXQ/etHENE1XiRR4CnCDIw2nJV6VyOTy0bxi7J3zI5RdQCKN43znMVlAANncHDBYLZ71VRmF2IeEuy0uesLwCjkBLICAdrlIpHbAWCiJiQT9iwSAK+cJMgrzKzRVh1Khx/uZ1OLmbJ8qTO7ScIMhFqg7XJXN5PHZgGC+PTSGXl+tPIEKpVMHicsFoIbVFrg02OxRlREAKAwEERdFvQwTFUQuFPNOngEKQwp0UCmlRKZCHyDymRs4t6jDT26iK4nhTAjX6hz4+oijNDzJDkxy6dL4tokA7VibawyT65i8spE7uu91GOLVQU8mySv9EAwHEgoGa4LYZtLhs23oMuB0t1KPWbQonCE0cGxJOiiRTeOTgMPZN+mUJKbHlSBSh0mhgc3ugMxkrp5NuYn9a4VGUYpuRpnweiXAYwfERBCbGEZqcQDoaQSTgZ78bzRZoTQZYO7ph7+yGrbsHJocbanJcKlvQpVSy/HyyFca2IW0ofrulIRaQTSYQ8U0hODaK6akJJKa9iIfDSMcTUKlVMDud0JmtcHT3wOqhedMFvdnKiCb7Ms2ZKpxfNmTU5q20kCeNBC8SkahsmXp6vymi4dpTNqPPbubZH6tZZUV5OpbNG/UV/iRaU4KJJB46cBSDU0FUT0ciAUILmkqjhbOzGyotD39kmDCDgQIT+/fglQfvxeCf/ojAyFEkozFkySG0kEc+J6WOVSjVEFQKqFQa6PQGWLq7sGZgG3ZdfDk2nnEWVDodaMHhsVAr+QWUPt9KhQrZRBx7H38Qrzz6IMYP7kfM60UynYSYzaGQl/4RyBqlonmjhFajhc5sgXvDBmw+7QzsvOQquNZvRD5H1xVf0JUMXYv2jd5Z8kdIRiPFFsoh9yKTYr7qpI0wann4Y6Wh5RaERk/8ebYU9Fe+WBy3/2kQ/ngKmCfd83w7WTJ90q6ms28D+9ittsJefZE2biJyhTxSwSAe/eG/4LFf/QzpRAxatY6ZhwvMIrCwmVda0BUo5HLICsApZ52HKz/29+jcuoNJs4plGu6rDeOV3N9CroBCIYvBZ57AHV/8DMaGh6BWqqEkp7Xi0UKp/yKxT5HOv6VCiX9YjkBRgUwuBUd3Ny67/iM4453vh6BUQqVQsmt4aTwCxaGZeRCRBP/EOItwWCjccWZc2WCKsOr1eOvJA1jjMDe+wW38BE4Qlmnw6CM3HAjj93uPMrIgZ+taOm7QGUlIyQO1VrNMrV++x4r5AoLjx3DgqUfx1C/+G6OD+5klgf7FfA6qHQ/MIWx0fT6fh9XTgddd8Wa8/uq3oWPzVigpHIqXtkdAGm4B+XQKR176I16463a88siDSIYCUNBHvSZ/gRLpLLrNiSI2nHIqzn7Xn2PTmefA7PKUvcbH5xVoeyBbuAMsUV4ohIjfj0Khkk1WypejQAE6tQZX79iIzR0UIcbLQghwgrCMc4McokZDMdy39zC80XKSUO0kU4DeZITV5YZKQx+yFbZ1ma/7zDdAgWOv/gn3/+DbOPiHp5GOx+o6euwIZ+16XPC+D+DUq66FWqdfcdDWFbAWraz800zkIJtK4tH//AGev/N2+I+NsOOD+hUBJocT28+9EBff8GE41284gaRWe5vr15bVVFOR+gkCkvEYwr5pZNN0nFi5SHdRRIMGV+/sR7/LVn1TUa3SFfw7JwjLPLiU3GnfxDQeOTiCUDIt61NPk5ys4AazGRaXG0rVCt/t0i5PBPY9/hDu/e43MXZgH8Rc7gRlyWrptWUNtSDA4vLg/PffgDPf8V5ozRQ5IutOflGrIDBzuiQiND6GB3/wbfzh7l8jlySZXir1jjIQoNBqsPn0M/GWT34GHf1byp5Ak4d2tXwS1Xt6kOUgFY8j5CPhpLw8hJnfkgiX0Yi37hbkVgcAACAASURBVNoEt8lQ72atqPo4QWiB4cwWCtg96sVDB48ina3stlj+ESTzuMnmgM3jqtFU2gKdltsEUWSOYvsffQA/u+WTCE1OSqLTFGlW9iGo5wJMu06lXo9z3/FeXHbTx5kDI50z89IeCLBPcQGIh/z49Zf/H15+4F7ksyVC2TjTvygIsHd344O3/ht6dpxc5CI0W6WQSV7qiIAgsKilkM/HjgjlokvrZzafx9kbenHeprVQ86R4FQeFE4Q6ztnFViV950Q8OzSOxw8eQ67iOdqcp5DDTUcHTFbrylmESl9/ct7MiRh66Q/4/l+9H5lksrj7k5aD0vkxHT3Ua1fI/BgUAjvOUGq1uOqmv8XZ77mBhZnKXoUWOxH4fXVBgDQM6Pjp7n/6Ap66/Rczc4adQDfU3i/NG8/AAN73pW+gZ+tOnpW1LiN6fCX0jiaiEYSnvSjI1pOR6lAKAnodZrxt11bo1Zz0VxseThCqIdSk32nxSmXzePbIGP4wPIFsvlDD90hk/ggmm60o7NKkRjf0MQLyuSyO/PFZ3P6lz2Dy8KEZPEjiSKvVYU1fH1wOB5QqBZLJFCYmpuDzToEcGetDGARozWZc9qGbcNa7r4PGYCzrceN2og2FdaVXLgLJcBD3f/ebeOLnP5VCFkURRpMJPX29sFtsoDwniVQKY2NjCEz7AEbI5e5BTwTw+JkgQKFSYetZ5+Cqj30KnZu2MsLJS30QoE1BLBRiKooUYiqnlPwOtColtne7cd5AH4wr0XdLDhg1XsMJQo2ANfryVDbHCMJTh0clVTeZS5dCqWCSzKS22O5ZH4tBCQhNjuP2L/wD9j71KAtJZGZaQYmdp+7CjR+5ERs2boTFYmEKeOlMBj6vD/fdey9+/rOfIRIILGHJP54HGO1O/NnHP43XXf1WdtRA2gsz1os6UZFGz6vVUr9SpcZj//5d3PXtryOTSLBw4NPf8Ebc8H8/iA0b+2E2mRgUmWyWEYRf/+p2/PaOO5BOJOoIkcD8gk674hr82ac+D4PVXi36ro7PXsFViSKLVIiFQ5IaalHUbCFxs9I6Qg5bSkHEaX2deMP6HlhY6mdO2uTMFE4Q5KDUtGukMJx4OotHDw5j97gPeZJfrFJIaZHOP2lxtHrcMBQXQbqtLdNEU4KVbB4P/fBbePDfvotsRvJO1uh1+LO3vQMf/8TH0T/QL0nhFs92pUVCRCyWwEP3P4gvfvEfMbhvX9FPoTqGlSBWKFRYu/NkvPML/4yOgS2cElSbkMv1ewHY/8TD+Pktn0DY54PBZMR111+PGz/8YfSs6ZmZL2w2FOV64/E4fve7O/GVL3we4yOUTK1eSskCdBYLrv3EZ/GGt79bkmnmfgiLmhn0KSc/A5JWDvspPHXux33hdM/0QBK9fOO6bpy1sZclauLUQP4wcIIgH6umXUkmdH8sifv3DmHIH67puSq1GvbOTmj1+prua6WLidRQxMK//81fIsv8DgqAUoV3X3cdvvilL8LhcCzob1Ha2T/6yKP44A3XIzA2AcJzKYXuJlzPe89f4LKbPgm1XscX+6UA2oh7RSAwMoz/ueUTGHz+WQhKAdfdcANuueWW4nyR6PLcQvMlk8ngjjvuwI0f+hCZFpY4WxjFYERfEAU41qzBx39xFwxuzwzzkGsVbARM7VgnCSGRZDppHTBsa1CkIk5GGRzfsL4bGpWKk4MaJwAnCDUC1pzLpQVmOpbAnbsHMRGOy09IIgJavQ72rk6o1SSkxHz+m9PsOjyFFuxkMIgff+xD2P/8M1AUHRDX9ffjF3fcji1btrCPMzv3XSBvAv097Ti++c1b8YVPf5o5Ji2pCGTOVEBnMuG6r3wL2y+8jKvmLQnQ+t1cEg/LZrN47hc/xX3f+TpLB3zK607DHXfeCaezKIRTnDPzPblEKj/76c/g27feCtTNh4WqKuCMK67B//nSN5kPS/u8ifUbo6XUREeLRA7I76BWPxGjVo03ru9m5ODEIwVO0+SMCycIclBapmtoCo8Fo3jwwFGMBCLFxCLF3UmFNtGCpzXoYXN5oGGWhDZYliS7Lzsmeeq//wN3fO3zyBWPFtK5HD71Dzfj5s98BlqtVtZoEAaTU1O49PwLMHToUF2SspCz2/ZzL8BffONfoTYYufOZrJFowkUiEA9M40cfuR7Dr74EhUaNb3zr27juz6+THdlD88Xr9eLyiy7GoQMH6rbTJG5K0TDv++KtOPnyqyUBk2J2yCYg09aPIAdTEkBKxCMQWbTCwkS//Ff6s0Wnxpkb1uDkNW5olStcJ6aBo8wJQgPBrUfVJKQ0FYnjt68chC+WZB+60ue+2r5YazTC7vEw8zgzsNK9THToOBGBejSzDnVQ1IYKqXAI3/mLt+LYvj2SB4UgIJPL4cnn/4BTTz21pgWf+nrzJ/8e/3LbbVCztL1LLxqdAe/58jew68prJUW+aoOw9EfyGubd9kvfCxpjjUaLR//tu7jj619kmU9dPV347Z13YuvWrcyBVU4pWZ3++q8+gv/5yX/WlVJTuvadl16Jt336H2F0cGlfOeORy2bhHx9HjqkjlgLBKxMEBfkuCQJ0KiWu3L4RAx12qMmpWM4D+TXzIsAJQptMjKHpMO7ZM8jUFukDL9cmYLJYYHG7oSgX+mkxgkCchW2sRODJn/4Qv/7mVyBms0UyU4DeZMbL+/ejw+Mu+nlVf+VLZuMf/usP8Hc33QSlzA9FtelAuPef+np89L9/J/k2VG9KtSr570tAgEzHkalxfPnK85GIRRgh2LR9O353z93o6OioiSDQWfcXP/cF3Pb1f66i6V97g509vXj3l29F/xlnsYRiM2S99qpW/B25TBYhnxfpWIw5Xx9f5ndILCqjgI4VLtm6Adu6XPzVrMNM4QShDiA2owpS/3ptfBoPHxhGIpuVHaZD75fRaoPF5ZK9WDajP3OfQS94eHICP7n5ozj83DMzuwYy6+sNRryyfx86OztqsiDQ9/uHP/hXfPymv65b36mdglqND33737Htgovr/iFZDuzb+pmiiMf/81/xv1/9PLREggVg07aT8Nt77kZnp4clZJJTiFBSop8v3vJ53Pb1f2IhxvUq7JhBpcYlH/wILvzLj/FEYBWAzaRSiEz7kCLn5HmGYGE5dZHJJp+/aS36PTYome8SL0tFgBOEpSLYxPtJPOm5oTE8OzSGdK6yJDM1qyTgQguU2eGA2e4onpu34La3UMCBpx/HLz73KQTHR2fU72inlcpm8eDjj+Gss86S/aEvWRD+5qMfxY++/32oBIVsq0u1IaV169SLr8S7v3ob1Aau5V4Nr4b9Tln8An78x0c/iCMvvcB25uTU6u7pxq/vvBPbtm2piSCQY+tf3vAh/OrnP6u72w7Nx3U7TsH7v/49OPvWccvTPJMik0qzvAqkSVFSRyVn7dJattA8ois6bUZcuHkd1totZf5Gcg9jGzZD275iThDabAgz+TxeGJ5kQkrpnKRBLmevQx9as90Gs8M5j9ri8nv0Ujjjkz/7D9z//W8V87oXB4b5IGTxd5/8e9zyhc8VIzOqD1rJSfH8M8/E+OiobItL9ZrJl0MJR18vPvCN76Nn+045t/Br6owA+2wIChx5/mn8+8f+L2KBgPQmCALzufmn227FB66/Xvq4yIhiofkSDIVw0ZvOwaGD5KRYbxItQqnW4H1fvg27rnpLW0UW1XnojquutH6l4wkE/V5kU5kyQlB9XSqggG6LCRduWYc+uwWqOh0lNrLP7VQ3JwjtNFrFttJxw2ODx/D0kVFmSmMx11VpQgEKpQpWlwtGi/WEOH6FCBTqvSbKxFYoiEgl4vjl5z6Bl+67E5SCYWbXIJB/ggKuvl7cddedGBjYVN2KQOZiAP/8la/is5/9f9ArVUV/hhLpkNmwBS6j743BYmeZ+0675u0QVPLM2Et7Kr+7HAGaqiqVBg/96F/w29u+hgJlQqVJXBQ62rxzB5585lloNeqqBKFkbfoUObR+6zao604OJJJC5P7C916Paz/zj1xHo8xpmshBYGpStnSytDaITELbadTj+jNPYQJIXNG6/msEJwj1x7QJNYqIpbN4fHAEr45PI0+yoxWeSk6ApU2USq2CzeOBjvIKyNhZNb4zAii5DoWpff+D78bo/j0n7N5Ku4z3fuAD+NSnP43u7i7mdDkfn2EpYFMpPPzQw7jpxhsR9E3NEI769UUERTOc/Z4/x6V/+TFoy5Qr6/cMXlMlBIgSZxMJ/PenbsIrD/2+LJtpkS4rVHj/DR/AzTffjM6uTmY1m3e+QEQ8Fsfdd92ND72fwiIbhzvNzQ27TsNf/dvPeZhsUceEjhPCPi+ymWxNwFM0V5/Dgiu2b2AkgZfGIMAJQmNwbXitRAiCiRQeOTCMvRP+mhY2RhLcbuhM5pl2LiQ61PCOsJ2EAsf+9AK+e8O7kIxH5413pnVbZzTgimuuwY0f+QhOOW0XlILyOKllZiYOBPGbX/8GP/je9zC4d++sKbe6tVJ2V9k3RCFg5wWX4m2f+xosDhcXTpKNXn0upB351MH9+PEnPoyJA/tPNNlTKnSzGW975zvxlzfeiM1bNp8gzU3zxefz4lf/+yv88Hvfw/DhofIc4vVpaFktdDRl9njw1//xv3CuXb/qMz0mwhFEAj7kspR0SbKByuFnFJG0pcOBszb2wGM2yrqn7oO5SirkBKGNB5osA95YAr/fcwjDwejMzrv6iyay9MWOzi5odLrlRUAUodRo8cxPf4T/+cLNVV52ESq1BiedfDKuePPVOHXXqejq7AIRnmg0hsOHD+PRRx7BA/feC7/Pd3xd1UGpGYfe7TvxF7f9AI6e3haxxtTchba9gT4ku++/Bz///KeQCAYWtKBpdFqc8rrTceVVV+DkU3bB7XZBqVQiGo1i/779eOjBB/HYww8jzHwYGlkoV4gSKp0WN9z6r9h87sUyvYca2ablqZsshqR2GZn2I58ny0EpSLE6QaArt3U5cc5AH7McyCEUy9PLlfFUThDafBzpuxdOpHDn7kM4GgjPeCPIeXHUOh3sblJbXEaSIIpQa3X48U3X47l7fgelnIYLlLjJAIvJxBJTqTRqJONxxGJxJGJR5NmOpPHF6unEDd/7MdZsO6nqOXfjW7O6niBmc3jkR9/FPd/5RjHUtLKrLuUmocyfOqMRSqUC6UQSsViUHS+Q/kHjCxEEFiSLaz7297jowx9HnpRC5cz3xjeuaU8gchALBRENUkZG+bhLQqsidvV6cHZ/L2x6XQ02h6Z1b8U9iBOEFTCk5IEwEYrgzlcPYzqemulRtU0z/a7RauHo6oJaQ3kbml/EggglRHztmgtwbPBAdQfEYhPpPoWSTqIV7HilIFK+hNnQzkb2pOQTQVaY62/7IbadfzF7NtOfauSDed0zCOSSSdz1zS/j8f/6DwpmWCBXyWyYmxT1IM0XKe5H8tshvQM5UQ5Lhl6QJgjNk3Pe+R6866vfYdE6wiryrGO+RpEIItPTsvRDyo89KThh15oOXLF9YykV1pKHhFdQHQFOEKpj1BZX5EhHwBvAE4PHMB2jDIjSMljpg8V+FwQYzCaWt0Gpok91k4sI5BIJfOmyMxHweeu6WMsNAV1sj0m17+03fwFnvu96ls63KR+axTZ2hd2XDIXwv1+4GS/edycohqTaXJ/b/UbPjYXgJkHxzW88E3/783uQSsRWzZwha0E8HEY0GGSJ1OQQ6dKY6tUq7Oxx440bemDSlmJM5NSwwib9MnSHE4RlAL0Rj6QUTvmCiINTAdy/7wiLcpC7n6UPm95kgs3TAYWy2QpkAsITY7jlwtOLgg5NpyiLGg5anshAetH1N+Itf38L8rks90NYFJKLuynincLPP/N32PvEoyB1vYXm+oK/1MooFtfMsrukB9K/1wxsxs13PwYi9auhEDkIT08jEY2wiCU56xJTTCQLp1KJM9evwa7eDhi1lK6ZE4NmzhlOEJqJdoOeVb7WZQsFvHJsCvfvH2JZa+cP7Trx7+l1NNscsDodLISwaZ9pQYDvwD7ccuW50Ko1TA2vXQol0nrT296Fd37pVmZBqCmUpF062YrtFIHQ5Dh+dvPHcPC5p9pkF14kCKKIznXr8A/3PgmRzkYaGVfZAmNH1oKo3494OIiCWNvnXSmIzBnxtL4ukBWBl+YjwAlC8zFv6BNLzjyvjE3jvr2HkGO57SWaQJnuKPnJgpsnQYDFaWdhe00rRBAO7sUtV5zHCEI7meqJIJxx2dV4360/kMLsVvhi37Q5UeVBJKzlHRnCTz/+YYy89kpbEQTyQ3B0duAzDzwLpUbTPCK+DINXyOUQ8vlYxAIV+UYbEVqVEledtAmbOmxQKohYcMvBMgwhfTPIbYaXlYJAaThzeRHPDI3iuaNjyORKQ1z9FSWnKavTDaPVyhyoGp51ThDg3fcaPn/1BdC0gQWh3HGKlNx2nX8x/uI7P4bINoN8EWvGe8QIwvAQfvx3f4XRvbslJ0X6hLTBSiaKApyrgCCQ5SDi8zKnRDlHCiUCQQecZp0a5w70YmdPB6MF/L1qxls1/zM4QVg+7Bv6ZPqQhVNpPH14DK+OeZGTmZ2O1ljSFbA6XTBYLA1to2TWEODdvwefv+r8tiAI5YAQQTj90qvwvlt/iILQJG/4xo9Iyz9hhiD87V9hbP+rpFrV8m0uNZC2Y66eHnzm/megUKlWpAUhm0ojGvQXLQe1kWaXUY83rO/Cti43k0+u7e62mQZt01BOENpmqOQ3tGQnoA9YLJ3BYwdH8PJo9QiB2aAwSk+rhKOzm6kXNtTIJAgIjBzFZy84nSViaicfBML3zDe/A+/+p29zHwT503PJVxJBmB4dwX994iM4+uqLkvOf2B4EjQhCV9EHocB8EJYMR0tVkMmkEfb6kE7GpbjfBQpbU1jY6Wwxa1W4csdGrHPYoW66s3RLwdgyjeEEoWWGojENoRcxkkrjd68ewlF/WDLXsYD96vZYkkB29nRD18CUxtSeqM+HW847leWUkJebsjFY1VorRTGc+87r8I7Pfw2FfI77INQK4CKvJ1+a0NQk/ufTf4v9Tz8+I0DUDnOHjkL6tm/Hzb97FOlMekWZz7PpFEK+aZauudZi02twzY5+9DqsxaRL7UP6au1rO13PCUI7jdYi20pUIJRM4XcvD+JYKAI6MBfJJF7muDhf1XSfVquFrcMDjU5KiFLUe1lkS068TRAF5NMpfPnKc+AdPQZFqwvHzAHgzX/7aVzwob+GWOBhjnWbFDIqivv9+MXnPolXHvw98w1tl404vXXbzjkPH/3pb5GMR+ZJvS6j88t0SSUrTTaVRNDrRSaVlt06Wl8UgoguqxmXbF2PXttsbhjZlfALG4oAJwgNhbd1KqeXcTqSwF2vDWI8Ei9TnqvmuChCbzTC6vaw/A2NKCqFCt9611U48MLzrU8QigAQamqVCu/90jdxypvfjgakjGwE1CumzlQ0itu/8lk8/5tftpEHgmQgu/DPP4hrb/kasqlE21qdSs7LpGiazaQQnJxCJl2LRUQ6Euq2GnH+pnUsM6OSO/m23PvJCULLDUnjGpTPizjiD+LB/UPwM0lmufsuEXqTGXZPR/3VFkURKq0Od9zySTz0X//OQpraw3NLhNFqxw3f/hE2nH7midkEGzeMvGYSqUqncd93voGHfvQ9CY+SznZLoyMwefC3ffqLeNN7b0A+l2lLglDaUpBFIUlJlwJ+5GSkay4dajKxa0FEv8uOszf2ottqkt57XloOAU4QWm5I6tMgZg6kN5JFsRaY/gGVvAiMBCL45Uv7kc0VJU+ZX4LkNCT5Fc2+rLP6b5LaInlg19VpkQiCWoM//uZX+MknP1yfzjewlnL3Dc/6jfjQd/4TrnUbWPpnXpqIQEHEc7/6GX791VtAXvPEKqt71TSxfXMeRe+MQqGExmjEjd//MfpOe0PbymaUwg6TsRiC3imWHK2aHXIWDhG5Qh5bO9y4fPsGWHSaFeWHsXwzrDFP5gShMbg2p9aihAV7OUkEiUIZxYL053QKhVQcSGaAVBYi/blIAuht3huM4NFRH7IqNUQKt1IqkVeqUFCqIbKPHfkpCKxOJq1EfxZp12yGzd05ryTzovXtC4D/yCBuu+6tiAb8zcFusU8pWwk3nX4m3vNP/wLK6ijbGLPY5/L75iAgYOj5Z/CTf/gbBMdGASEPgcQoWriQ06+9txcf/entsLg6IdTgqb/od2sJeEjPnP/TT+JHoSmvFL0jt4iSBWWTx4bLtm5kege8tDYCnCC09vjM3Ycw8/vMXimbgRgIoOD1QTw2gvyxoyiMHkN+zAtxIggxEkUhnQayGSCbOi7lHYXoJXJAVqlCXqNFVqNBRm9AosuKhN2GiKsTcasbUZcTCYsNaaMJeRWxfQUsVivMdjsEJaXJmS1EJCTXx9qKmC8gGY3gRzdehyN/eqG2m5t9dXG9JKvH6//srbj67z4Dg9XW7Fas+udRgFzUN4WffPxGDD7/bFvgQfx885ln44Pf/wlUGm1NO2fZBGGu7h2zDjJvQIZR+c/MqDhjdmELS/EvSqqgRQXWOZdR0qWIf5olXapWyh9BGRlP6nbjnP5e2JczxXy1RvPfZxDgBKEdJgN7q0WIuSxEyqM+MYn8ocPID+5Hfs8ryO/bC3F4CmKGsjhKaWwFqCV1OSlWgf19+aec6qPMckVbAfsvBbtTeulFqJFT6RDvtCPU1Q3/mvUI9KxF1NWFpNsN1foN0Lo9EJWqsvNf+YbG42AXgUw8hjv/+R/x7K9/gXwu1/KjojOZcdmNf4Oz3/XnUOm0Ld/eFdfA4oftt1+9BU/893/WtpNdFjAE5MUCrvzw3+Dymz7B3sbaqXRZw9maQOEbknQ6vbFKyiiazUFIp6HMpiFkMlClMlBmMxByOZB+hJCnaBsFCkTuiTuo1MirNcjrtShoNCj8f/a+A06uqmz/ufdOn9nZ2d6zmx4SkpAAoYRAaArSVLCBforyFyz42T8REURFRBCwIYqKAoqgAgJKEAm9JQTSe3azJVtmy+xOL/fe/+89d2Z3ZrbMnc2Wmd1z/PKR7N5y7nPOPee5b3lekxWy2cB+rgjaBwC7g6qyEs2BgQF4urtHq689ArLaR4NJErG4ohjrF9bBZbMe3bNPy/jNzptygpDL455g9IoM+dA+RDZshLxpE+QD+6F0dkLtHwAikfjmT+bVxJJztN5YjffHvzkYQoooIWa1IGx3wldcBm/tPPhXHof+k0/AwLxFkCUzBJl8keMTrJHDEbz12MN48s4fIzDgyeVRYVYUR1kZPn7z7Vi07kwmSc3b1CMgSgZs+eff8ZcbvoFIKDkzZ+r7oueOtgInrrzz11h06hna26VDi0R7p7V4ImY5pP+jzZ3+yDHYertg7WiH7UgLbAfbYO3thnHAA2NwAGLAB4M/CCkWgRCNQiQCocjs3vQ+k1VBMZqhGE2IOWyQbXbE7EUIFRYjWFkO7/x6+OfMRaiiEhGjBb7ubvh7e6CwKnBjz3mSlE5UZDRLItY0VOPE+ko4zJOTCaUHf35M9ghwgpA9ZlNzRjwqW/F0I/jDHyHywANQolEIigFgfr+xSQB9oYzlkSXbgcqsBelHJb5HklXOhiwDmi3CwNYtUQoDRgk9K07C/quuRvvJZwKyCDEWhkr2xCwafd0c3PImHrz+a0xZMWcbg0JEzTHH4HP3PgRHWXnGscjZZ8njjrFtU1XR29KMX17zCfQdbsp5K8Ixa0/HFbf+DI6SUqZ/kDHYN+4PEKjCqSJAttrYvlzYuheVr76Aiv/8B4U7tsMQ9QAKxSAZoapk0WN5AhrBp3ikQRuDDCluJ0x1BWqWCM1coK0LohiDIEahSlb4Khei6bwzsXX5ieipqocaicEgx7Q6LaMQBSIHVL2RlFHPmF+HUxfUstLN+aJ4mcevxoR2nROECYVzAi7GAgzDkHftQuRfTyP8579CaWtiLgOtjUUMxrYgjBUjMJJzYOyYAvptwkURZWZK7+KlaD3nQrjXnIxA7RxE7A5tEdEJS6i/Hw/f+E1sffZfuSm5HAeJMhkuvvYbOOear8SrOOp8QH7YxCKgqFCiETx683V47e8Px33643RzTWzPhl3NZLPhkq9+G2s/9kmAkefhUQWDP4mHA4hyDEafD9auDthbm1D6zmaUvr0JjsYDkMJeqGyzp3UhEU6YsPxpb+bwvA592GjnMrYQd0RStpOKqNUJ94JFaFq+Ch1LlmKgvBLBgkLEJMOwvCc612YSsaa+GmsaqmA28HLNkzzFJuXynCBMCqzjvKiqQu5xI/rAAwj/43HIu/cBUUrh0h2iNM4bj/+01IVIhWIwI1hdh77jV6D9zPPQddI6RE1WZtrM5Hika2175kk8+J2vIRzwZTKSjL/T2Z6ZtK7SX0uqa/GVhx6Hs4pSPpNjO7K9MD/+aBGgOXPozVdw15UfBfvSziLh7mjvrfd8IslVC5fg8lt+itplK0Y9TSBDgUFiLoGCQ/tQuvkNlGzdDOeeg7B0d0Fi7wRZ/RJxRXqpt96ejn6cRjk0fBXJjGBhMXoa6tC86ngcOuEkDJRUsRgH7RtGZboGZy2ux4ractiMPFvh6Edgeq7ACcL04D78rnIMsa3vIvSLXyHy5BMAEx7Jzkw/fY+S/GUSt2KIKsKV5eg69Sy0nH8x+pYci5jVntEcLwdDuP+rn8W2F59n6ZqJBSeTz3NSnz3xeILActnPu+ZanP+Vb0Om+A8efjCp0Ou6uKLgj1++GluefXrIijAoWDH1A5T+nU6xEqd+6HJc+NXrYHYUjJq9YO7rhWvvLlS+shGlW16FvbEZYjhI4Yc58pGgBRxqdkMt/TlqtaB7/jzsXXsOmlaeAH9xKZwWM9bOr8HymnLmVuAtfxHgBCEHxk6NhBF98mkE77oT8o5d8RiD1I7pMw7mwMMMdkGLVqAsh3B5JTrWkPHzvQAAIABJREFUnYtDH7+cBTfSl55KleySGnNFUJS1IGLvy//FfV+5BtFAILe+0AUBpXPq8YXf/hlFtXO0anRxjalcQn629YXmzpFdO3DP1R/HQFdXPPhv6olBAncttlgL1qU/VNb5S394BPXHr0l7qVUqmwopEkD1s8+g7p9Pwtm4C6a+Xggx+kCYvmfIPIfoKbVYB2pRmw1dcxej6dJLseDDl2JhdTkMnBxkhjHHj+AEYZoHSI3FEN2wAf5vfR1Kc/uoS8LIPsVp7nzK7YcoTOI7g36d8GJKkFlcwtbrvofOE9exCOoRAxnJzBqL4k/fuBrvbHhG+1rJgXWS+kHx3xd/6Rt4z+e/CoW7FnJm8lHgmxyJ4uk7foCX/nI/5Jist2DppDzDYCCeQKmNKs65/JP44E0/ZroBid+pigJRVlByYBuW/+gWFO14Awps8biBhOuAEpET4YYJN2MOvAzx93ooz4lSpOlNF2EscMB03VdgvPIaCGZTXCslN/o8KYM9wy/KCcJ0DrCqIvrmqwh8/VuQd+zMIrd4Ojs93ntrFCfiKsbh938QLedfCu/cuUzFkX1wJX0v0XLSunMr/vC1L6D7cOPU+pVTTDVD/yDXwoITT8LHfnCHZj3gLacQUGUZjVvewiM3X4/OA/sGUwKnk1xSpsL849fgmnsfhNFq07IWBAFSOISindtQ8+zTqHn2SZg8fXE3QoIYjBTAOKRbklPAp72d7I0xGWH+yIdh+exnIS1dChh4DEKujZne/nCCoBepiT5OVSDv3wfvZ/8Hytb9LE1p5jdtw1UNEvpWn4i9n/0iulafPPyxSZRFlrHl8b/h8TtvgW8E+eWpSZfS+ktuj5KaOlx2/c1Ysu4sJkWd0KOf+WOWP08YCwbxykO/x9P33IVYgHz3Se/UJProRpuLrooqfPSmW3HM+nM1oSFRgrW3AwsfvB8VL2yAtbUDIgtCnknvfjz/QRRhOPdc2L57A8Rly9g7xFv+IcAJwnSMGaUxeT3wX3cTog/+npnmZl2TRPjmzcO+q76ItjPPiyu7xWVh4x9Q/t5uPP2z27Dp8b8hFg1rFZUn2VrJ4iCShI/I7iGZzFj/P5/GuVd/CRZ7Qbyg1awbsdx/4Lgi59++fz3eevLvQ+JC6SaqSXqS5HgUqlB69qc+i3M+ey2MZhtENYqindux8IF7UfbKKxCZwFmCtSQIwiSymEl65jEvazLAeMF5sN14E6SG+RnFlaaji/yeYyPACcK0zBAVkRdegO+azwPtHXElxEne+ablOUe7aSJvG4gWlmLrDTeh7T0XQaTaEknCK6TG5j6wF7/70mfQ0dSYouw4aY+TvGYLJDytYsnJp+HKO34FW3HppN2WX3hiECArfn97G3537afRsmuHpsORXp9gYm6VepWkvV00GHHixR/A+7/xXVidLqiChDn/fRJL7/4JLFRYamqdZpPxtKNeM5XiqICowvTpT8P+wx8BZgu3vE3paBz9zThBOHoMs76CGokg8P2bEf71b+JSyYlLzLAviBGQGekJVZMRb9/+M7SftB6KwZQiQUu+/669u3DP5z+F3vYjUOWpq9MgmUyoX7YCn//tn2Eky0FSPYsp23iynl38BAEiOvbswG+++Bn0dRyBMlVzhiUlGLDgpFPxkZt+jJLaOZACftS9/AyW3fp9SAO+lMFJfxdm5tsvAsXFcNzzcxjf+x4I8foOfJbmBwKcIEz1OFHE9d7d8F/7BcTeemeq756j91OZ3vuOb9yA9nVnMW34wUZxXZKExk2v46m7foSDmzeNoBA38Y8lGo1YetoZeN+130Tt0uWsUM1kuzcm/ilm7xXJRnXg9Zfx9M9/isZtb4Mqhk60r59t6EnxhEazBUvXrcd7rvlfVC9dAWuPG/Me/CMW/uW3QJSI7eyxEg5lMmkAGU87HY5HHoJgc3BXQx69lpwgTPFgqYqM6BOPwf+Vr0Dt807x3XPvdoMLiSjCc9wqvPudH6C/fuGwtZQW+I59u/Gvn9+GHS89DyhUtZKCOSZy0VUhChIEgwGrz78Q773myyipb2A/Y7o7E77F5N54zIQeJYIGKV22ZdtW/P1HN6Bx+1YY9NQ/yATASJ/5ggjRZMSpH/goi1MpLCuHMezHkt/+HHMe/RsMgYFMV535vzcAjnt/BdOlH9OeNUOxp5kPSH48IScIUz1O0QhC9/4KgRu+P6Ig0lR3J5fuR7oILZddim1f+S5kkyVpERlalT1trfjPb+7GG/94FLFYlJW5HxJcJHEatvrofKz05Eqwhf6Mj3yCBZfZS8oGiYF2wZlpBNYJVl4eRjNhoKMdT9z+A7z73DOIhcOaCyuJW+oqqjjC02viwwIcRS6s+8gVWPfxq2ArKoEhFsGCh3+HRff+AmKQghF5I/ec8Yz1KHjkLxAspKjKWz4gwAnCFI+SEg4gdPedCP7wtrhk6RR3INdvZzbinRtvQfN5HxwsN8MklxNFn1QgGvRh+7P/wvP3/xbtBw9AjtEinPi+17+Js3K0VJaWNOEo3uDYlTj3/30Bi045AxR/MFQ9W29p3lwHdxb2T5s6iAZDePuJR7Hxgd/B3dwEOaFUGCcLmZFJJ5MCBJMBc5etwHuvvhaL1q4HSSqTQmjlK89h5Q9vhKXzSBZkNXMP8vsIAcKcYjgffRzSkmM5LnkymJwgTPFAqUE/gj/5MUJ33AkwjXXekpUX6dPOc8xqvP7LXyNSWMxKK6f6jlVScIZkNqG78RBe/NN92PvmK/B0dCDs64eiQ08ikVQmSRIsjgIUV9di2WnrWaW9wupapsGQnOrIRyi/EBgpgJTcDqIkoWvfHrz00B+wd9PrGOjsZEXBKL4k2eY0liuJMhRsTieKqmux4qz3YP0nroLZ6YQSk5nysNk7gFOuvRKF27byTTBl2ogQyq1w/Op+GM85h7sY8uSV4gRhigdKjYQQ/tXPEfjeLbNEHClbgAUoFgu2fvcHOPy+D0KQR6kCyT7oVESDQXQdPICm7VvQsn0rWnfvQm9bMwJe72BgYYIQiPQ1KQqwu4pQXFOL+uWrWABiw7ErUTZ/oWY14G3mIhA3AkT8fnTs34PGbe+iZcc7aNuzC54jbfB5vSlGI3JDED2lzARrQQEq5s5HzdLlqF++EnXHHoeyhnkgwpBwPRlCfqz8yc2ofeJRQNHr5pq5cKc+mQCUWGH/6a9gfv8lnDzlybBzgjDFA6UqMUQefAD+b/wfEOL+yZHhV+Fefy5e+9nvgGh01JCCQaOvoiIWiUCmipihIDyd7ejYtxfug3sRCgTg6XHD6SqCq7gUrjn1qF66HAWl5SAxG4PBEHcn8AV9il+Fab0dlSaORMLMWhQJBuFpb0HL1nfh7+mCu60VAb8XZVW1sDtdqFy0BOXzFsBRUQnJYILRYGCxKlrAC5Vf1qotVr3yPE64/nMQvPSzRKWCaX3MHLq5ANVlh/3W22D+yEcgiNx6mkODM2pXOEGY6lFSVcTeeA3+L30e8r7DcT8735zShyFSVopX//gI+qvqWfXHTIGHrHYkxSrQV58ksQp6InNPkCwyxRqwSvbMPUHBjZosI4+mnurpnyv3G9TDYi4pcj8YIBmpLogmo80qh6jk/FJBhZUoI4L+y+ZhktImex5VhdHvw7E//Qlqn3wUokyVGHlLIEA1WEgtVii1wnH3b2G44H1cMClPpgcnCFM9UKTJ7ulB4MtfQeSJp+IbFScI6eZI1SZi640/RtN7L4WgjCOHnMrtxo2/w8IWeYrVVM/6nLxfeqwB+zfzR2lVHFLeyjHmDM20wv17sfqmb8K5e1fcejCT6itMxPBJEGrsKPjjIzCccBKPQZgISKfgGpwgTAHIybfQcveB8H33IfC9mwAvaSHMwloMmXA3Avs/cy12Xf3lSa9yqT/vIVOn+e/zGYHx61yIqH7pP1j5/W/D1NOTzxBMat+lYxag4PHHIVTW8AyuSUV64i7OCcLEYZnFlVTEdu+C76proOzYyUzf3IaQBp+ooPmSK7D1+ptYFTzeOAI5iQCxS0XB4gd+i8W/ugsCS5/kbYh0a39TEYHls9fAduttECStxDtvuY8AJwjTNUZyDMHbfwL/LTdBhJWL8KSMgwBICg5/4BN491s3UFDBdI0Svy9HYGwEVAGGaAgrfnYL5vz5z1MiA54PQyJDgRS3jJILRpBEFL7zGsQ5i3j8QT4MYLyPnCBM02CxAKi+Lvg++knENr3JUx7Tx8EI7PvUl7Dr81+GqJKsMm8cgRxEQFVB6Y2rb7se1U88BZqpVCyKtwQCLGoY5ss/Cvsvf8XFSPNsYnCCMI0DRvEIys5t8F39BcR2bIcwWFdg/N7QaXycCb21ajPg3e/djsPnXgyBRY/zxhHIQQTiBGHV7dej+rGntOyHHOzmdHZJrJsDx+9/A8OJa+LBidyhOp3jkc29OUHIBq0JP1aFGo0i/MhfEfzBD6Ee6eBq/3GMw1VVePkPf4G/vA4ktTyhNZkmfBz5BWctAqoKKRLCyru/j7qHH+XlvJImAos+MBlg+cLnYf2//4NgtSUM17N2uuTbg3OCMO0jpkLp70fk979D8K6fQvUEkhaZ2RBfn/qM9C8RClov+hDe+uEdEJlQEv/imPZpyjswKgKiomDhnyhI8W4IrC7I7GwJyXTtjSY9dAOMF54H2/d/AHFOAwSmS8JbPiHACUIOjBYrTwsg+NPbEbrtNqghyvsfMlTOdJrARFSY95aaCNVhxRt3/RruVadqIkc5MEa8CxyB0REQWJrjcSzNsW8WByom3lRazQRIxyyG/e67IK05iQcm5unrwwlCrgwcCSgN9CN83+8Q/uOfoDQ3T3r+f648uiZMo1VVpL+3XXQZ3rnuJq3kc7pqXe50mveEIzBoMi84dADH3/wtFG7fOqTSOYvxEefWw3rdd2C65CIIZjO3AubpXOAEIacGToUa8CP6/EaEfno7Yu9sj2c3zPRv6ISNRIFvySJs+v7dGJi3OJO6ck6NHO/MLEZABQzBAJbe8zM0/PV+CDGyAM7WpkJashi2W38Mw8knQbBSCjd3EebrbOAEIedGjgIXI5C3vI3gXb9E9Pn/zIqiTqogIlhXg53fuAHtp6yHyiwHfGHJuenJOzQqAq4927H2fz8Dg7t3dqIkCpCWLoP1O9+G6b3nxa1//B3O58nACUKujh5zOfQh/MCfEPzJXVA9PeTVG7O3+RurIEEuNGHXF7+Fpgsug2Ix5+qo8H5xBEZGgEXXimjY8A+svP6rUGXNZUYaqVLchTZToaMnVUQBxtNPgfV734Nx+UoWoMgJfv6POCcIOTyGKlUcVIHY9s0I/eAWyFu2QekdABSKlM7XiOC0rAXRgFhZIQ5+8irs+/CnoQoSX1dyeE7yro2BAFUKtdmw6rabUP/XByAFQzM/7VE0QHA5YDjrbNi+911INXM0YsAMB/n7ycLnuYYAJwj5MBNUBYq7C5FnNiD27HOIvv461G533jN01WRCz6qT0Xj5x9G+7ixWXpenNObDhOR9HBkBAVBlWN1dWPL7e1Dzr8cg+ShteYY2qwWG40+A+bLLYLzkQohFpUnknpODmTDqnCDkxSiqWhnacBhKTy9TXwz9/reI/ud5qDEZAsicp9W1z/1Glg8FcrEThz7ySRw+/4MIVFVDpXoLQnKaVO4/Ce8hRyAVgbgCqqLA0teLBQ/fj7l/vh9CkCx+M6UgG7k5YxCKHLB87nMwXXIZpLnzALNx8IOFpW1z7ZIZ8XJwgpDTwzgCCydVQfrj9SK26Q2EH/wrYi+8CNXTHecHtAFnJgrpV55svq+lMaqQbQ70LT4eBz53JdwrT4JiMHCrQU7PQd65cSGgKjAGA5j3yJ+x8P5fQxoYiG+gmd/Ncd1vqk4qKITh1NNg/fI1MB6/BjAZAS6ANFXoT/l9OEGYcsiP/oaDDF1RWFpkbP8BxF56CdFnNkDetxOqxwvESFtAsyokFAaS75wgBOn/zdQ7bZtPXeRG+hnzXyWoiiQiUuxi7oTDF38Q3SeegpjRHFet51HOmTDnv883BBIzX4Agyyje9S6W/PZXKNryBqQAxSXkWRMFCKUuGNeeCfPHL4d08kkQ7Q5O7PNsGMfTXU4QxoNaDp3DJIbi+7Ua9CL2xuuI/Ou/UA5shdzWBbXbB9XvhxAJaj7+EUOHtJ9ry9rQ4jb6Y2awN4gSZLMN0UIHIjWl6F1wHI6c9z50rzgeimCAqMZAaY28cQRmIgLJJnZBobgawDTQi7n/eBhVz2+ArakNBj9ZFEg9lFREk2n6ZCIy9nuboP3MBklZCA4nxJoSGFashOlDl8F46mkQrHYtJ4O/v5M5UDlzbU4QcmYojqYjKoaqGSmsAJTS1QGlqQVKUyPkw82QmxqhHDwEtaUNSm8v1FiIUQFteaI/4jDHRDJVSLYZaAoF9BOKf9BUEBWDCVFnMYJz5qC/YR58cxfC1zAP3rlzEaioYqqIiaqMVHiJ2w2OZrz5ufmBQKp9ToxFUdB4EGVbNqPs9VdRtH0zjJ4eQKV3L2Hno8qlk/V2jEQQEnojMjkAIUgmiA1zYTh5DQzHrYa0cjkMS5cCjgIeV5Afk25Ce8kJwoTCmUsXU6FSmeRolBEGRGNAMADVPwCl8wjkrdsQ3vwOujfthNXbA+tAD0QlypIIkpcnlYquqMLg4kAfRORzDNuciLnK4J3XAO/KpehZvBL9c5cg4iyGwgIOAcVohmpItRTwQta5NEd4XyYLAbLqMVKdtteTRUGMhCFFYnA270HDE4+gcsOzsPjdiKkmKKBgvwQBT7gJR3ISjr/nGtmX4l0LQkUMUkExpDPPgOlDH4Jh5QkQnE4INgtArkB6n3mblQhwgjALhp3FDDD3AlNzYU/sj0Tw3KF2bGtpgzkcgNEXhtXngSXsgzESghSJAEQwqNHpkgTZZEbIXoCoswSWufNgLC1GxFwAlQiELEOMRTR3h0icIv0riFODWTDV+COOhAAzmaXa4ARVgSoaEIqEEd61BdXvbkHdlu0obW2Gva8DRr8XoqJqVreUkJ/RghyT369UN2Gc0zN1UkEyAmYThKJiSNUNkJYvhuHEVTCuXQuxqoaJPZH8ChVJGwo+HM01MdmhzXw6TTcCnCBM9whM8f3ple4PhPDcnibs6eyJrz20gCWCD8eKQVBgNJrhLC2F1e4YLK6kPUKcEEyWdXSKceK34whMPgICfL096OvuZpY7KRaF2e+Do7cbhe0dcLk7UNDejgKPGxavByYi8qEQzJEoJEWGSgQiRq6BeDOQ5U6AQATAYQYsVgg2B9MnEMqrINbXQqqpg1A/B2JFBcTyMoguF0sx1l5bzXyoyZHwF3nyxz/378AJQu6P0QT1UAW5B7p9Qby4vxm7OnrihRL1LwRGswmFpWWw2O0T1Cd+GY7A7EbA19cLj7srbtmL+yUEAYokskBegxKFMRSExeuFNdAP84APCwQRxxaaYKHN3O8dFCwU7E5AEiHYCyCUFkAoKIBYVAahrBSw2Zj1IBHroEUOESfgNU9m9wwc++k5QZgVs0MzBfb5Q/jP3kYccHsgs2ACnWKoqgqT1QpXWRn775DFILdyuumrJ5GpMSuGlT9kXiNAW3MoEEB3W9vY85ZZ94aazSRhzZxKnD6/FqoSGwxzYGJjg8GOGvHX3vwhFwdzB+r/JshrfHnnjx4BThCOHsOcvwJtmsGojIc27cCRfh/ELFOUjGYzSqqqIRkN3PSY86PNO5hPCAgQ0dnajHDAB1EVWOxOumc/9d/av2KKivUL63DmIqp9MET0k49NTrdM/H3w9/G/jKR6yJUQ82kGTW5fOUGYXHyn/eqKqqLT68eGXY1o6vVAomJIum0ASZYDS8JyMO2PNGIHaFGLhkMI+3wse8NktcFMcRKsbDRvHIGJRUCRZYQDAURpY5cMMNvsMFosbIPPxn9Px0aCQfR0diAWJknmoZYSdiiQgurQXE6IkxFJOKG+ClYjya0PNb7JT+x4z9arcYIwQ0eeyTEDaOrpx0sHmtHS59PrUIgjosJkSbgVLJOYm330A6DEYmja/Ba2bXwGXYebEA2F4KqqwbHr1mP5ey+CKIqTl1p+9N3nV8gnBKi6aiSMva+8gB0vPofuw00wWCyoaJiH5WeeiwUnr4sXHctusw4Hg+h3uxEOafokepvNZMBJDdU4sb4KZgpS5I0jMIEIcIIwgWDm0qVkVUVzbz+e39eMIyS9rHfZYWmKAiw2G1xl5TCYTKm1HYalbE3fU1O0tSrL2P6fp/HML36KIwf3sc4k8s8Likpw9qc/h3WXf4pZFJI+wKav0/zO+YsATSxFwbv/fgJP/eJ2dDcfZtYq9spIEsrq6vG+L3wNx13w/nFZrsKBIDzdbkZw9Ta6t8UgYe28GpzYUAWTxEmCXuz4cZkR4AQhM0Z5dwQtGp39fjy5Yz86vQFNAoHtnOn52MMfjSwPVrsdrvIEOcjhx1eAth1b8Zfvfh1H9u0BiTqxZ03YZkUBheWVuOLmO7DwtNOTTL88fzuHRzVnu0bxAr0tTfj5py5DT/sRCIMvFnVZSxE02O249p4/oeGEk4fVLMn0YHS5SDCAno4OyLGh4MNM59HvTQYRp8ytwekLajWZJV5RUQ9s/JgMCHCCMMOmiKwq6BwI4IG3diIcjWmbYhIxYAIo7P9GMGQKAqw2K1wVlZCoyuIILZe2ViUSxbP33Il/33Mn04bX0rbimlDxvputdpzxyc/g3P93LYw2m8aT9NtTZtjs4I9zNAjQHHvx/nvx8A9vgFkyjEAABKZNsPZDH8Vl370VIr1DOmNgEhk4WkxCCF1trcw6lqklz+WoouCcxfWMKBglXuskE3b895kR4AQhM0Z5c0RMUXDA3YeNew/D7QtkVVCFiIPF7kRhaelwt0ISAlqaVG6kN4Z8Pvz9lhvw5j8eYevwSFqNgihi0ZpT8JHv347iWi3imzeOQNYIqCoCnj785vOfQuM7b6elCg5t06JgwNL1Z+J/fvxzmKjiIU1MHZa7lP4IAHM3uLvi7obhmQ3p/U/0gOIQTp1Xg+PnVMBq1GSbhxqnxlmP+yw/gROEGTIBYrKCHe1uvHaoFb2B8JBbYZTnS18qClwuOEh+NS0aOpfhifj9+Put38Xrjz485oeataAAH/vebVh5/sXDClLl8vPxvuUCAprFTTQY8e5T/8AD3/4qYqHQkPUg7UUSBAnHnnk2PsEIgv2oSiJTlkR/dzciFJOgY29nLg9RYBkNFLhIlgQpxYKh4yK5ADnvQ84gwAlCzgzF+DrChIEEYFd7Nzbua0YfqzevPw6aPBD2wkKmkMhkWvNIRUWJxvDyg/fhnz+9FbIcS/UtpH03LTz+RFz1iz/A4ipKaMmOD3B+1qxAYMgapW2qUb8fv7v2M9j92sujCg3RuxOLyTjv6mtx/v/+HwtczOJVHBFXIgl9XV2IUW2ULJpRknDa/FqsaajkgYtZ4MYPTUWAE4Q8nxHED8hy8MyugwhF48WVBp8p8xeD3VmAwrJybTHLuyai9/BBPHjd/+LQO5vHIEYCZEXGx278EdZecSVUqkZztCt33mHFOzxuBFTg1Yfuw+N33IJYKMqCYamN5Dkw2+34v789g+KG+anZP+O+ORDyBdB9pI1dT2/JM43oKzh9YT3Wzavl6olHgf9sPpUThDwe/UhMxq6Objy2dT8MtMGnRFWzJSz+dCMHJNqdThSVlx+VGXQ64aOnk0QJm554FP+49Xvw93aP2B2mOy+IKGuYi8/d+6AWi5BHlpLpxHjW31tV0XVoPx789lfQvG1rmmZhMjoCC4K94sZbcfwHP8yyELSWmaRnwpjmbthP2Q1Hkq479lnkbqBaDpIAnL6AxJQqYckj92EmTPjvpwYBThCmBucJv0s4JmNbWxdea2zDQDCS1TJEgXuOQhcKiovy1HKQCmegrxdP3vFDvPo3ikUYZUEWiCQYsP7jn8JFX/8OJKOJxyNM+KycYRckUaRwGBt/fw/++4d7QEGxqW1orhlMZpx08aW49Du3QDSnBwdOBC4iQj4v+nu6mWJoNhYwElNaU1+Nk0gngYspTcRgzJprcIKQZ0NNMQckn/xG4xG80XQEwWiUtFt0xw4QOaBMBVuBE+KMSIUiCVrA09aCX175YbhbDrNaE6l5FtpCTmZXm6sIH/zWjTjhoks13XuWL56YBPpjN/Js2vDu6kAgvXYBRAnuPTtx7xeuRPeRVqZ7MHhMEg8lw3/d0mPx0ZtuRd2ylVB1pjbq6FLqIYqKUDy7IRbVYhLGsk9QXynZkeY5ZTecMrca6xbUZX1bfsLsRYAThHwaeyafLOCtw+14YV8TIjLVgqc0Kn0EgTbIguISFLiKIJDtManldSVEtslLaN+9Dfdc/Qn0s/K5IzciSLXLljPxpMrFSxhpyI2kzXyaiLOjr1GfH/d89nIcfGdzasRKfFdmZCFujfvAN27A6osvgzDpX+gCQv4A+jrbNXdDFh4MSlE+c1EdTp5bBQpi5I0jkAkBThAyIZRDvw9EYniz6Qheb2qFLCcCEvUJopB2gbO0DA7ncHKQQ484zq5QKpoKRVHxxsMP4Olf3AG/p2/UIDGDxYzTLr0c7/vydTDZbTweYZyoz9TTaOOPBAJ46o4f4sWH7oc4hkVAMBhx/jXX4tyrvwxhArIW9GAqqAKC/gB6O4+AikbpbUSGKe2RYhJOnEPuBn1rh97r8+NmHgKcIOTJmPrCUbzV1M7IAbkYsiksQBkKFG9A1gP21ZMnz5xtN8kE7O1x4+mf3Y5NT/4DsVAw7RJDQZu2Qhcuu+5mrDz/EkimkVUjs70/Pz6/EWAiowKgRCN4+8l/4JFbboQcCEBhWS/DmyQZsOyc8/DR7/4I1qIi3W6+iUCJNntmSejq1J0CmciAoDgEcjWsri3ngYsTMRgz+BqcIOT44JJTwR+O4tVDbdh+xI1ghL4YxjaKD1kdVUhGVFHwAAAgAElEQVQGI5wlJbA5nVO6gE0brCrQ29qMJ3/6Q7zz76fi1gGtsqVGjIb+5igpxYeuuxkrzruICcxoqWHxZTQL0+20PSu/8YQjQNoaOzduwFN3/xidjYdG1dagCqHL15+DD153M1w1dVDjwbEJkjHhHRvlghQ4SWJK0Sx1EpwWE4tJOLGhOu2DgU/8qRq7fLgPJwg5PEq0rUVlBRt2NWJ7Wzf7kmGvb1pt+PRHSLzikkFCUXklLLPMjK7KCiMJv/3Cleg4uD8l3ZMiDhL0ikIZnZU1+ORtv8D8k9ZCIbElFtJBVpaZamfJ4Qk/RV0brZARlQ1v37MLf7nhG2jbt5PVVRip0cyYt+pEXHHLnSiuq6dcWy0INuvyTBPwwKrKZJl7Ozshx6JpFHjs61O9hnOXNGD1nEqMlvwzAT3kl8hjBDhByNHBo6UpEInihb2H8XZrl5a+F1dmoWCjTI0yFFyl5bA5C2aVjz1hRqXlumPvLtz35c/CfbgJSDITD2YuEI4iULvkWHzkxltRu/y4cZXpzTQW/Pc5jgC9bCoQ6O3Gn775Rex94+UxpMoFlNfPxWXXfx8LTlkHMR6UOK3f3eRu8PrR29meMSYhXRmFJNrfd+x8rKorg0nirrYcn6lT3j1OEKYc8sw3pC/YHn8Irxxowc52N2QqkJT5tMEjJKMRRaXlMDtss8OtMBI2TChGQMuWt/C3W7+Hll3bh1fHo9VSJP4kYf7xJ+L93/guIwmMTHAhpSxmXB4fysiBirZd2/DIzdehecd2Nv4j2g5UAcW1tbjsuu9hyelnQ8wh4SH6fggxWeZOxKKaJWHkNpzKOEwmrF1Qg5W15TDz7IY8nswT33VOECYe06O+ItVTeOlAC3a1uxFjZk799MBgMsFVUgqrs4AFJM6+lipGSwFne15+AU/c+SN0HjyQYkkYwkZgglGLT1mLi75yPaqXHAMIxBxmH3qz7okVBW27duCJ27+Pva+/yrRBRntvSurqcdH/fhOrL7wUiiLn3PygGJqgz49+txvRSFg3QSA25LAYsXZ+LVbWlME8Sqn3WTc3+AOT9ses3EVycujJcuAJhFnMQVNvP4s/0NO0mATAZLHAWVIGs806ey0HIwBGanj7Xn0Jj9/xQ3QdOjBqkKcgSiifNx8f+Np3sHjdmZq7IcmSoFcHX8+Y8WOmFwGtxpmKxs1v4F+/uB2N72yJf3lrpHqQlscHvWxOAy75+vVYuv49OWU5GIaiqiLk97MCTzJZEpLnb9yqNqLBDYDTbMIp86pxUn11GvnJ7iNlekeW330iEeAEYSLRPIprETnwhaJ4ePNOdHjT0/NGMRYygSDtM9dgkFBSVQ2jVSMHnPclYcZ2AxFde3firquuQKiHAj7jjuf4YeSOoDRJSTTAWVaKj996JxatPVurEsmllI5iZk/3qel1GSkKVfMtdezbgfu++Bl0t7YkZsGInS2pqcEnbv0ZGo5fE/dJTfczjX1/emIKXOxqa4UABVrMkr5NnrRELlw+H6vmVEBkMU+5/ay8d5OLACcIk4uvrqvLVBDG68cL+5qx390LEVJW8dCSUUJxeSWokhxvoyDA1CaB/a++hH/efSvadu+KF75Jc8MIZLWRUFxVg3Ov+jyOO/8SWF0uDuuMQIACfYHQwAD2vvoCnvjpj9DT1jLqHihARMX8hbjwS1/D0jPfw1KGtfhgjWSwbTdXN1AWuOhDn7uLWUYydVMrG6/FOhlEEWctmYMV1eWw5lCcxYyYgnn2EJwgTPOA0XZ0xOPFxn2Hcbh3IP7ln+l1Huo0uRMoW8FoMU/zk+TB7ZngooKW7e/i3z+/A3tffwWqKqdZW1J1Ela/90Kc+/++iMKqmlEFc/LgyWd1FxNZK7T99Xe248U/3YfXH/srAn2ktjm8sYRFAZi3YhUu/uaNmLP8OIjkl9f/WuYG3kSG/H54ursQi4wduJic2EtE2mE2Ye08ClysgGlG1GzJjSHJt15wgjCNI0ZbUbcvgGd3H0JjzwAoHjHTGpTYvuglNlttKCwrhdFsmcanyJ9bxz+SWCoY5btvuOcu7Hz5ecgpIjOpplhRlLDg5FNw7lVfxLzVayCZORHLnxFP8g4pCg5v24IXH7gPO178L5NSTm2DbxYkkwnHrD0DF1z7ddQsW6GlDia9mPqM9bmDUogCF7sTgYsjrTD0mZIqu0zvit1sYIqLq2rLee2G3BnOKe0JJwhTAndceidpZaFEqtZeL57aeRC9vgAUndI82iVUWOwOFJaVwWg08pS8cYyhqigIDPTjxd/+Es8/dD/kSGiUuA3SShBQWluH0z50BU792Cdhsjs0P3ZaKuRoAjzj6B4/ZRwIDIu9iceeqLKMlx+4Dy/95Y/oaWuFqsSLHKXIG2kFvwxmM0754Idx9qe/AGdV9QzQxYi7Vfx+9HZ0xMnOEElgFSpHTelVYTFKOH3BHJzUUJ0yIlxMbBwTNA9P4QRhigYtWaCEAuTa+/14bOseeILheBCR/o4YzCaU1tTAYJiMuvP6+5HvR5LiIlXje/F3v8K/770bYdLdj8lahiNzM1OQlgKomlJeVJGx6sxz8eGbboPNVQzJZJwBG0i+j2Ja/5M+hkl+eOBIK/7+g+9g28sb2Vfw8OBd7c0URQNUswlnX/5JnPf5r8NosWrDPkMauU1IJ6H7SBsUhT5HtJZJlZWOIcwuOHY+VtSWs/iExLn5ZkmZIUM5pY/BCcKUwB1/lVQFMRVo7O7HKweb0ebxM7cCvXGZXAvaywxYHHYUlpSB9A54mwAEVECORrDz+Q144cE/oPHtt9hFhwSZGfLsJ7TIkuWnrL4Bay+9HMesPxsVcxdAIP90ikWBL50TMDLZXyJu1CHi19PchB0vP49Njz+Ktr272Pikk4PEKJGwGKlprv3wFVh9wQdgsFqY9HDOBiBmj0yCDbDARQ9zN0R0rTmJW1Gw4roFtSwmwTLpJa3H+4D8vIlGgBOEiUZ0zOup2N/lwX/3NaHbF2R7il6zNJlPbU4H0zkwGI08jXFCxm1oI5cjUbibDuKl++/FG//8BxSmQZGaCpl8S7PNgZrFS3D8+y7Bmg98FGZnAeRojFsUJmRcsr8IvUuSKCLi92HLk//AG//8G47s34uwjwJ/R7he3DIkGo1Yde77cNaVV6PmmOVaXYUR3EfZ9yhHzxgMXOxGNExiSkOp0qk9TiK5cYn3ArMJp82vxWpKgeRKozk6wBPbLU4QJhbPUa6mglIZD3b1Y8OeQ/AEQpr3U+dXCpkBrQ4nq8rILQeTNGDxr08KXnvjkQfxwkN/QC/5qyGnfUoOBbPR4mq027Fw9RqcetnlmH/yWlidhUMltfkiOkmDFb9sfOMnQauo348Db72G1/72EPa+9TrCXu9QZc60XhDZJjdfYWk5TvvYJ3DKhz6OgtIy/aa8yX2qKbk6BS563G7EorQWje5LSRYHI7jNBhFnLarHcTxwcUrGabpvwgnCFIxATFGwu70HT+08gJhMjF2ForO+An3MOAopILGCyQHzNskIkClaUdG67R08/fPbsO+t10F+IKqkmd7IDSEKIttsjBYLGo47AWddcSXLmRcMEigQktd0mKjxGiJmLD6E/OiiBKrA2PjW63juD7/GwXc3ITTgZYXNNJWCkZp2nbolS/GB627G3NVrIJDVYJaRObJchv1+dB85MsxiMnbgIsVrAO85Zh6Or6uk+N2kxl1rEzXbc+U6nCBM4EiM9HpEZBn7u/rw3J5GeMORMQMSkwMZmdabIMBit6Oosgpi6ps4gb3mlxq+89PGLiHo6cWzv7wTm599CsG+3sEiOFpZ31R1OvZVSoRBlLDk5HU443+uQvWSpbA4CmCyWNmqSgsvtRnn257wKTTyRsNiQFQFcjCEoM+Lzv178OpfH8SWjRuAaAQCEehRSjRTFyWDAY7SMpC2xYVfvQ4GsxUqq6mgJwJowh9y2i+YCFzs7exgssxDnpUxNvq42dNskHD24nosqyqF2WjIKp5h2h+cd0A3Apwg6IYquwPpFYvKMra1ufFm0xH0+kk+mbYWfQGJZC2wO51wFBWxhY23qUUgsVjK4Qj2v/EKNv/rMex++QX4+nozLoZkUbA5CzF35WqmnTB35SrULl/NSm9rcSfcsjD2aCYl0TE5cZHJhwc8fWjbswuNO7agafNbaNq2Bd5eGo94tglTOExcOeF/0NwJFpsDx5y2Hidc8H4sOnUdzI6CqZ1QuXo3Ulwc8MHT40ZssMBTZsJE6FLthlPn1WDVnHIYRW7dzNUhPpp+cYJwNOiNca4KBVuau/Di/hb46euGsuXS8+ZHIAtk+hNFEQUuFxzFxdytMEnjM9JlRyrGxL5aFRn+3h4c2vQG/vObu9G0aweMknFsZUWKaZBEmCw2WFwuVNXPZcFwy889H86qGsixKCjann29Zl6PpxCF3LiVKqussqLBbEGguxM7nnsGW559Gq0H9iHo6WNCR7IijwkdQSsrCqoa5uO8L34VC9acBntxEUSeHpwyyLTmhPw+eLrcbF6OPiFTAxcJX8puWL+oDqvnVPJpnBuvzoT2ghOECYVTu1gkJuPt5g68sP8wYvoKMg5GzKsQ4Sopgr2ohBGFoabX9jAJD8QvGffTivB2HsHGP9yLt/79BHxud/yLlQY5fZdPfAUTxSDLkcLSIYsrq7Fs3ZlYfvb5qFl6LGxOJwTS+Kd4hXhyZaIA19GP/XTUn0yep/rnbCKbh6wFTMTK04v2fbuxc+MGbN/4X/S0t0GhLBGmT6GJ/7Ao3zRXD/08EYRYUFKCEy78AM781NVMKluzoadP5unAKDdfqIB3AP1EEkg5cliLW2RUEaowPMLjvKVzcVxdBYwpa1ZuPifvlX4EOEHQj5WuI4PRKDY3d+C1g0dA8QfZNBLocRaXwllcNEaQVTZX5MdOJAJsE6PNXlHQvnc3Xn/0Qbzz/Ab43F3xCoHJW/qQuv1QtIIWvUC7nMlqg6u2FvOXHYdFp6xD3bIVcFZUwmC1QaJqnMzapJXxTtQHyv5ZJmfz07Pta67qEY5kcRjxXTpuPCE8I6EgfF1uHNm7E3teexEH330HvUeaEfb5k1KBtU1q+FMlZ5aAueWWrT8bp334f1B9zLFMOpl/3uqYPaqKgNfLSkWT+qTeUtF0ZYtJwvqF9TiuhmSZZ5DClA7YZvIhnCAc1egOLXb0NyIH21o78erBIwhQLfYsViVREuBwuZgI0qAb9aj6xk+eLAQYUVBVppVw4NUX8dpjD6N553YMdFHlPMotT/32T2xqyT9nX8pkAo+RdoKI0ooqNKw+EfNWnYDKhUtQUFYBW0EBzHYHq7XBigUNE3CarCfM/rqZdKK0OoFgWQfRcIip+oW8A/D1daNz3x4c2rIJje9shvtIKyuxbRANLEh3pOyRdHzpyhSn4yyrQO2SpTjlAx/GsnPfRyGjgKptdJrlIfvnmo1nEEno7+5mgYuZWrINx24y4vSFdVheXQoLj5vKBF1e/J4ThAkaJn8kitcb2/BOSyeC0bF9o6kbBflaDSgoKoa9sJBtFrzlDwK00Qd6e3B4x7vY8+qL2PXi8+g4fBAiCy+IWwxGeRyWqUIWCUqtZCxCgNFogIOsSGWVcFVXori6DqXVc1A6Zw5KauagoKwMFqcLJPBDJIX88CxyPy1DYribYqIx1bYGzcKRZukQJS3rhkxisSiCA174errQ3dKMvrYWdLY0oe9IKzzt7ejv7oS3uxuxSIQFE2oCPAkXwuh9ZpYcVYEqiCipqcXy9edg0drTUb/sOBSUlcczRfTYOiYal/y/Hs3HIJGEnh5dpaITT8wCF60mnDq3BifWV8YrXeQ/HrP5CThBmKDR//euQ3inpQNMgC+LRrroxZWVGjmYpelWWcCVE4embzvMJ64oiEYj8HW7sfnxR7Dx/vvgHfCwehnaBjry52uyrj09XFy0js0FSpmUKD6BvoCNEiSTGYVFxahdsBgNK49naZS1i4+BragUktXK3BdkGo7FZChylPVpqGlFpxJN71xL9Fvz+6f5ngUJokGCQTKwFEMSLIqFgvB2dcLdeAjdjfuxd9ObaNu/G309bk25j+IICC45xnzdCitTlqh3MXx4h2ITEun69BwiIxQFriKsvewKnHL5J+AorWD9IEtCIo10SA0h2SnBI0J1vUTkbvD50NfZGY+PGemsxJzWMGUeJSK9koj3LJ2L4+sqtJ/ruiE/KBcR4AThKEaF3gdfKIJXDrXg7cOd7A1hBX4yFEGJf3uxF6m4rBwWZ+FR9IKfOp0IpKhhxu3stJH3HT6ITY//He9u3AD34SbNl05VBFlLD+RLLKPxgINhQglkItcsS+Svj5HVIB7L4CwohL2kBGX1c+GqqEBRdR2KKyphLyllf8xWK4wmCySzFUajic052tRZ6iBt6kQ+yBQfX901HqNCUWguy6AoW9qk6Z5UFpsIQCwcRijoZ5YTf083ejrb4Wlvw4DbjY7GA/D2dMHv9WlFgQQBkiAysqM1WYepP3XjGSQ1ogST1QJXXT1WrT8Ha97/YZTOW8jIBnGMMQQBp3OK5O+9BQH+/n7NdSbLo3/AJFgtK+ykhS5Q9siFy+djRU05TFzgLW/nACcIuoZupAVLRSAi46UDzdja2omIPJaDM/Wbk/5lMBpQWFrG/My8zSwEWKoq+c9lBb7uLjTv2Iq9r76IfZteR3frYURDIfZVRRszZTekht1l+t7SvPmJNTnZPUGrM3moyOogGk0wWa2sfDHV7qD/2hwFMJstMFisLHCP/mstKIDJZGauLRb9L8uskI/P0wclGoUcCbM/0XAEvv4+9l85FmHHsFTDaIRVwCQp8URMIlP7oI0ibrEYy3oy8lsTDwZlwkgqjCYDSuvmYv6qE7Bk3XqmWEnSyOSaY9fOBNnMml5T+zTxwEUWkxBLEFx9XXBajDhj4RwmpkSVNHnLPwQ4Qch6zDR/sTeoxRxsae1ANKZ9KeltBpMRzuIStjhnc57e6/PjcgSBeGyBJBmYub9113bse/NVNL77NjoO7GHm22iAKnrShpgciZ++bWbnS9fm1PC0S/qip0b309oIczbF56Hdl6TB2RXJ6sCsDfHT2fMl7GEjiBvr6Xb8kzMliFAQYLbaUFheiYoFC9Fw7AosOeUMVC1ZCsligRqLR9gn4hVyZLhncjcCA14MsJiESFaPWWg14fQFdVhaVQYTz27ICrtcOJgTBF2jkJqtQMWW/rv3MPZ29TJTrN5GQWWS2cgsBxa7g5MDvcDNgOO0DVBgUfzBfg/6OtrQvm8PDr/7NvZvegPu5iZEohGW4qiZ48m0PwkPnroTZ7jBSK6QLPqUgSBo7g2NsJBJmqxqpdV1mHfCGsxddSKqFy1FSW0drE4XqCRzagnu5H5MTjpnFk864w9NBC5SgSeKHcn0OUSkUnO3qnBaLCy7gQo8ZTpvxgOZZw/ICUKWAxaIRPHY1v041O2Jf4TFV/ExBPYTgVayEkNl/VzmFx5sKn2RZRnZmGWf+eFTjwDLYBhjh2cqiuRqstmAcBhNm9/ACw/+Dntfexk9fT3MXG8x0TyhCg9xeeZsHiNpc5ahQkpemkczIKSVF01yLY96Z/3lyofSDMk1QA8VjYYRVmQ4nU6sOO1MnHb5p7HglLUQTWbEgiEWA8HqK+hoeowVOi7DD8mAQMDrQ287FXiiLBWdDJaK0ynAZauXYGllCScJeTTLOEHQOVgUbe0eCOKFA83Y19mbdWyuyWxCYUU5LFZ76saRzYums6/8sFxFYLgbIUEiKG6A1lt/dxda9+xE6/Z30bR/NzxtLfD39CLg8yLs92k+/5RsguRvMm3BTv/up6+5bCtEpWz88QsOm6rDbkR3T/JRDLoPBEgUE2G3w2pzwFFaAldVDeoWLEHDcatRuXApnOVlECQDYiT1mxS/oD0NBWgObUacDEzj/GaBiwPwdrsRjUZ1W0FpzEgb4dxj6hlJMHOdhGkcRP235gRBB1Y0uQcCEfx71wEc6vHoT2WMr2RGsxmusjKY6WuRN47AKAgMpvRRcJ4cQzQQhL+/F76ebvR1HEFX00F0Nx9GT2szeo+0sZ8H/f44IdDMucxsH/+TYAtaIGSiDd9edYsIsb1fk45OljomPQLN1aYlFpJEuNliga2oGKU1tUynoKxhPsu0KKqqhaO4BHZXEUw2O0RjvBAZZU3EMzP4BMlxBAYDF3vitRt09lcAXFYzi0mgwEUD13zRCdz0HcYJQgbs6WutfcCPjXsPo7GH3Ar6vGhsGVbB0rIKS0tZRHlyOtn0DTm/c34gQGIBmhYxywagNEdZRjjgR6jfg/7uLvR3dMDd1gxvVwc8nR2soJR/YAB+bz9LRYwEg8zioMoxlh4pjxAvw2hFksth8N8Jt358utN/SPyICXmJEgxkEbBZYTBp2RGOQhcsRUWs1oSzrBwlNXVwVtXCRZk6hS6YbXZWi0LTatDqTrCWRXBvfozb7OilFpPgQ3+PPsXFZFScFhPWU3ZDNScJuT5bOEEYa4RUFW0DfmzYdQitfV5NslXHiCYCr8xWM4oqqkAWBN44AtkiMMwzwLIHyUoQz3OMl44mawMFP8bClH4YQtjvZboLQe8AAgMehPs98JMyXm8PQgN9LF0t4vMjFg3B4+5mx1FL8ATa7AtKymAyGWGgVEmTBSabDa7SciboZXUWMjVHq9PJfm52OFn6JKVOUjAhlSoXBAksvCZx4WEvDncUZDsfcu14IgmU3eDp6tQ0M+LJu5n7qcJuMuDsxQ1YwQIX9ayqma/Kj5h4BDhBGBFTBYoqoLPfj3/vbkRr/wAEZUhMRs8wGE1GlNfN0R1kpeea/BiOQDICRCAYGR0M4lehxmWXWbwA/Y8pHEqgVEvJKIL+Rws7hT4mNm/t9HjCYlzoRiVLgUrii5pcNKk5xqJUolqGQuJJCoU+aq4LpvpIiZpJSo3Dg9hGi4zkY5rPCNDY+/u96OtsHzMod9gzCqQVIuGS5QuwuLKYV4HM0UnACcIoA0OxBi/ua0FLnxeCSOZenQRBACx2OzOtGqiKHG8cgUlEYKQsguRvc2aFiNsGEm6vlNjzeEXF9C6OlIDBYhXihED/I3FLgX6s8vRIRhI88Pb0MglsPW6jxBx0Wgw4fWE9jq0shcmgL2MlT1HKy25zgjDCsLX1efHPHQfQ6w+yOjj6m6KRg7IKTg70g8aP5AhwBPIdAUVhtRu0mAT9iotEOp1WM85cMAfH1pQlORs4scyFKcEJQtoo9ARCeGTzbnT5g1lKu6uwOgrgKiuHlIjMzoUR5n3gCHAEOAJTgMBgFcjuLsgx/douRAVsRgnvOWYujiFZZp7dMAWjpe8WnCAk4URqbm81deD5fY0sBkFvIwlbu9OJoooKVgxHb6aD3uvz4zgCHAGOQF4goKosi6avoz1dnmvs7gsqjKIB5y+bi+XVZfGy33nxxDO6k5wgJA1vKBrDs7sbsaPdzcRoEpUZR5oBCSlRyj5LWA44OZjR7wp/OI4AR0AHAuQ2oHRbT5ebFf/S3QQVNqMJ5y5pYIGLZp0qmrqvzw/MGgFOEJIgIxnlZ3Yfwu4O/TUWKFuhqLISJouFWw6ynn78BI4AR2CmIuAf6M8qcDERTltkNeO0BXVYXlMKg8ADF6dzfnCCkIR+JCZj4/7DeLu5ixWPGasNRo8LAnMvUAEmzYLAG0eAI8AR4AiQOFeQAhe73ZCpAqfORhYIu8mE9x7TwGIShiqd6rwAP2zCEOAEIQlK2vT3d/Xh0Xf2QYU8poshdQRUFBQVwVlaplubfMJGkF+II8AR4AjkMAKBgQH0dXUxNU+9TavAoeCiFYuwlAcu6oVtwo/jBCEN0qisYOO+w3jrMFUsY+r2+kAXBBQWFcFRUsJJgj7E+FEcAY7AbECABS4OxSSQuJKuJqhwmIw4a3FDnCTQeTrP1XUDflAmBDhBGAEhsiT8a+dBbD/iRlTWL4RAE99JhWiKXKxgDW8cAY4AR4AjoKltUkxCv7ubSX3rbyoKrRacsbAOS6gKJM8S0w/dBBzJCcIoIPYHQ3hhfwsjCSOpyo10GlEJSZLgLC6G3eXSNMaTCC+9JInyvhMwdvwSHAGOAEcgbxCgtc/fT4GLPZB1ZjckVECLbRacNr8WK2rLmFw4b1ODACcIo+BMm70vFMFze5qws4NIQlp5u9HGhzTGRQOKKythczhAGgl6pEenZrj5XTgCHAGOwPQhkCAJHncX+/DSuaqyA02ihItXLGCWBO5omJox5AQhA85uXxDP7DyIw339uoIWmUNCJZIgoLSqBmaHfWpGkt+FI8AR4AjkAQJkSfX29WGguwt64xYTjl5RUHDh8kVYSrUbeNbYpI82JwhjQqyyWgwdVPJ550G09Pv1M1dVZZLLReWVsMRJwkiFdSZ9hPkNOAIcAY5AjiGglYruR393NxRZf3YDBBUuixmnL5zDsxumYEw5QRgJ5LQ6IfTPbm8AT+04iLZ+r76YBGY/E2A0m1FYVgaz1QoIrCjuFAwrvwVHgCPAEch9BPweDwZ6e7MMXFTgsloYSVhWVQoDDwiftIHmBEEntCS9fLinH//Z04TOAX9WcQVGi5kVcWIkgTeOAEeAI8ARYAiQNgLJMg+QJUGvv4E+sqgKpMWE9QvnYGVNOU9/nKT5xAlCVsCqONjtwVPbD2IgFMl4puZSYCEJjBxUzJmTYj8QmBoIz2zICCQ/gCPAEZiRCNAaKQoCsyL0uTshCJKuwMXE2kou4CvXLEddqZNZZ4eMvzyMcSImDCcIOlGkiReOxbCvqw8v7mtBXyCYlSASTWiLzcYqPhpMJp135YdxBDgCHIGZjwAFLhJJ8PX16C4VnciAsJuNOO+YeVhQ7oKJF3ia0MnCCYJOOGWVSkG3sz96rAepl9V4Lf1/q93G3A2cJOgEnh/GEeAIzAoEhgIXNZ0E3TYAASi1W3HmonosLC+CxKc7i9YAACAASURBVE7UffaswHa8D8kJQgbkaFOnKo+bmtuxuakdwSipgOnO3k25OisRDcBWQMWdSmEwmOJGsfROpEVJjnd0+XkcAY4ARyCPEGAkob8f/T09ukpFJ1ZKWllL7FacvThBEriY0kQMOycIo6Co5Rqo8IairDbDjnYKokn8VDspnaMmaEPGgaEKkAUFzJIgMLqbfiVOEDJiyA/gCHAEZiQCLHCRSILbrTvni62YVLvBbML7ls3D4vISDZv4UspX1PFNFU4QhuGmTSXKWvCGI3h+72HsONLFaoslWmI7FyQJrrIyREIh+Pr7tWhEvU1Q4SwuRUExFXfSexI/jiPAEeAIzHwEWExCTw/6e7rjRfNG/igbjoQKi8GID65ahPriQhjEQY7A3Q7jmDacIIwAGm3zbR4vXj3Yiv3uPm3fp5QDlVVXYCmOJosVjuJiFlNAjJcms8/jYSRBH02gDId4cSeXC2JKcI1uW8Q4hpyfwhHgCHAEch8BprjY2wtvH+kkyLo6zKrvqgpK7GasX9SAReXFMHLFRV3YjXQQJwhpqNDm3tI7gGf3NDK9g7hXYegoVYU1HkNgNBqJM7CmKLJGEnr7stBIIJIgoqC4GI6iIl4BctzTmJ/IEeAIzEQE6OMrMDDAYhISBZ5GMrimuxDI3VBss+I9x8zD/DIqnMedDOOZH5wgDKKmQlZU7Hd7sGH3QQwEI/FYxKHpSK4Am9PJSjpLRuMwvGkCD3S72YTO5G1IthFIkghnaSnszkKNXBDrYCIJvHEEOAIcgdmNQKLAUyYxpYSUfXLgYoHZiAuOXcBIgiTwwMVsZxInCHHEKI3xQFcfnt3TBE8gnLRJJ6abAoerCM6S0jR3QCrkVOvc43Yj6PNqzi/Wxmav9FtJFOAqr4C9sHDEktC8jkO2U5sfzxHgCMwUBBhJ8Hjg6erKwkLLbLuwmky4ePkCLCwr1uK9uDFB97SY9QSB5kpUlrGnowcbdjciGImxCUhcM7G/U2VGu9PFvvIFMXNEYTQSgaezA+FgSPdA0IGiQURJRTXMNqrbkPk+WV2cH8wR4AhwBPIYAU1MqYcJKqmyMrg+Z1opaR0vslrw3qVzMbekEEaJ1naKJ8t0Zh6DNUFdn/UEgdQRNzd3MgEkbygcV0ccMlIZjEY4iorhKHRlpb0Ri0TQ19WJcCCoY6iGKK1kMMJVWgZLgT0rpUYdN+GHcAQ4AhyBvEfA1+eJBy6SJk3mllhdyxxWVuBpSUURRO5uyAwci80n280sbYFoFBv3NjONg0halCyBYjAYWBqj1eEY1xd9LBpBb3s7wqGgxldZXYYRWGu88mNiGIiUFJWXwWyzj+u+s3Q4+WNzBDgCswABTSeBAheHCjyNFbiYcM/S+uu0mHHJioWYU6zVbsjqq28WYJv+iLOGICRPBfp7MBLFywdasKW1EzF5SABJVAFF0MgB1U2w2O0MMzJvZc+lBESCQfR1tiMaCUONaynoMWyZzGYUV1bCaDIPZkrMwvnJH5kjwBHgCIyIAKWVs5gEHU1b/ykFXYVBNODS4xZiAZNl5oGLY8E36wgCTRRfOIoX9zdj+5GuQXIwBJLKNuWi8kqYbBYdUy/zIeFAAB53J6Lh6DDOKpBuwojxBgrTWiiurOJ1GzJDzI/gCHAEZhkCWuBiPwa6u5iwnV5rAB1ZZrfgguULUVfk4LEIY8ybWUMQCAOaUJ5ACC8dbMU7LZ0scyBlUgmAyWJBcUXlxG7Kqoqg14s+tztFX5wmqjgqQaD+KrDYHSgq58WdZtnaxx+XI8ARyIgAhRqK8Pb1wcuqQOoTU2KCd6KC42srcfaSBpgMUsY7zdYDZg1BINNSZ38ALx1swf6uHsgJVUQ28pqLgTZjZ0kJIwkTrmVIJMHvg6fLDTkWTSImozPfxG/IzUGxELwC5Gx9TflzcwQ4AqMhoCpAYMDDMhz0kgRaWyscVlyyciEqnGRF4G0kBGYNQWjv9+FfOw+ifcCXGiiokmdKgc1ZgKLyihSNg4nWHhAUFQF/AH1dHcySoF2f2RFGnJ3J7gdKfaSYBMpy4I0jwBHgCHAEhhCQo1H0dlBq+dhZY0NiSlTYyYj3r1iEuaWktMjbrCQI5Jpy+wJ4dncjmno9UBKWg4RaoaDCZi9gIkWiwcCsCRNHDFLtEArVbOjuhp+UFhUlqxlJRMJe6EJhaRkEkQfWZAUeP3hsBPS7bzmSHIGcQ0CJxdDf3Y2A15sxkDyxIjNtBJsZ71+xELVFBTwOYZRRndEWBApcae4bwHO7D6ODLAfJIYL09S5JsBdq0sm06VKmwqQ0FYiEgiwtJxSglMehRhv/UOqjJt8xct6pyvpISouFJSTYxEnCpIzVLLsoCc5QOi4pgNKcohRbyWBggbOT9DbMMoT5404WAmR8jUTCjBxQIHi2WWZLKopx/rJ5rEQ0byMjMGMJQkxRcLh3AM/taULnQCBVmFAFRElgm21BSQlEcXKCVGiBJZJCk5cKOZH5K52EJNJvNGKQ6VOOKkqCyT0XFLkYweGNIzAuBFQV0XAY/oF+hPx+KLLC4nWNRhNsBQWwOgsh8ip444KWnzT5CBAZiIRC6Hd3McXarD7uBBUOkwnnLpmLY6tLJ7+zeXyHGUkQiBzs7erFKwda4PYG077ItTLLRAwchbQIklthkpoKtgBTydJoNKp9kSWJItEkr3YVwO31I5ZUNjKTi0Ok/hcXo6CoCOCWhEkavJl8WQEhn49ZtJg+h6K9E9q8I80PEVaHHYVl5cyakGgTHrg7kyHmzzZ5CFB6o9fL1BRj4UhW96HMMJLLP3tRA1bVVcBqnMT1P6ue5ebBM5IgHHD34antBzAQjqT4lmgRpC/64vJyVl45YZIanwjS2AMqiiJ8vb3o7eqMS3SkZulSYOTKmgpcsGw+ntnTyNIuR/EtpNyI0iIpmYcW8sLSUhQUl+TmzOK9ylkEyHLgbm3RrAYjtIQdiyxsJPtN1Uazi5jJ2UfnHZsBCFCsgaezU0sZT3ILJ9y1qW7b1Ac2GQz46KpjUF+iCeCBCyWNOSNmFEGgokuH3B48t+8wevyhFB8qme8lSYKzqBT2osLsTFJZvlTkz/X1k+WgW6sKmdJUOCxGRg5OaqiC1WhEbyCEF/Y2Y5+7D3IWwYuSQYKzpIzFUfDGEciEAAXGBv1+9LvdoKjv0QqCJSwFRHLJUmV3uUB/5xaETAjz308mAkQIiByQRZbWWNbSZOrHvr8KoyTilHm1WFVbASoFnZVrYjIfLkevPSMIQqIi49bWTrx4oEWryJgWYkXSyaRxYC1w6qrION7xUmIyizfwe/tBWQupoV4qCq1mnL6wDksqSmA2GFgvyarR4w+yuhDkGmHzXpcumMrSHgvLymArIJIwa8tqjHe4Zs15RA4CAwOsEt7g4qrj6SkOgaxUBa4ivUJ1Oq7KD+EIZIcAZSrQ3PX392cdjJj+gUZGh+XVFVi3oBbFNovOtTa7/s6Uo/OeIJBlIBpTsKOjGy8faMZAMBIv5ZkgmCoMRgNLD7QWFDDGOFEuhfRNnBZeIge0EDN/Lgs7HLIglDisOHNRHRaUFcPAvsgSYYna37oG/PjXzkNo8QwwhTB9jbIbJKb+SH5jXiZaH2qz6SiKMQgM9GclJJPAh+Y4Wd5II8Ra4JhNsPFnnUYEkq1VlGVD7lq/l9LDJ6ZTpKK7tLIUp86rQanDCorr4m04AnlNEGgTlhUVbzd34OVDZDlIldqk31PaVgkVPbJa08xJR28wHRLdABRFRl9HJwv+Sv/+pzs1lBTivUvnocRujk/GxIRMKiOiAr3+IB7bth9HPD523FDh6dE/4OgYk8kAV3kVzDYbtyTwN30IARVMhpaIK7PGjiHtPRJsiflHWT9FFVVaZVPeOAJTgADNPTkaQV9XF8sEG4+B1OEshCzHEPR7BwXptNgzAaIooKG4AOctm4cSW/r+MAUPmAe3yFuCoJEDBXs6e5lCYjimMFXC5HLKFIFdUlUFk9WaZmWiUO2JM8dTLnlvZzsCXt8wnxaVe6gvInIwlzHV4T4vosRD1gJ6LopJeGzrXnQMBJBIbshUmpTOI4loqkBJ/+WNI0Bzwtfbh/6eLgikGDrOryRGKiBCkASUVhMJjQd4cYg5ApOEAH0+ybKM7rYWhIPhrGMFKFOB3K4UyE1rbk/7EZbOq7UhawHtAvVFTly6ahFsRiMjDbwNIZC3BCEQibJqjC8daEUoqsUcDJr8qeiS2cz0ArRyzUdvLRht0lBEOH2dBX3EUFMnF022pVUlWDuvFmV2fQyVnkFRVBx09+H5fU3o8qUGW449eVWYrDZWt8FstbJiT6MLL/HXYCYjwAJl+zygkrg0DzI3fVEvNK9ofhk5Cc0MKT8iKwQGV2lFZZu5p6eHpeFmu2WLkgSHy6WlsVOclyAgGonA29ujqS0yzY+hq1IMWI3LgTMX1aO+uBAGThIGxy3vCAJ9y4SjMt463IG3mtoQjA6v4GU0m+AqK4+b27Oao1kdTFG1fV3kVvCnBM4w05ii4KSGaubjclnNWV2XDo7JmtDTP7fvh5fl+upUthMEmMwWZjmReI5v1rjPhBMoIJFJz/b3x8vgDn+q4XRAH0GgxTZhqTKazUcZMDYT0ObPMF4EyIg7LMkLQKCfgml7EKNMmywbZduQfoetwDFMbZZIM6v82NvDtD6SdkHWkUqnHWcvqkdDqZblli0xybKreXF43hGEcCyGt1s68fqhNgRYtkKyX1WLOSiqqGRf0AmWmEl4SM9IpS+fRA4oFzfg9zHfGHNYsMBEESRweHxdBc5YVA/LUZQSpWvuau/GM7sa4Y9omg6J0k5jOUjod2arBcXlVLbayAMX9Qxwnh4z0rzs73YPBsqOFLkyOFfjX1HJ1xj6e6rrKxUeFRabHUWDxcMmzl2Xp8PAu33UCJBQlwK/x4OBvh4o5DLOKl6G1n4TC0a3OByjxmpTZpm3tw++vt4RyW2J3YKzFzdgQXkRiwGb7SQhbwgCizlQVbx8oBWvHWqN++aTFzHywZtRXFkLg2ly1bGIifZ1tiPoIwlnbQrF415gFAWm0HXGgjpYaXM+ykbPvL2ti5EE0nlIZEVkmri0ZNscDhSVlzMz20SQpKN8FH76JCOgzcsOBH0UC5M5CyaVGCRSchPzWVNXHL0psBUUwlVRyf22kzyuM/nyg+uSKqC/x82+8LXFNLtGLmUquMdcq5miGVUR/v4+EJEmwpBo7H1QSafGhAuOnY8FZUWasugspgl5QRBoEoVjMra0dGLjvuYRzaYUiEiboclkTjNb6TOd6p2OakyGp9vNKjKmN0pdXFxRhHMWN8CZcCsc5e01d4WKra1d2Li/GcFINmY3leWvO4pLWKraLJ7neoc3b48j4SOP240Ay6LRP9S0AFoMBswtLURL7wBzZ+mPW1HhKCyCs7QkpUx63oLIOz71CKiAHIuin7Rj+j0UCqtt73oDauPxZmQ50DK4dDZV1dwNfX2aImNSo/3GKEm4ZMUCzCt1wWyUZi1JyHmCwCKxw1Fsbm7Hm03t7Cs6PQrVarOhoKQUZgqcyvRprXP+jHQY+cRIxSuhc5B8jCSKWFVbzmIOCq1UHWxiO0JBmZsPd+D1xlZEZL0MW2MnpIRHFSB58Z2jGPwcPjUaCscrhfqzSAXTKodWOO1YN68W9SWFeLe1E683tsEXiemevVQBkkhoQXERrzCaw3MkF7tGq1OMgrx7e5nVKzvLgWbhorRbqsZr+P/svQeUbNd1Hbgr59w5h58TciYSMwmSIiiTFhVsWZZsS6a91oxtySN7xpqxZmTZI8nSzJK1ZtnSrFGiRTEnACRAkABIEAARfk79f+ecqrpSV3qz9nn1uquqq7pedVfV7/7ouxYJ4P9X79133g3nnrPP3rbacV5CHibMjMQ7MF1dHFPz2Kx4cLAbd/S0wm4hqV191/S9+E1K+7RnHITCELj2mRgqSqayePnGFN6amJUoQmFjOMjssCHY1gmLXRsg2+VOd/ZJVGfWgJW5OfFySyNgFId6eLAbjw73wGljeqP+A4k2YbUGF/AfXJsEiT70NRa/cxH3wd/aAWpAHLTbwwIcl7l0FgvTk0gl16u+VPEcyyHkcuJDxwcxGPJJmoDz642xGbw8MoVMLislw4IsrxIFY0kZHVDSMtcquVu10wcX3DYWKCSoY9ltaj2J5bk5qVSozTmgSRSpVCDLZ6GgWK3GIolYKh7H4syURKa1CIYmXOa0WvDwUA/u6++QNffd5iTsGQehJMYjNdvpbAav3JjBqzcmwU14c+PliqVIxCDY2Q2TZfe5/koDS5C2UATYsrq0WFhMKT+hIu7dvZ3CkGgTQKLejbvWoaxOCprhucs38cb4bM1zykcFy2Cw5prinfT04DeNt0A6mcTS9CTS6WxN35Szp93twIdODKMv4CnCEMTTaaH85vgqRXJXKxYOtrfD6fXqDw833kQHT9hDFth0EAxCfLQ8OytESLrTCcLlochG7fYHZS3bPW8BmXWB9UQCyzMzWyonVN84h/ceGcB9A12i5dDIFX4PfS7pyp50ELghs0KBgMQ3xqeLyI/Uszxgd7Pev72hzoFsyTnmqpYRWVzeQq5E5+BUVxueONwHj93alIHDAUscwvNXxvDO1LyANasNWE3PhPXBlIim583Q8EHbXxbYOMgTkxOPY3VhUU5htQjO8B4dXic+cmIYPf5NVsTCezCd9d3LY8IzUqBCXpVNhGOKTgIpzQ/agQVKLSCJ0ZwinDHEHNA5UBNdXGj1kdcRe8uUgssfEAGxXbeC6Jg6p+aRWif3wuaqSgeCTsmDA114aLBb0g3vlranHAQ1s64gtp7Gq2Mz+NGNyaJCWe1b2p0OESiy2BrLGMgwUyISloVYQ7tqpyiWwAy1+PDB44MIkgRpAzlbbbuuz9AKJ9bxwtUxXJ5dREZX1kC1nsligi9EXQqWAtVhgtXndQ7uotcCOToHUawuLiFFQGGV4ba5/vHkZUSnz42PnBhAu1fdxCv9PJ3N4Wtnr4l4WJaYF3UV3zZCJuAuK9HkrbATMFatc3rf+eC628ICJCiinkJkabGi1HjlF1VgMJkRaGnNR6nqaxKJbsjcigmepyhlx/J1A8Qhub+/E/f3d8HjaM6BsL5vWfvdbqGDsHWxYX48kkjjR6NToDJjSna+wiVMgd3lhq8lJAsRTyyNynnyvqJ+R09XkxbN25c9Ot4RwpNH+xFw2que4Gv/LPp+sRCNi5NwZXYlvxZr4MXtdw1N2dLp89Uol6qvXwdXNcYCXMRIIhMmqCpF8qyyZ7SNOVM4wxjtOtwWwGOHetGuQ3SJUae5tRheuDKGkcUVlairTF16OZeBeCAhKiulOG+MWQ7uug8skMvmhHsgFgkjW4Il09t9ppJDnV1Szq41VQ6vvoeyVDKJyOKiSKMXRecUBTaLGXf2tMk8UqsbtnOz9b7Z3r3uljgI5Wryc0pOTsIvXZvA6+PTSJcg9fkbnkqCZAg0Nz7Ek0okhb9bdQ42l0H2czAYwNN3HoabeuIcIvUdn7pHC20STqTwF6+dx1I8CRW3qK8zHPicbHYqQEquqTyrme7OHFzYUAuIc7AWwfLMrDh15epYtC9f+nckoOkLevHx04cQrEGUhmN9KbaOr569gpkwyyc3I07UPSEepnx6Q4HF7kB7X19DbXJw8/1hAU2rJhGNbUt+VHi84drGDEKhtg7/nqJhLZ3dtZU07sBMLH1cnJpCKhnPj3tq/ZDMScUsnGgP4afuPAojHZTbOFJ2SxwE9Xtp1QbqYif0yaOzeGlkAiw/KRKWYa220yWSxsZdMBPqHSdE1S5NTQt/t6aoKJuoAejye/Dh44Po9LlEAEfnfqz30TVfR+tFkil88a0rmA5HawIuUgZbY50UF+g2Hug1G3YP/YCLJatnmB9lrlaTCdcz+LjIHm4N4KMnh+Gy7SQsqmBseQ1fPXsVYVZKbJQYbe+Iss+MINChJ7vpQXt3WKAUyMrS8AiZPde2atXotUhplMpqs8KXJ0XSe4+dXMfDIdlyk3FS6RffgVU+BKe/90ifelC8TdfOW+ggqJ+dGxx5Dl4ZmcJPxmaQK81zGgCH2yOqXM1YaJh7Iksi/1n40fn9ydX9gWMD6A14azqt72Rw6v+NGmSbWAnju5dGMRmO1hByU0A+/WboVuh/n4MrNQtwsSX2JRYOC1C21tCsyQDc2duB9wz3wGNntEt/hKnwK5Co68biKr598QZWEwmhE9fT6CQ4PR4Rd2pkpZGevhxc01wL0I1dTyZEE2Q9wQ1WSwSoKYFyEbDCSC2rBchkeHNpdUOMT+W0NwKGnKxb3pYWOFyNkB/fdHM2xfhUArLCRuf7ZEcrHj3Ui6Dr1qWaG/llb5mDoGEHoqk0XhudwWtjUyAHUvHA0TAHLTIgGt3o7ZJ+M7FWPBjYJ6/Ngg8cH8Sx9qCAvfZaIyXzyMIyXrw6gbk1hsX0N5vTgUBr247IRvQ/5eDKWi1A0FR0dUWIZBhV09ukysdsxh0k7hruhqsOlN+cA5dnl/D8lVGsxterkdludJVOtsvnE46EZqQG9dro4LoGWkABUuIcLEj5oH6UgHrYcVpMkud/9HA/fjI+jdduzmwI1m32WoHZaoW/rU2iy41p6iFWZSmdB1MkWtNcCEk3dLTg8cOak6AvxduY/tb/rrfUQUikM3h5ZBJvTc5uBSQqChxeRg5amxI5ULJZQa/ytEa5Zck30d4K5PT11KkhDLUEQDrlvdqoIDmysIpnLo0ikkxsKQ/drt9WuxXBji4Bf1blMt+rBrgt+pVPISgKVhfnEQtTnja7bUVAaQiWkYMHh7oFce22kdWzPo2VDaT8fvHaWFkV1UpPIZGS2+uTE99mee32FRH16fHBXZphAeKXGJ7S1kuCu6WMMUNHcnveAG2j1UaDw2rCI4PdON3TBrfVimQmg4vTi3h5ZALh5FaaeVZlBdo71aqZfCFuI0YW0w2RxSXEIqt5k24ifswmI460BfHUyUOwWoxV3rgZX6R+z7glDoIGUnz15gxeuDoqDFZFOR46By4Xgl3d4OLSqKY+U4HRYBR5UXqJUvpXUJNrMRvwsZOHcLKzRRbpxvWmPm9J216cXcJfv3ERdotJnIRqtQ0C/jGo6YaWrh4RdzpozbfARno/lxPRJSK+CQysmt/Mq4nyNJPO5fDE4V48caivDiQyW23AdMOLV0fxo5vTqiOpUOOjfMC48LTHfw+0tUskoVAgp/lWPnhioyzA1ZFljCvzcyAwUW/bACTCgKfPHMGprpD8VOVvUdPQ56cX8cyFG0ilM8jKOry5qhlMBFx3550E/q4xwEEBhc/PI8p5qSn45tfOTE5Bq9uFf/jQ6WLtBhKJNHAP02vjnV7XdAeBnzWVyeLCzCK+c/lmPnKw2X0Rj3G54G9pg6kgNNoIr5BP5doWX4tieX5WFq5CB8BqNuCevk68Z6hHZUncDw5C3pTnphbwwrVRRJPpisDFLTY1KHC6PfCGWlWZ6IPWdAswnEm8ASNZ1UTtCJIls5zWCJZ6YKATDw31yB81ypnNZHP43rUx/GR8Fowq6HuSIs4+yc2cHm9DHf+mf7R3+wMVYmWyeazMVvGjauahE8AcPhVwj7WHxLEVB6AABE4Nnrcm5vDSyBTiUuK7EeSX21sdNvhaGl9aSxwQSyDpCBVOUFb1cF6c6GjFk0f60OJ2VHfsqxlmD/x90x2EVDYrC8v3r42L6FDpIsbIAUmQmF9qRktGo+LxZjLZor6QOeuu3ja8Z6gXFO3YAwULNZmDg/WtyTm8dH0CsQ0FSB1bhsEgMtEELjajYqSml7rNLxZVuwW1/roWzAFdBL/DhkeGenCquwVWKnfq3LZ3YlI+j2yLLEl+bXw6D4rVMbakTM0kPCZOr++2WEB3Yr/b7TdKVkF4cV4qFWqNDrFKrD/oxWOHe9Hj90jVWLnGMZfJZnF1bkWizqsJao+ocQQtmmCx2yVKZaVoXwMb0w2k3l9bXSnZv0hGZsLhVr+w67Z4SKCnb140sLu7unVTHQTmyC/OLOKFq+NSmlfYNJ4DX2sbmA/XdyrZxbsTSLOelIqF9Lrmkar3Y934UGsAHzkxlGdJbFzYahdvUPWnGsbjdVaHKDndmARmWVy+gKDPD1pzLCAA2YUFJKNrAtTS27hABpw2PHaoR8BSZpNG3qL3Dju/LpJn82RKi6mHak2LWLEaScBlrkaBy6r15ODv62WBTGpdyOQYhS3XSssetWt44mYbDPrx+JE+dPncFZ2DwvtmlBzOTS4IDb+U3RZvIrA67FK63VhQO1kXswgTkyCRvuJ0Ct+ZmIQnj+YjCaXzuVHh8Hp91IL7NMVB4OZPm1ybX8Gzl24IuU9ps1GVkcJLZspqqmjWhjVGrzIZLC8sIBErlhnNIYeg3YbP3n8KIaFQ3r+NNqdE9Hev3ERGt0R0vtiIkQSfD0E6CbdpjW/zv2zxyqD9F1kRV+ZnsR5P1OgY52A0qrr1R9tCIiTT7LYSS4p42PXFFTDbsN18KXx7gsuC7V1gBc1B258W4MEqvDCPZHz7qinNdSTOSYiP8v88092GJw/3wGu31RRNSmVzuDC9gO9dHc9HR9WRpTF9kmmRgGtGobl0aVo09WbdZZSPYMy1leJIgobpYkTkU3cdhcdmK+YDFmzF/vjmTXEQyG2wuJbAl9++inkpFclbJ0/fZ7FZEerKI+irJV53aNciT1ZREF1ZweriotxNWOHyBDQehw2/cP9JhG6DhYuphW+ev47Lc8s1h7rEw89l4Qm1iaRqI8GiO/yk++5nm+ApgqhUmnAKw6zOzso/twdXqUBeDbDI78Pyxc/ecxLtJO26hdaYCcfwpXeuYCVeQ+UMdRvsNrT29ErZMInRCuWAb+HrHDy6mgUUiETz8iyjr2qoX3ejpoEBON3Vhg+fGMyrI9bw+40HKXhtbBYvNMdWUQAAIABJREFUXB5FWqJX2v/oJOdgtbsQ6ugQJ6GRVVkMHqwtL0q6gWXJsp/ke0NcRovHjc/cc1T2k02s4k7eV7eF63phUxwEagY8d+mmkK2UaiswX0QteVuzwo15jYWV+fkNHQftZEOQF+tZz3S3w7yPkaccIXTKJpbX8M3zI1iKxnfosiowmszwBoMSTaiLelpdh+/+vhk534VIpsoJrPQtubx0+d1C0EIyGS0TeyutMbYcxncujWImslkrXq0/nHcOEV5ra3BIuFpPDv5etwVyQDIWlaovpmj1OgdaFMFrt+Lu3g7c29cBB7UMdnGUXs9k8frENH40MgOmU4u2XUZAPW74W1phNBNwXT0FptsGJReSlnlteRlrq6tFwEXVWVAw3BqQfaXDyzSK5kLs9GnN/V3DHYSVeBLfvDCC0aXVLTlwqWFtbRfnYDcDRa/JhN1LdMinkeaAyg9OfjOCY+4f6MIjQ12wWzXWOb133nvXZXI5AYO+SDCoPrnHii9BYJkqserfN6GxvfdFinu0HotjZWG+gujS1t7L8kZ+eoOC/qAPTxzpR6fPk3dkb31Sk9GP8eUIvnXxBubX4rJY65vTivDqE1zWLGDyXh8be7V/Qvm9ooLziOavhC+o1H+b2Yz3He3Hic6QSCbX4xxN0PvZKaYbyM2RKaK/5/ijkxBo6yyUEWmIeekkEI9ALp0NXySfTiHgvdfvwQePD6HNu7+Aiw1zELhkJYh0HpnAm2OzyBQ4cOpylpMP5/J5d3i6rf07Z9MZLM1OI5XgAkaZDbVx4J/qbMGHTw7Bue/L+xhQU5DKKPj62eu4NLdUfrcpmJ0Vt5cCPghGEgJtbVIGWVhaV+siUftXu/1+Ic7B/Dwy6XKKjOr7MoVQKFSjjdNevxsfOjkkzkFxodett1NWyeHK7LKUL6sgZMnGbulY4ZjRhqHT55XyWlMTtFZuvaX2Xw+Yb6djEF1eKVupsL2LqiDgsOP9xwfkNG0pIJurh2vLSMKrNyfx6uhM2cOQJ+CTsbVJ0tUY+3OkU4admIRS4CKUHAZCfnz01HCelrke7lFj3qPwrg1zELhYnJ8i18GoeHZakwFhgEQOXH5f498w7wAwP7Q6PyeKeAJoKchahVw2fOauY2jxOGvO1TflBWp4iJpvM2A5lsT/++pZKUfbEgZUj6Mbjpm+Sco6dhNCHd2wuzeBZQcOQuWPoy0Bm44opEphdWEBuUxm26BnoYMg2AQAPX43fuqOwwjUoMhYw9Cpy6WMXJHj5PkrY1KvTmyPODzV7m4wwO0PINBCQjJ1kag3qKxaFw7+vrwFDLkcVpeXEF1d3cizb28rTYhPjbi3e5146tQwuv3uhq2vXOeevzKOt6dmJYpQnFBQJNXgDgYb/onFkVpZlpRDIZxOOxT3+L345B1H4HfaCpbgvZAkrPDtlQbMQjIjjq+E8ZW3r8lJQgs1qoxZRglV8zRKvdgi1cY6fb4tYCeGxkj/ubiILGlrNxYsBXaLBZ+64wiGWm6fumyWNDK18NK1yQq4AZU1kYtwhnnELROq4mBhIbsASoXatOqqX6cPejvcRlGQiEaFrVOVEN/eeJuSNqytNmIo5BPnwEGWy13kbRttSjV6lRWmxR/fnMZ6lqFofQOFpy6S3XiYyiJftM7fNfqd3rX3zynI5rKILC2KcyAss3qbYgDpOOgUfOAo1W/dDR+2JO366tnruDK/KHT5Gwu9YoDRZBQnweX1NmTPKTQL97m1ZUYS6FBp8oOqi6AoWfQG/PjIySG0eZy6Sjv1mrwR19U9gsAFYmEtgW+cH8HESmSLARxCwqOquzXr9Emk7fLsbB5xq5qRn8tlNeOx4V7c299e2+BvxJeo4z1X40n86Y/OikpmuTwwB3BLZydMFqsqqCK6DfpL1FhGxMlmdbh00OzW8cX26a24SMQjVGRczacV9G2YjCKYDEYc7wzhocFutLmdOvP6t95Q8XQar4/N4sc3p5DMFDOUbtc7suh5Qy1wM7pYy4Z061/59uqBoiCdTCKysiwiRfqijHkTMD2WM+B0dwseHuK4JcasGeZRsBJP4YUro7g4ywq14pM5+Teo7ePweBoKWuSbEpNAp4pCa4WhBNrRbIDw7JBxkU6CXge6GRYsfUbdHQR6bl946wquLiypVJn5RsPY7HYE86Un/OOmOAgKsDA5jvUEEbdaZ1Tvlmp35Kx3Ws37ZuHVM0jIffCN89dBcMzWbV8Rx6Cjrw8GkwmpRELy4emUGkkobYWld5thb0VEnUKdnaq4U1Mmv54333vX0H7R5WVZaLUyKBn7ZTAGRb1XiNLJCtU3SZAoukSAoip3u/fec3NuqakrzneyeVLG/ZUbk6K3Uq6VswMjJgwHuwOB22pe7uGvVvD51O/EdYHEXSy/ra0pcnpnhc29IhZmKXNKrsnd0Pl4LYivYDWWxHcvj0p5tzrXNieMxWpGqKcPFrO5gXUNfCqdJIDCVYwaCsNkvh+cx5Swave68dN3HYXPYd2zTkJdHQQKxbwyMoGXRiaLNhv5PEajnFqbUc64gS9QFGH5YoiM4TESachZxgC0u534xB2H0OnN64k3YszqHNr1vCyWyuBLb1/B6BKFftSBqu0o6mYP+Fpa4A0EN0JtDH0vz1FghXgFfWFE3ov85y0d3aK2eeAklPmKdA5WVxBmPjKrhRrLf+3i4adyHtzV0473HeuHgw7snvYKKr2Tgth6WkqcL8yUActCzVUX4S3y5z6CFYlTsrvdezqlUs+5uxfuxc2UlV4k7kol18tGVisd7OQQaDZK1IC037xXsS/bnEWWT5lfi0mJ99RqtEisjmksi9Wq8m9YyunN1LmPCnkS8geEAlVWPoXphv6gH0/fcRheB8mU9p7nXzcHgTTK1xdX8cyFEdHu1hDYYm5FEWpVl58nguZNg/VYDEuzsxLu2WwKWG7zidOHcLg9CFMzO9TgV6etWWr2xbeuFOgvFD/UZDGjpbMbJKfSxKf4u2Q0JgqCkh/Xyj+rnnIVwSL4OzthLlKArPMka7DdGnF7nhi4MKjArlzViAEtxroaYg+4yN430IWHBjphk3KwJk6auhpDHQcsdX7hyhguzy1ugBarP0bFyQRJm9tgbv3qfbl9ryicqXT6qafAyEHxmqnv/a10DgZ7cG9/R93KGPU9eetVjFhdX1jBty+OIJxIFzMZkn/D5UKgvV2YexvdclkVuMjDQlEUEeqB9Vh7AB88Pgifw77nZnrdHIRwYl1OClfmNfRmfugZAJfHC3+7lucvH2qs90eiKh5D58lYMXEL2WipN/744b78wXq/Lr7lJ8XLI5NSWsqI1tZmgMPtkprzUiEmevtSx7u4IDXOehu3NKfTDV9b8wS29PbtVl1HIGxsdTWPZK5tvDPddU9vJx4Y7BS57v3rHBS65IpwIzxz8SbGliM6F0FVT5fcCKHOLmFdPGiNs4DCnHkkgsjyIii+VHNTFDhtFikVP94eKhM9qPmOu/4Bo3DvTM3j+SujW6q5eAZyB4ISSTWYVFZTfbwdO+sW76+CPekklKbXFZzsbMGTR/rhd+4tJ6EuDgI/xCs3JvDKjSmsbwCSVAeBgixBbkgWhq71ha939gkKfpXLSWqBzFb0JDUXgP9+rD2Ip04OS05X50q16+404wa0NsGJXz93HWS1K/dyrAMmKyLLycpRJzP8xpwZ+cVzVZyEgsSFhCEJ/CH4lKRK78b4gRZ2pWPKsRdbW9vCqrbdOKCj5bCY8dihXpzsbIXLtv/JugrHCEHl06tR0WKZCscqTr0tY0dSWQ6JQBLDpIZmG7uYN2O+7pVnGHIKWJoapcR4JJyPHOzs0MTzMFkS3390QCIIe6FRROzNCZUwLpkuPviwsoE08m6fv+FU8rQoDw7kkmBksRQAQR2VO7rb8N6j/bCamHbb2Teot8137SBwYZtYWcOfv3pe6H3V8iy1SR6xvR12Vz7PX+/eV7hfKp4QnvCMlJPlAWE5A1w2M37mvhPo0nAHTepPMx5DJ+3c1AKeuTQCsouVkuxo34MiJtsK5DBvLpGExYqSw5UAdk6vF8GOThWg8y4sUuMpjNLhgvouAOUxxcY5kSs76VXde6L3P3H6MI535tNeW/K3zRhF9X7GZj0870wHnTK9f/vWZcxGVLbFii2f3jJS6M1gkDFLgLNJaHMPWr0sYDYYMT8zo/LD7FIHh7O+w+PC03ceQQuF7m7xJqc5kulsVtQfGVk1FlbGECxoMqOlowvWZmnviA7QKlYXF/LiUtqhmU6vIima9x7p3zOH1105CNwECEL64luXMbaiEhBpjf/m9vtFZ4EhnGY1jvGV2Rk5wRUuQMzrvu/oAO7sac+j+5vVo+Y8h6yVz166ibNT8xVLNm1Ol1Qe0HPerkn+nOEw1vHW0H1OSE8oCJ+IOzXvm9fQxYZcSmKWTIaRgwXEZKGtzftntIDVNHf1tuUdWvX3t6OTxbF1bWFVCNSITajUtMV9459Q4PK44Wtl3tj0LnQ/6z90yeS5PL+AVDS6IyDoxtpQENGxmU34yMlBnOpq3RPpMW38sOSbqYbzMwUcCTzIKAawbLulW1USbnwzSJSG6YY4I9wlDySW7wPHB3BvXyesZk26/datBLtyEPhur43O4LnLNwqcTzkrQTajjq4tue5GfgDGLphHX56fLQrhcK860hoUw/sd9kZ24Zbcm6kBnsi+evYa5qM8mZXboHIIdfbA4dEXzSGwJkqyD4LsCk4WVcO7BgM8gYCkMm5XJ6EUxU255lXiXeKqUmn16axewfuEXHbBwxAwaylblnpLhlRDH0pCm4szC3jh6hii6yqjJKMs1RDMPJC6fH5JNxS36hZv6Avtq5urssjrFApbWkAyFt/xSb84XrxphDNdrULqtdcacTDPXryBsZWwOAbaqOGa5nA5EWjvqFDZUP83Ie0/8V4as2/hE5xWE548MoA7ultVpdNbmFLbhYOgEiJ9+exVzK3Fik5NPKEylE1AXAOIGit+LeqTz0+Mg6HezcVGEX2Fj7FqoTWw55mrdjIUOdDfmpjDdy7dQKoCwMhis6C9b7BK6Kpw6+MGpmBxahqJWLS2bm1gHfxqSK+2A3Vtz7qVV5NMhnLNoshYIGOuq08Kgi4bHj/Uh6PtIZhN2mlB14/3+UVk6APeGJ/FD65RZIdVHtu8UqHzQAc0GIDXr4LLDlrtFmB1F3FGVBOttXFt5+GP96CccTmeFZfNil9++A5QuXEvNaa4RhZWpPyxkOFX+miAMHh6Qi3CPtt46XGDVIytzM2Ik1bq8IZcDsFyULtC5bO5NW3HDgIFMl68NiZsaXLAzE9iOgReCTO3qMLfDW4bXmAuh/DiPNZWI0WnkZySxaPDfXjPoR5YyY50mzXNu/ybNy/jiggzlbM5v0mL8B/oddj4Oem9zk+OSyVIIbZEjwmNZjN8wSBcPp+clWuMuut5xC2/hliX8NI81hO1ksmQn96BDx4bRE+Aiowclxsj+V0QPlfPnlxD6Nh+9/LNmt+Z6qLuYOBAgryGWSCVSpEwIkvLulVEtdtzdJrNFlnbHS6PKOImK8iUZxUFjw33COBurzWG8G8sruIr564hmSqmPGdlV6C1Lc+02IyeG5BOpbAyPwOuJSoVswbAVdDlc+MjJ4eFq+dWwTl27CAQmPi1c1exFFM1wQuBie0DAzDKote8RgMvzc4gl01vcjAoOXR4XfhH77mrKJykGrvxzkuj316DAsbWM/i/X3xDwInlgEH0+tt6+mGxmFVypAqvXhio5WXZVAbTozd2LKXO4EFb9wCsTptux6TRNqvX/VmtsDQ9g9R6ssYQoIKQy4lP33UUIY9DGNUKF+H9Pyr1W5iLIcfcj25M4fmrY0XrSOldSsOsTF+JuqjXq/+B7/IrY+FVLM8So6S/EkSzO6ueAm0dcAlNMRANrwi5Wqk+g/B5KApMZgM+9/i9cFstO05hNOJzaWvcj2/O4vkrN0FnZrOx3ya0dvXA3CTuDa7XTFEuTIwjTbnqAnAyQf9H2wL4zN3HZc2+FSXPO3IQWBbz8siETOxMAcqCk9bflhfEaOLrEPRB1H08wnz55hLrsJjwsdOHcbQtKAjR/eMUqAtnOssSJBI7GdWNZMveroDlY89cuIHXxmbLhqIkv+Z2o6Wzq7aIjmIQ4qRomCIt+rat0kWc/20yGRBo74Jd+Nj13acRC0Pd7qlAtCuEhjaZ1IE32HwyA2qMGLCUsT/ouy3TXdvbufwcJIDs+9cnBGBLeuZqjTl0TnOCyjRu/dtibFV78Rr+vjBZSF4TOgeqwmAx7FjPqkjCKkYDbW6eZNU5zNTa4vQU6CiXW1f5HT95x2GhszfuqXmvspRG1lN4/jI1G5a2FG8IiVJHh5RsN6sxZbO6MIe0RDUKXBZFwf0DXUK3To6UZu9hO3IQYqk0/uK180J+Uthhch40i52q0IiJ6BpW5uaQzW6KwhC4RyQtQzSsL99PLZXN4fWZCH40toxoPI2OoBMPdvtxtMUJOwdtfp8VjEA0gf/6yjsgzXWl9EKgvRNun7emioTMegqz46MVowd6FhbN5qRi9re2iZOw31uCTHOLi8jIwrhd2wQiSgYul8OhtoAAEjt87tuKwXO331Qqj+JJQZlzwda/oSgwW6wCWuTaU7SwNn0p3a0Vdvf7SvORfCbhpUVwjdTovnU/SVFgcznFCbMWnKgFhp5TEFlclLr+co1r04mOFiFOuhUbW7W5yTE3G4kJuR9FBTfZctRfugNUHG5vWuRTOGjCYZGCL/bh1JQDhZ3u6+9sepp8Rw4CZVyfK8kbGowm+FtaJOfczOg9F14yJjK3poVgOFl8dis+dnoYgyEC5fbPyZVAmi9dnMMfvXIDN5ajYDWB1WLBgN+BU11ePNIfwqkODwa8DjgsBvxkfBbPnB+B0WzcAIpuLhakq7VLaSMZ6XQ38oevLMlg1SPxqgOADovdKguNXRQg91cJn3bqEudgaRFEIGut0sLMBVJbdBi9Ggz68b5jA/tC4lX3OKnzhXQSCCC7ubRasL1Xd0XNVotQMpNQ6V3d1NyBimdRDHK653glfXItTdIEBgMcLreULYs0fGljJC0Wx/L8TFnmVY75FqcTnzhzCJ1+d9l4sswrbW2uXsRSyyvoupbveXVuCd++cFPkAYqaAQh1dDYRj6AeItaWqNuwiSXTRn/AaRM65kNNBtrX7CDEUyn8yUtvb5ESNltZS9olwj3NavSsGOZdnJpCNrMZ6mJZ4/39XXj8cC8s+wgdzi3l7bkoPvvnbyCS4vsUhgMNgvlkKZzfZcOZrgAeG/QjHV9BOBpHWslu8Nxr7hDnHsFcnmCwaglZ4Y5Hxi+CkNYFOFN2beBo3nAeqi/h6j1Ubv1OcRb2W1NV2bZy1Fd7d47R012t+OAxsssRHX2AvN/89sXW44ZBJ+FL71wTkR2O90qkXMW/zMm6w8opq5Qx758DQaPmQTmJe73PYgrH6fMJsJnaLZVaJp3Byuws1hOlKHz1F2QEfP+xAdzT11F0C65zTAVL2rcQvZxPoTa2rK945BC39cMbU/jelXGpJCpcczmmRLHW5miqrP3y7Kww2qpts799AQ8+dvKQYJc2/rzaAqT3o1e4TpeDUEhacnZqAX/z9iU4KJeZryWFkhUCE18o1MSQDPPbJskFry4tyZIgla1UK7TbxXNlnrexg22X1i/4Ob9zIpPD3/v6RbxyYVKl/tw4EWxeKAsmTBQcRy6jwOSw4FDIiNMBC/wWI0UzZWGlCJXRYkKI+X+HQ1cVgWYrDfApwk1lWsBhw/HOFpybmcdaolqovfAGCmwOJ0JdXfLttOFfPyvW906yfkFBKp7E4szURllX4ZhS8+HlNyR+i6NtIXzo+KDI3m7myRs8q+trhqbejYdKlk1/6a3LWI4T47Ft/aMKbMyzLjLNwHRDMw8pTTXONg/TrET7rSfjWJ7JC68VzjJuxmXMqR1DZA01QNVrae+symMi+gL5NINEzEpKlTh3TnSE8JETw0IdziRoKpMTOv7IehrvzK7hi5dmMb6axMlWN37pnl4cDTnFkW4WJE+clRzwl69fwM3l1XykYyOHC5fXBx8p5JtI/MYIpRzQEsUA6KySw/19XXjfsT4RHGzG3qbLQdDGZTKdwTfOX8fF2UUYCnQVTGaj1NiXCgA1Y/LMjt0E8+XayOcHJ1HHh04MqdiDfbIW82N/b2wF/+SLZxGV9ylG11Y+FanxepMFCDlMaHeZ0OYwwO8wo8PvRkdHu5B/qLBHHU3SC8vC9FWOeZXOB3PpHz4+iMnVNSG7WYmlti3DKQRM8T3tLif8LW2w2my6HBcdvW7IJQS/SlkYaad1mk/riNVkwOnuNjw00KUKsOyjNFdDjFnDTZlmYynaC1dGMRdN6K6ioY2pCeINheTkeytQ3zW8Zv0vzSlIxNYQWVlWpZq3eAPbL4YEfZILwB1gmlgfQI8l0EviPJdjRIBUMTx16hD8LhdurMZxcW4N5+bW8JOpVdxciiGrodwVwOex4zefPITPnu6EpYkbMj/EUjyJr75zFVPh6MZ4o7VY1UCNGaentFqmsRsL7UrytWKskwEOixEfOD4oe5y6pjS2HzU5CGTp+8Kbl7AcK6779gTIbrY7QEc5b0j+bCt0XyYW/3w9kcD8xGiRCFQ6l8Hfvfs4jneEhKSnsear3xwnMPF/eOYSvvz2ZD6ctbMwKXOHFP5wWgzoDDlxvL8Vx9o88DksyGRyopehDqxNnny16pM1uFlk0kwvzCCVKE+iQpbbRw/14YH+LonYXFtcwTfP3RC1NI1cRM9mKIDW1jYVG5FHpavWLHQn6mffWu8kIKzlJUF/E9xVS2OVD1HHTHO5mU65hUxotfR7L11L/vwrs8v4xsURZCpoi5Trr5yAPR4BmEk6Z2fTaC+ZQmdfyPG/jLXlFREFqvnF6bh7PAi1d+R9g8qpsMIZSurshYkxpJI8JKjG5pprlkinAYvJHNaNTkTiwOhKHPOJNOLradHl2NoMONrqwe9//BTubPc0tfaf5Y4Xphel9JFVNZv2U4Gwwe5uWC3NE/jj3kdFWB7UuBZtNkUOHD977wmQTKnRTbeDwM99aWZJQETJAqU/hsJbu3tgtTNPU6/uGoQNkUxdLJ0sV25CB4HGW1lYEKEbGZgKYLWY8M8euxtOm7V+3anXa1W4DyfLMyNL+M1vXcB8lM5XjcfVcveVHB+Ez9vnsWGw04ej7V50++xwW835sGzefcp7otzw45E1LM/lya/K3Jdc6z9zz3H0Br1iXxKPXJhekDp20ubq3eS5mDg9HiFvIqnSXmpEfvMURtpuAodqcTLtZhMeGOzGAwN7g0t9L9m11r7Q0To/vYhnKUAmJ83tF5iN70S2Rb8XvlCb5NtKU9219mOvXy/gtpVVifzx39kqYTcqvwsBzTbhABDAsx6sjAALDYhGyK8wI8DGbM6AcFrBbDyL0UgGi2s5xNM5VX5eSs2ldxXXOJPRhF+4pxf/02OH4LY2V9WQukJ0EM5OLaorsKRkJAkBl8eHQHtb1bRLPccK16HVBQLwI0URSB7kDrWF8FNnDsNlbSzmT7eDwBf//rVxvDwyVeT9Uae9tadX5YzesXU2MmhyB1JPUviGIBizzQJ/sAVWp7Pk7gaE56YRWV2VcJi2WfX6vfgHD5/eN5UL9BTnYyn85rOX8e0rc/l3LG/JMpAEfRZnLl0BzFYz/F4Hhju9uLPHhx63TYA5fBqlWnkR1Qi5MQphh4CiNyczHdnDbQF8+u5jRSHA9UwGb4zNCjcGyy3LKUmW76giVS/MG+8l8B5xLdENDQq1HoHnqe3GN21F5+DhoW7c198lUZyDtnsLcH68OTGP7165iTQPJhyPxq357i1PMijw+IOSbrhdNUH4zioHzALiYZbq7a5xzlONlbwpesjU1AivGs29MXID11eSuL6awWI0i2RKReWX9TO287gVA4Za3fhPT53AA12sQNvdO9X665V4Al98+ypmwmsy6zcebzBIdMUhxFy7tbT+Xqnl5mMq3qDAvSK/DMUH7+5ph7mBa41uByGVyQr+4MLMUl6mkiHpnGhpk1RC87b0v3r5K5lzWZqeluoEbXA5XR5JYZRiHBaEBphiI+pizM3pVGcLPnP3sY2b6ynB222fd/p7fnTqlT93cwn/+plLWIwk857/1jsaGNvPEVCjnaT0D9LNjV7cYmJKwft1tHlwX78ffQEn3DYzzMghMjtdkPcqnck5fPaeExgm8VRBF7mBkjaXeISzk/NC8KS38bdU/KTA061eyAnKZFohurJS5LBsB0RU31MRENbdvR14aLBLAEQHbRcWKBh2HB+ZrCKHE2o3UOhJo3Wv9gQuCxxbFHi61WOrWl9r/XuOScrZSxqMiHf9U26bR+VJ1bp6KmKW5CBGsad0Fsm0IunmS3NRvD22gEQ0rUbbZHFQjx3Voj5lVjowSvmrDw/inz84ADujGU1sHG8XZ5bwjfPX8lErPlylQCYXREtX97aVHfXuKp02clgszcxAKUg1MELUG/DioyeH0eouPTzXrxe6HAR+ZpYfEcQxuRotoi0mMRJlnevSFEUU8YT0aCONka/l7youoeRGSWEmCjRpTc399m5wgDfZ+azZBBx0yUwO//a7V/CFd8hKWT7XbbTZ4OhpgZLKIL0WRzaWRE5q8Xe5KigQ6Wevy4ZWvx0dTjPs2RjaHQZ4JcxIpsZNdoluvxu/cP+pisJCiXQGr4xMCjcDMRXq1KrWS8YpjXBTATIQqMBetpOFprbPwXG0xsW2RCa82l1ySg5+hw2PDPfgdFebLG4Hrb4W4NePJlN49eY03pycQzpDBcji2V1pnLGigfLjDt/tRcmciseFGTGZiOcBtPrmSLWrjCYDWknLblNLkeWAledFSOWyWIhmMLESxexKAjMrcSxEkkhIJVP+wqJPX+1pFcaJYsAG1VO+AAAgAElEQVSRDi/+6jN3otNjb3qqmGD8F66M4Y3xGTkoFL4F9zov06JNBFHS/isLc4iuhosAlCwjfXiwGw8NdTcsYqnLQeBnHF+J4Ktnr2IlrqFjVbBbS3cP7E7nbrcqdaQoioR2yVRXSAlKAhSSVhTW5LIUZG58VIiEtJbNZfGpu47gTFd7fVeoht0th+sLCXz8L19HmMDPcpWNCuDoa4ezr12NHrC8cT2D9eUIUgthZFkKxvATw0yczXrnZOl1RpMAi8izQIBju9+EO4JmBG1GSR0S9vSBowN4cLCr6BGl4NJEKo3vX5vAq2PTMOnJY+ZtyxMewa4MC0veuEmof06+TCqN5YV5rFN8Rm+5gmIAIZ+k8376jqPoD3kLWM70foSGDazb7MZqDc5aIoXvXh7FeWFbVNMMhVntci/Nv+diznr2UrbF/WokjlOh5RUwXeVWODfVk72aa6QTmxQFzU1Q4UaSl1Fhf0AitvwzpsoYEbwwv4a3RpexsBhFlAeVTFain2Xd/y1h23JfqTitXPoWPJb80kOD+N+eONxUsKJsQwBiyRT+4vULmFuLb6SraU+CqgmAZSWWHIAE3L3Lg5qOgZhOJgUbRn6LfEG/fB8qFf/MPcdE2KkRa6ZuB+HawjK+dvY6YqnMhkfHspiW7u7yTFs6Xrr0EiFKmZ3La2Rv/q1wY7d3FKUYmFpYnJ5QT6j5hYKymJ977G74HGWYv3bQn8b8RN08+P8Ml/7sF9/GK1fnVd6DLbPEIAA+75lhmB0WKEo+E553JHKZHDLhOJLzK8hEYsiR/rdorOoP822AmrQYoUQXgIDHjGMBM06GnPjlB4+h0+OSCVNu/9aY0eKpjPCcn5ueK1rEq9nTZKKWR3s+B9qc+I9Irs7MIpmoQa45vwAGXXZh6+wNULGy9mBqNXsc/H2xBegmRJLr+Js3LmMmEisGblWxP0/GLV09wsOhu+R3r30ALcI6P1/E5qmvmzzQQZRtTQbghavjRfbjiqQmLw3CUeLp6sZsQsGV6VWcnVxFdJXOs4QSqsYEK/cn/1sGG0hgZzSokVCZPBoLpGy78gz25Ru/9ADu7CAgWntuc9YF9oJ73lfevoZkOrtRjs2nu30++AQ31Yy+iNElnc+I0drSUtEST24E4hA+empYcID17pFuB+Hy3BK+fu66GEtt9KYsaOnu3TUxifbpuVgzbVBIZcsnETTDVMZmNQNL0FjSsyQkF2pvFLS6HPjHj96ZV8Sqt6n0TUO9VzGP95UrC/jcF96CgTOWn33j4Jn37Mlo1tsOZ39bRSZEmVc5BblUBplIHKnVqPwzy9SLpCx24d3KRkgkMeC2m3FvXwgfHmrBXd0+9PsdEmlgKalWxqcWNqnOz2qeW//yHAViqltFhQKqKQ/qNji96qYrLk4jygQVRg7WBZRJQpJaGt8n5Lbj/Uf7Ra/drIUbDwIHtZhxR9dylKwlU/j6+eu4uRjWNbbUB+WEEY+nP5Vtcb81g4jRsXKL4O1id3S7gadGCnhoemy4Hyc6Q1iIxvG1s9cwv5YoYDpWkMgoWE4quBnNYnbdhEg0jRTFg7Q8w45MtrkOE/dkdjlg8blg8buhZBWsXbqpRkZL1j5Z0RXg79zZi//jA0fUyqsdPX/nP2I55nevjOH8zLyIEmrxFu5DPBhL5V5Tmuo85bIZLM3NCsV1YSM3AhUfe4PqmlnPpt9BmKWDcE1y5lpIxWq3IdTVvWsHgS/EjSUeCWNpdnbL+5U6CJTHVBf2hFrClP/FHd1twqC41xv7Oxtdx+e+cQE/HFnMK02qvdYcaXGqqV9wahhGe3EpSyHPv/auMjDy4a5cMoX0ahTplTVkEinkUmkogunQsVNvYzw6InxOT4sH7x9uwQM9fnEWerz2DdosbZ7znwtrMXzr4ggmV6JVF/LCcwmdBEaMyAVf9xGfdzjI8xBemMM6wbA1pEJ4gGpxO/HeI33Ci14L98NeH5f7pX90EqZW10RoZyocEwd5+9NcPmrHWn+nQxRnqVHSkMFVbyOSIySXE2wMqxWEk6PGk2ur245HD/XiWDu5YQyCD3rx2jheHZ3BWkZBbD2H+UQOo2tZzEWzyKZYfZDfatQQ7c7eymCE0WKG0WZRHYOAW5wD/plwn7DW/8YMkrNLFZ5hQLfPgf/8iVN4uDfQiKVg2/ci/wCjCM9cuolIQg3ts2lkb0yvNyeKsNlN6sFQZlsrZ1X/JidpdUYzGUWoZ9PpICi4Oq+mGOLpbD6sr8BitYonVZMQUIXec5IvTEwglUwIda0WsuXQtDtdCFJ+02ySkJQgd9cisjBoG5LVbMSHTwzhTHfrnmdQY6+/eHEO/+7Zy1iRgbe1MSfvHOiEoytU+7Yuk9oAJZ1Bbn0dmXhKogpMQ2T4vBzLGDRfcwfHXvmJEUGnBff2BvCbTx7G4aBzcwLnb8n3pNrkdy6PYmSBAjyaE1S9TI0lmd4gGczoJNTRL5YwbVxEbKRSRseyo1UxEJA41OLHE4f60Rv01HMeHtyrRguQf2N0KSz8G3ORkvTQNkNaylHJ5NnWIXLRe70xqsqqmujqSg37tJbGVNAX9OGRoS6hnbca1ZLm5WQaX7s0ha+cH8fUWgaRhIJYWjv4qamI2n2CgvSB2QyzxwGL1wWz2wGT0wYjpYpJr150YwWZaBLRKxPIyjq41RGhls7fu7sX//rxQ3BZmw8AJvCaKqNvTbAEvXAdyomuDKmYSximGzqkWNa6PDODRGwzxcZ1lqzBrN7rY7qzjsulTgcBQn1KkOLaenpjUeVJj8QaFkqB7qJT9MKS0SjmJibAXGGhxemtichPZyeyqZQ4BwRq0AhC78lTM3Lo9nnwyTuOIuTa2+FDvs9yIo1f//ZFPHNlruLmb/E64T7SJ973rr84wUT8Prks0uEEElOLSLPOlyevDY9zJ6cEVfvhQ0fa8IcfPwW3pWQC85QAYDGWxFfeuYbpcERNSeS93nzyseKEIgI90NYGW6mUr0I1CgNyNY45RpuI+hZqWB2lmMUgrxyGQn585MQQAi7HvuHZaOhqdYtvToIxphm+/M5VJDPpIv6N7dJS/DvimkLd3QV8H80DnFUzmxaV4mZAMGIyEhV8wHZNhQ4RxEw5+ByYm+4J+vCp04fhtZPvxIhoMo0/fmsaXz43iYXlKNZzBB9vxu50OQZFAEQ1BSnRgJwCo80KW1sQ9vaAaMQUnAgqdl3JZBAfm0NyblU9uGxpBnR57fg/P3YKjw8Ul1dXs+Ou/n7DyVSwGl/Hn/7oHKJki9045Siw2hyCa+GexXW0GWBFg2JAIhbF/OQ4jHT4NtKvCk50teITpw7VtaJBl4Oghovj+OrZayo4KG8kdi7U2QWX11P7Kbfg64lk8xzBiZVkSdWNjBULhd5RnohZDMLyxvsGms/hXesgJFfDX5+dwW9/9yqiqVR5QSaTCY6eVti7QgLm2VHLs4Bt/DafR9RCYiyVXF9ekzRENpGSFMRm2KqKs6D9tYAljTjkd+CPPnUH7mgvf6qWhXwpjO9evomFtUQNY0WRfHGgrUPVo887HDuxB8cq0d8cZ+TaqCU0yGuHW3xCTNLqKYiU7KQjB7+pqwW4EZ6bJNviKFJZsvPoo1cWDhd/QGXy3Okcq+ubFN7MIIchsuhxM9Bz+ipkTqQzMNziF5Ewk8mMlydW8KXzM3jh5hKia0ypcUMrxT3pexlxIvI7gMFoksiAye2ELegRXAH/WzbKGghouAatXZ0AWL5aZukhCP3Td3Tjt95/BMGSdKu+Xu/+qpeuT+L710lYpCERVIeS1TFCLJVHX+3kmFVz7xRgcWpCIqHaHsivEnQ68PSdh9Hp8+zmvF7UHZ0OggIRajo3AoLOtMaQq9cfEADhbgxDLMHyDAl6MhUW7soxQ47zO7rb8cSRPlHM2+ttPJzAv/z2Rbw8spif94XZd/beKN6352ifhOdUu5Zeo+MtSx0E/qRgY9fumstkkE2kkV2LIRWOIxONI8fyKU1Xvlq8ymBALz38T57Bo90lfBh5pUP2nqDMG4srkm5YilGAR/um1cIAKkEJw3nmfG22jrcvuoSOD53PyNISKilUVrynATjSGsDjh/vQ5nEWRA52kJqpteMH1+uyANMN70wt4MWrY4iJTHq1MZW/LSmZAwGRQ29mXXu1l6IjS4Ew4mOk6RhqGi7JbDLgrp52PDjYDZfViv/29iT+r5evYyWmlUTufKXmlKUzZXTYYPU6YZYUgl0iBwRab93cC9OY27x1Novo9Wmsz69U/HSdPgf+4OOn8Wivvybnvpqt9fw946DLsSQ+/8ZFLMfVlLD2SciLQCbYZjamRVl1tThFkaxNRhC7xYQnDvfJ968Xu6IuB0E1iIKXrk3gpRuTEtrXslwWixWtPT0wWna2OdPb1Khti41cOiuK/5v/RUDG0Ta/OAch1/442X3hwgz+7bOXBYldtimAs78Djt7WzdRCuc2+niNSVGAV5NI5ZGIJpMMxZCIJZOMJtQypgrCKSo5iQF/eQXhPqYNQUoFAIqhLs4t47vJNxNbV4KaexvCl5I3b22G1WmtyRvlbUWRcXgK5zWtpXGwJ7GK1gsdmK1m8dKzatTzs4NpdWYBMr6+OTuPHo9MFlVabt6z0tegY0EEgIyz/vZn55GIvVl1jqeIXXpgXbo7aUos52M0W3NnbgQcHO4WjfzySxM98/k2MLzEKwVbmoFEmr7DxR3mjkWOFToDZ5YTFl3cMnBQuUpVkN12OwnRFocOwvVPC26TXkoicvwGmHMo1gis/fWcvfv/Dx2szy65Glfpj9p5R0Ocvj+FHN6eK0otWuxWhTrIr7mz/22n3eOgh4zCjCFpjuvfO7jYhCnTUqT+6HQSaaWQhjK+cvSpcCOpwUz+8NxCUutCtOZjqJ9/kWhTL8/NSwqE1hv8IukhkmFLY9JDIAyDSGUoOAacD9/d3ygLuc1ib7lXW+mHZbwKQn/7rN/HmGGtZtUlTsHRRttlpg+/MIRhK8/m1PnAX1wv4M0NCpnVk1hJILbN0MlqCnNUeYECvz4Hf++RplHMQSrtBJ2GEyOCL4wjnT0gCSM0T32zXbXESqABpUYW4yi/mm/Zkvi6yuiwiNmTm1OuQyNg2QqiTHxnshtdhq+m3uzD9wU93aAF+9dj6Ol65MYWfjM/lSXyqOwi8gqdif0uLMMKWVxncYadq+RkR/ZGI1LqnmQLT8VttznDd9dgtePJwP453hmA1qyWB35tYxj/4/JtIpSuVO9NqJSojm+AumBw2WHxuSR2oQEOLULRr6YPqq7uOl8hfwnB97OYMEpPzmyXf3PEKDicemwV//nfvxX3dXs030WUn/b3Y/srJlTX81RsXJZqupSiJP2AKlHLQjKhvpi4pEsaQi1b5oLoa9TpWbAh0sdRfav3Vr0G2W2LxAk6uWXpG0fbvrNtB4Iutra/jb9+8jKlVooYLJp+ioL23G1YnczFq08MwJYjM2Rkkoioic3PA5/Cpu45hdjWGH45OgtKvaqTbAK/dgjPd7SKl67Nzo8gDZeo1Chp0Hy48f3F2Br/x9XfUk0qF57iP9sPe6lc/erXwfkP6mh9UMujybEnZHCIXxwTYqO7KhZApA4b9Tvzh02dwd6cmZLL9wGRY7Nz0Ap69fAMpkpDoHsg5KX1kukEWqgocCZqjGl1ezqt9qsBIPU6IbBhGAx4c6BJcC0N15ExUF9KDth8s8OW3r8r42igZFiDzZtsyOgn0MgJtPf2Cedl5EH5n1mF/1sKrWGWJdw0lt3watUbtZjOevuOwCKnRKdam07Ojy/jl//4TZAnIlf2j3JuplOoyvnOci4DF44SjuxXWkEcwUKpQkMpy0rDGOv9UFuF3rktZdnFFg9pvJWdAb4cPP/j79wkbZDOXR5oulloHx9aNpXAB2Brwt4TgDoS2pEdoLVK4p9bXYXPY6xplMCg5JGJxKffXUvNSfmk14efvO4lOb32YFXU7CPxAzPW9NTmPb50fKZGfZKWBSkFJWmRdADCNVpnMUAUaBPzoFFz64PFBiSIQAb8Yi8uzGeYNuR1wWy2qJ1YDEKZhA1vHjdnNS0sxfPqvfoKVaKLCLwxg5YL3xCCE6qyZo7/SO2hyp5ks1i6PCbfC1mbAkYATf/SpMzjTro/vnt+OIeHXxxgSngGZF/WSIRFc5fKSDz1UJm+setFMJUTDq1hbJmW3/kWNS6DFYMQ9/R14ZKgbrh1iHnQMiYNLGmYBBeHEOp69eFNKs3VvakJXbkKoowP2BvFvlHtlYmJiq2GsrfAkqF5RXRxs8048MZLjgOW3ppI147mxZfzDz7+FbLaAA6XkCCtAQ5sFJocVZo9TogUsURRukDxXQTPXovjoXHEUoWj6GmBRgN/5xGl8+kQHLEIw17zGyMG3LoyI87lZjQV4g0HRZyhsPASRyC/KE76wUxrhDbWKeq24WnVY38kHtDQzvUG/rD5fwYdODOG+/s5id26HoYuaHAQ+nlz7rGbg5CsmmFHBZL6WVtgdLigb2t/lP2AiGsUqUwvptPAeaC8XdNrxkZPDGGjxidimRt/b3KFQv0Enoc9UBr/3w1H81x/dELBeuU2Wk9A93AV7R0D/ola/bpa/U/40omRyWLs8ivRquSoT1UFgBOGODn0OgvYwykS/PjaLH4yMQ9YwnY2Ty+H1SLqhFFyWTaclTCs8Gdl8TbeO+3LSOi1mvGeoF2d6WoXjvLjtcIbpePbBJfW1AL/lSiyJF66O4vIsnQTZdnU9xGqzCeiMB51Gt2wqjfDyIhJrJBLjBNAXpWIkjDoIAyG/5Ju7vC6JehWGlLnMvDi5il/86zdF3KocxwBBhvZ2P0wOB0yMxjKtWYeNazd2Y3XVGnkR4uUPUtxznjjUit/50HH0emxN7K6CVEbBi9fGRDRsc4PXJOvbizZ9aicsTE8jl9FAs2q5fmtPn7DF1qPxYL08NyPjZ5PEKYeTna346buO1uMRdFZro8Tg5FuKqprZFLIonXYkTSImwe725A1RsiEqCugcEHdAQEph2YzRqODePjW0y+jB7dBo3nfmo/j1b17A+TnKshZAejYISQywBn1wH+qCgYQie6ypDgIjCJF82Lbwq286CGeEM11/o22SmSxeGplUJ12Fn5bbmvlbbzAAbzAEnoL4Y6asKPQVj0RqrkmmXDOV0e4f6JR3LJ+/O3AS9H/dW3/l/FpM2BbHViIq63iVpkWxbA4H/K2tKr9LAxrHVno9KcBZSvkKqVmV7HRhvp/7y5G2IN57dAABZ3m1Q77L9yfD+EXBIJRxEAwGEYBz9rXlgYZ7YGzL0qggOb2E+NhsGcyT2kdGkX/rA0fxyaNtoP5O3RL723xr2pN0MgTCfu/K2CaCjHT4HjcCJPLjOpRvqXgCizNTyLI0X/5MLdVv7e6tC9W3xiDMyiyOI60xNd3qduAfPXr3lojSToZyzQ4CH8J8+vnpRVFWU8uKShpPeG4nXL4g7A77BhkPcyWxMFnBwrKYq03dMJlLYyXCz917Av4Kg34nL3irf7OezeFPXh/HH/zguoTVtzYFRqsVrkPdsIW8O2Awa/wbErC4dnl82wgCUwyn21TwUC1NTTdk8NLIFF69OZXf2NWbaKHWSksXMUyeYAs8gaCMJ3rTlAuvBYrOe5Oh7fHD/TjNvCsFT2p9iVpe+ODaplmA69TYckQ0ZJh2qKXZnE5hbzULR0J+ia9xbBc9L5+uE+cgtS4I9DR5UHQ0dd9UK4aI5r+7tx3vGeqGZxvwbDUHgSdxR387nL3lwOU6OtXAS7LxdUSvTUrJdSXcxJOHW/EfP3wcXe7mRBH4DejEnZ9ewDfPjyCzQbRGrhYHgh2dm5ID1HlJr2NhahKZPPOwaq4cfC1t8IZCNR9gSs0ta1QOImzIdU87d/K728xG/NPH74G7DinSHTkI7Gwqm8UrI5N4bXRGuL3LbXw0KTnPmXoghzhLMrKsVsgDcQrnm9tmxi/cfxotbob29oA3W4cJwI/11kwEn/vaOYwuxbaCWPKkI9aAB65DPSod6R5suhyEp8+AEYRCwSZ966l6dqIIGImUmN8rO5wq2IXhVk8ghHRyHfFYdAPMqseM/K3dYhEZa6YViuIGt8cQ1GOG2/oajq6RxTC+8vZlJATNr7ZqgFXOXafXI0Q4etMT5RbxjQCtlAMqMk6XZiaRpfqP7qYORgLz7iM+ZrhXyOG2m1/VHATeTyIIAx0VqpN0d65uF24A28lbMrGgYhEqBriN+N2PnsTP3tGpqsvWrReVbqSqXY4uhvG1c9cLytQVcQzoIGykpRQgm0ljYWoCmXzFn3pXBRa7Ax39/bt2ELRerscTWJom9UBhZNqAX3vsLgToQO7ysLNjB0GchEwGb08u4MdjU1iOrcuHKl5X1SJZ1fvaqPgomnAcyBS/efJwH451BHf9Qg0fJzofIOHzbA6//b3r+LPXRiusMSoY0X24B7ZW3y3P/1WcGjoiCDvBIBQ+j9OPLIs/uD6JK/NLukLC2qTbqHnSSSilbg5UZHQKGPFER0td6Ul1DpGDy5pgAXU9UnBhZhHPXxnDamJ9I31UGLYv3xUFTp9fQGjUbdjNYst8MXPFLLllBEG/06GOVbfNhgcHO3Bnb7vUuFfbEPU4CI6eNrgGO+q2WdXzczKKQF4EtaKh9Eup2LR7e4P4fz51Bh2u5pS585kLsQS+ce46pgoA2xwXjApwnGjbNMGndBDSIk2w2bj2tPb21U0JMp1MYWFqTKjjtb2X/fy1x+4W2YHdjFlxpGvFIJQOAobNp8NRfO/aGCaW19QObciDbh3GhZ+ar9TmdgpL3aFWPyjMcbs0fqSz81H80hfewkykPOCGZrL6PfAc74fRXLn08VbbpFoEYdDnxO8/fRoPdPl23FVxIhXynicldXVpbrmq3sFODvniHADo9Lrw5JEB9Ae9m3LNO+79wQ/3ugVYBcW0KCmZKcCjiRVuOJlltlz1UGMQJ8EXCu6YklnKGFdWNvk4eGiqssNrjg2PViGXAx84NoT+kBfW/BpZbezvdweB32V9dgXR6xNlhtZmROV/ef9x/OLdXXWp+dczhplS/87lm7g4s1gU6ST2rq2nGyazVdYxRhDmpyaQLYogqGucO+BHoLVdv49YsWMGpJMJzE8ygqBhHZjJyOFXH79nbzgIEjihAFE8iddHZ3BhZkFQ+9t5LlplwlDIKyU6PX6vCja5jRojPv/jty/iC29Pqp6dgWppxe9oMJnhOzOkUirnATp70QTVHIRaiJKqvZ+AYNfi+Pr5EYyvRmCUWhaVeWE3I2QzpEwQjxPvOzaIoRYfTDXWnVfr/8Hf710LpLM5UeVjlCqZSekugWVprS/UApd/K83vdhu1AMlyWayurCC+uoqciBFpkLXtx7N23zaPA+890o+h1kBNoDO9DoJzoIsF7Hvwo4l7hsjZ60iH43muhpJuKgZ0B1149hfvQ9BhLf3LXa4Y5U0ipf5T83j+4k2kCsL6XORZ6i8VMHYHMumU6CWUppL4VharBS2d3VLVIMR/O+6pEal4DIsFKQa5vwH4J4/dBT/xf7cyxbAlmpDNYjYSx9nJOdHRjq6r9e2C4JR5YRRHoM3jwt19HcJxT/T4bhb+PTiyZbN/cWIZf/+v3kJGFgW+f6nEsQH2rhZ4DnUV5Y/24vuAVQxXxpFaiWztXp5q+fc+eQYPd/vr8i05ZZhu+Nq5q5gJUxxMpSoqHCe1TCotasU0RqfXI2W0nT4XJF61ywm0J7/XQacqWoC17C+PTOLHo1Nq6rPaUV7upK5f/pZ2cRK2G+SF41KqahbmEY2s7WBe5NAT8AvNd5ffVbMjq8tB6G2DixiE2grZmjq6UothRK9NQSnkcijYUlkd+nMPDeB33nsYlg1lWvWb7e5IUfk1CXj9i9epy0AQ5WZanU8k34Hd4ZTKqsRaRPh7Sjdpsi+SDoBS0bWuP4VpBGGfXA2L4mchSNFjs+LXnrgLNtPuMW27TjEUmrHwk6wmkphYjmB2LYa1VEYWY5/dhp6AB70BrwBu9JLjNHVE7vJh3NzmYmn8/BffwYWJZZFDLidiYrRb4T3WBxPlqff6JpWlgzCB1FK4zJwzoNtjxX/65B14vDewsRBqYMWdmpNjaTYcFWISKohqyT0tx6d/+qtX0sQdXjc+fvoQ2j3OmtTmdvoOB7/bmxaIp9L4xvkRofwWrKDOwUSugUB7B+zuyix1ArTLKXKCDLOMMVJJoba8bVi5YzIZ0B3w4iMnhtHiZqll7SA8cRCmyIPwVtkyx71cxbBhGRI1Ef90ZRJpHk5Iu0/7aouAXGhAp8uGP3z6NB7uDVRNS9ZrRF6eX8bX3rkGcrlschBoBEjqoXg7XgunxyPRht0oiXKc0TmIhVk+T4XOnMqPEfTh7z1wWl2Ld3n6rquDUGr8DW9ng6pkk/J0l/2u13eu+33WM1n89flZ/O7zVxGmKuJmxWxeEFT9aoweuPrbqThV9z7U/YY5OgiTSC2ulnUQOj1W/MdPnMF7+wv12nWuutt0lt73yMIqnr86Bta0Mx+82QH99zcbDRhuDeA9w73o9Dq3sIDuNgxXd3sf3LDBFlAQXU/jhStjAl7MFIaKqzzZbDXDF2yF3VPZSUglElKbLkI6RZtZ9dfiwelUVwseGuwWjoPdtOfHV/BLnydRUgGTYv6G+8JBkECAgvWFCGI3pqEUkA5t2sUAq9mEn7+nF//ikUH4bbsDk+q1Nx0wssC+cmMSMQIR84c87XNX298IemUZLctpa23aykcmRUoVpJKbJbyMkj5+qB+PHerZdXpBdqrdghQrv1zxAn47Rgu2OkQKJiLr+DfPXcb3ri/kc46lbpxBhE88R3r3R/QgP0kZ5hM51i0rngGtLit++6Mn8dShFlVTQ//eXXb4FP6cTsLkShT//c0LQqpk0Mk2p92YEZwjrUE8ebQfZOlUnYyD9m63AA9xNikAACAASURBVAllwokUnr10E5fnloqoc6vZhoA0EinZna4ih5kjaz0Rx9LsnCorXkPonilIhsipMUMROqfozOyuqVoMbwpZT+m8FTbS/o49yYOwZV3N5BAdmUFqYbksIySvP9zqwR88dQp3dZKLZZcLkE6zr6czODu9KOyK8XRa8FJFbUOFt5zboIiuTKi7W+fTSi7LKYhHI1hdWECu4PvSWfqZe46jP7hzwHjhkxroIOzsvffzr3gS+caVefz6ty7ICaVcI5uWo68dDqm73y/NIMQl6/PLZRY9A0JOK/79R07iY4dDDakI4GJ+fWEVXz13DQlBBVdfOmVKKgqGWzx46tQR+G4j8q39Mmr2Qz8XonHRlmE6NKeznp7pM4o6UTSMgDMZj8IQu4alWZLW1JYS4KnPajLj4aEePDDQKenXerRvjCziV/+WDoJMhqJbMoJADgRHT0stfkw9urWje6RX1hC9OinU/GxqsVweXZSXnf4nDw3iXz06BLuZwObqa8SOOlK6TwOgyuNLI+MYXVyVyoYN90RwZ4ooD9MhCyeSyCkGGJk6kVSJgmBnF9weT9Wqli1OE+WeZyh0GNWMITahY/CJM4fhd9jq8XqNjCDUpX/74yb5sqWpSBK//KWzODu1UrKH5YeMwQCz0wb3kT6YXc1XjdupMTm4oyNTSE7Tg99K8OJ3WPFv338Mnz7ZXgIU2ukTt/6OMtHvTC3g+1fHhL2TAiilS8DmuUERMOzprjY8eaRXasgP2oEFylmAm/3EyhqevXgDs8S66NhYVHwNtWecQqTEPDIZ7SJLlBXflK3f8rwyB1tuEl6nVaSaT3a0iHpovRpTnf/i6+dU54BiVPlNSTANRiNcg52wd+4h7ZdtXlxJZxEbmcI605zlPyScNjP+7O/cjUf6/U2LFGo1CMS1LMWSGF9excJaXA6IJqMJLR6HfNfoegrfPH9dKvw2G0mWrBJFsFgsVbFoGxQBOSC8tCCls5rrR+yKxWzEg4Ndkp6ymXcPUBRHrHEphnoN871/H857SlL/lx+P4z+8cHWrYusGjF6Bs79TjR7so7JOVat9FonJhbIOgtdhxW88eQQ/e7oDtgZxWWg2fntyDi+PTCG2TpracqcERXKSJztbpDzMQQ37vT+EDnp4Cy3AGvLri6t45sJNhAvyudt3ST0dEmxGtlgSIKmqtPpHG5cAchyQB+ZYR6iGX+oz1p+9PYV/862LZeZs3kGgOFybD8o+KPWlQ5ZaiSFyYTQfDSkFd6jg0A8e78AffewEvE2ujitNIpDmm00jD+R/P3PxBt4cnykCL/Iqt9crVQ0mAvdlUy7kyciDrPNvzcqYWJiVC/PFYolCOOjAU6cPSRGA/lG4/Vg6cBD0zbVtr+JYOLsYxa/87duYXOEpZJM7feOHCmBy2uE9PQjjFqXAOnSigbdg6Co+Pi//g7I1guCx2/AvHxvGL9zZLeG9RjZGD96anMMPro4jnVNUmtWCElKHxYR7+jrkf147IwfNyUc28p0P7t14CxDrcnMxjO9cHhV5eT0bvTqyeDJnRdYmx0G13gpOBzn0BX14dLhH/llPbIw24v/w1TH87vOX1e4U7RgGGExGYXC1Bt1AgchQtb7f0r9XFMRuziE5tVCeFwEGuKxm/O5TJ/H08fa6bZL1eWdFIlRffPsKlmPJog9C/8ztC4imjCg9VsBJZdJpRFeWEY+sFXFqsH/82RNH+nFfH2Ww65OiOogg7OrLa8uDepPfeO4y/vKNcaiM3aX+m/rfvtNDsPhdm7rvGyG/XXWk4T/mgpaYWkR8dKYsb7vTZsU/e3AAv/JAH5x1yp9ufSnVI2dwl+mG8aUIvnb2GpYSCVmkmY/02Cz40PFhHO8MSRRBAjf50GrDjXTwgH1vgaySw6WZRTx3iSJ026QKyr6pfkeUhEldfg+evvMIgk6HSgUmOXWtTG53ptROs//+BzfwJy9dL95MeZqhIJnJtOkg7IMIgjr51ahN+M1ryCYZQczLuedfWA4KOQNO9QTw9Z+7V0SLmt4qlDHQ7ExHnJ2cx5ffuSrpAK5Z2uV0EN1+v4g5bYoTqPsGnQaCX1fmZpFKkuArz6ujkcjlgNPdIcEemPht6/jSBxGEXRqToJRXJlfwq198B6vJ9QqAHwOsLX54jvWqm1ldP+EuX0DHz+nQrs+R9nQaiohtFQ9B5rt+5b4+fO7hAQntNasxmkBw2VoyBZfNir6gZ4uCWb0W3Wa908FzbqUFFBGhIyPsj25OI5GuzjBY6hZoCqSV3oJ7FktuP3ZyGHSsC5t+F2N7G2mbzv/8/BX86avldGAMMFrM4iBYAqzEuAUbaY2fWcNPcOWJTy4gMT5XQWTKAJvJiH/++GH82n298u+3opX7lvwz8hQ8d+mGREFLJcj593anHR5vEKZ8lJnihuuxOGJrEeS49soOsnkE5X/1Bb34qTNH4N1G3XOnNjhwEHZqufzpdCaawm88cxEvXJuvUPKswGizwTXcrYbz9plzIOAmowHrSxFEL08IdWxpoyTuz93dg19/bBiBJjoI5RjgDjgNdjGg3/U/VZdekt+8NjYtWJdNWd/dGUcWf7MRd/d2CJBMZZCt51lvs3+ag/DPvnYeXzo3VXbJoXKsh2Bpn3NfOAiF1s/GklLRkIkl1KoqgjmKSkoNONHuw3966gTOtLtroqje3Veu/mt+m9V4QvRmri2sbFGu5ZpG0KtRWCGJq8iKzkJhqjSv/C3vNdzqwxOH+9FGfpcGjKcDB6H6N614BWWuv3xpDv/781ewGFvfKDcp/YGtNQDnUKd47fuyGYD0Sgxrl8eglEFpGw1GfOqOLvy7J48g5GheBGFf2vKg03vWAoUnM9a1v3h1Am9OzIA8SrtbfBV47Fbc29eJe/s6YG/QOiCOQV4oj/39zOffxMsjzNdvNbnRZoXnaB/MHkdV9Pye+2AsKWUUYWK+olS1w2LFrz40gH98fy881r217lKaeToSxfeujmGU7LRVNvbCKCg/ZY4VNCYjjrWH8J7hHlFDblQ7cBB2aFl+pIVoGv/qmct44doccmXAe7y1yWaB+0gvzD5GD/Zvy0QTiFzIOwhb3tWADxxtw3/40HF0uEnw0piT0f613kHP96MFmMJ65foUXhufBlHotY1rDTMDWcw/eHwIxztCcDTIOSi0r5bEfM+fvY6RqZV8BqE46G1y2OE53guTgxGE0oqAvf+1lFRG9GHSYYLCt/afK9DhNi/+7KfPYCDQmNP1bqzE8bQUS+Cl65O4MLuwRd5TW0H5ZoVfTtQg7RY8MtSLYx0BeG22ujAmVnqXAwdhB19ZC20/N7KEX/riOyVCIoU3NMDR3QrXUOeeFkSpagIFyK2nED5HffYsIIjtgqYADw224PefOolery2PyK5XRrVq7w4uOLDArixQpBtSMGw5zxOZLJ65MIKLs4s6hZ02u8JbESj3Dx44iVavRwXNlmXw2FX35cels43/fdefvIT5pUSBA8CwtVqFZHI54TnaK6yu+7EJLmp+BZHLExWlbHiO+aePDuM3Hx1SGV73GIuquo8Y8MrIJF68Pi5OqJotKT5gMd3AKhkS8Q2F/Pj4mUMIOOwFoNbCQVs1IFHT5z5wEKqaa+tGx+96M5zAZz//E0wsxSpEiAwSPfCcHNy3k1BdeYiwzkFJZRG+cBPZeKqsg3Cy3Yc/fvo0hoOu/UTxUPXrH1zwLrFABX+Wi/ZsJIoXroxjdDlS0dHfAlY0AN1+t3AcDIb8YsRmxtVmI+t44r/9EBHO140H5wlZFMDsc8FzpAdGKQXeby3vaqWzkvZMr3INLhcFMQjx1F9+9l480lvfUtJ6WYxOAns+E44K5fdMeA3RVHZDP8NsMsNhNaHF5cDh1gD6Q37YNb6ESp2o49nswEGo8Uvzg8bSWfyv37uOv3h9TMJ3amVC4RJAGs0c3MM9sHeFanzCHr08m0Pk4ijSoqy4dTK2eh3480/fiVNtnrrWdO9Raxx0611kgSydhHAUz10exeSG5LnGfqbuvkXIcoMBh9v8eM9QjyiIktWzmY1r1E9m1/B3/7/XkRDke0lTAEvQC8/hHhj2WH6+VjtlwlGEz92soNFgAAEkDw234r984hRaXY0Dhtba73LXs4KGcuTxVAaJdEb8OpZru6wW2CwmWAlebHIU5MBBqOnLqvX2L4wt43NfOYdwnCpaFTxXjxO+U4Mbao1CF57jaXz/5fvUFVARXfbk3FLZUJ3NZsFffvouPNjnz1fn1mTYg4sPLLCnLUCfeHwljG9duAHqNxCPwJlsLMN6d6IjhEcP96LVpXLwN7uxr9+8voDPfeFtpISWb+uaQ+C0a7gThjpR8jb7HbXn0bzRkWkkp5cqCjk5zCbRivnsqY5b8j12YpuNCi2d+iA7eYae3xw4CHqstHGNgkgqh3/+zQv4zqXZvGuwdfIZLRZ4jvfB4nVCURhi2KdOQYFtuBzGJxYRuzktLGxbFx2jMJj93JlOyQnWBuiq6SMcXHxggSZYoCROSxwOgImVCL76zjWsJNflhCf/EyZPNY7w8HAvHhzoglMovusY663hjdmX//zqKH7/hWvIigdTsv4oUOXmByg3Xz/WvRq6WL9LFQW59TTWLo4hE08U3Lc4L39PbxB/9IlTGPQ76vfsBtxpr/G2HDgINXzkdC6HP397WvQWosK0Vjjx8iFHgwH29gCcA50w5nNFNTxij15KgE8O6wtriFy8WcZBUHnQf+WhIfzWk4fygKA9+ioH3TqwwA4sIElEljsaDJiPxvHdSzcwsRqFgUg4KiNazXhosBd39bYVOMja+iCxhh08dWc/YVnmP33uMr76xngef1DiIBgMcPa3C4C6IsJvZ4++Jb+iBkZyahGJyUWVyE311YqluA0G/KOHhvDrjwyCdOzaJfxn82M8t8RMO3rogYOg02x0ws8vRPGbz1zCTyaporXVK+dIM9rtcA93weJ35yff/o8eaCbKxtex8pPL+TBd8QzkOnm6N4Bv/vy9sJi0s5VO4x5cdmCBfWQBOguUHWeqgflis9GIoMsOv9O+J0h5IusZ/MpXzuKl62U4EBiyppLjcBdsbQRP3gbbo6JAyJOu5cmTyo0lBTjc6sF/+MhxPNDTPLXHfTSsy3b1wEHQ8QW5IGRywB/+aBR//MMbAiTZ2tSJZu8MwTXQsYE90HH7fXIJAT85rLxxBbn1PClUYc8VgDiEH/7jR9DhOeBC2Ccf9aCbt40FtIOIAWPhJH71C2/h7YVoGXE1g4jFuY/2wOpz7Tva94qfK6cgObOE2OhM/uy29WBmMRnxc3f14bfedxgW494re9yLQ/HAQdDxVegg3FxJ4DN/9Samw1R6Kx8VMDkd8J4YgNF+G7IJKlSAg8itrv//7X0JdCXVeeZX9fZN0tPWau1L7900NBhog4Gh2cGOHY/BeGDsM3iSkJmMY4MPjj02TuyQsc3gYxL7TBK8YSfEJzHGHpsmyWBsDLjBdIO76VUttVr7Lj29RW+tqjn/rXpPb5WeZEmo3/vvOX261apXr+qre//67r98/9RcHs+kBDWh4qkPX4Hr27wXTDJQEY+fD2EELigEDo/68YlnjqF3jqSIc7uvmt1OuElF0WEpHYJAT0jV9EorX0DYp9zcTAluhxVP3b0Pl22uNFq/lYAHZQ1nJxOEJcClpJFATMHt/3wEvQOzhV98kgz3libYG7wFGjat4VNcj1MTQZCByNgsgt2DeRIvJWgJDfdd04Uv/oeudS/HWQ8I+DsYgY2OAOk2/LRnCp87eEKXf88zrNWV8Oxo1XsYlNiI+4IInOrXJZjzVG+QPd9cU4Hn7r0M9S4rb2SWeP5MEJYAKKqo+Psjg3jkuZOQRXJL/rJGi9eNih1tQAnH34mVJ0IR+N/qgxqPZyGn13vtaanGD+68GF7Hxq45LjG7yLfDCAgESPnxyTeG8dWXehGklsjZHECS4Wis0dVdL+Sy60LP2yjHjk7MFI5GxDV8/IZt+NP9baASSB6FEWCCsMjsICpwfDyATzx7AifH/KlGKNkfka1WuLe3wFLpKu25RqpfiorAifOIB0gDPWtIEiptVnzvQ5fisgYWTCrtycB3txERmIsm8NgrfXjy8ADieRqrSZIMF3k6N3vzRR824i0t+5ooYZH6NCjzkQKfldBR48ZXbt+Jq5opHLrsryibDzBBWORRJ1QV//uVPvzdofOiBWy+QQvO2d5gKCaWhuZBQUiIIKga5s+PITI2neZMSfOqaBI+dWAbPra/XexeeO2VjS3hG32bEaAGcuOBGD71b6fwfPdEXm+nbDbDs6sdlkrSaHmbL3iNvp5sTmR8BqFzo6JPTno+Av1bVSVRaXXn3kZ87sB2VNpNrNtSiEppKcmmNXpaF+hpae28OerHAz87ge6JQEGtb0ulG+6tzZBt5pKoKV7ycamaaJISOj9mtH4WEpEL965puLi5Gt//wCWooRjfGjaoWfJa+QBGoIwQIP2D01NBfPTpY+ifJpuVefOSLEG22YTCq5BYLuGtsxaLI9gzjNiM3wAhV7TKbrHgL2/ZgbsuaoCZEqx45CDAHoRsSIx5FEko+Jtfn8fjr/SKLlt5vQcmE1wdVE9cCchlMsGo5jgYRqB7EGokmncXYjGbcN+V7XhgfzvcNrNhp94eVTle84xAuSBAZupfTozgwWdPQlGyOq4SCFSKXFcF17YWEFko6aEBsUkfgudGjI2MzocyTLkGXN5eg79+9260Vtg5YTHPhGCCkAcUepUNzUVw/0+O4c3BGT3bN0M0Uf+Zcg4oG1hahx7vG2kxawkFoZ5hRKd82W1qUj83Vtjxx1d14P27GuAtxbLPjfRA+FrKHgEyT/MxBff88E281kf9UrIgIZOVUOHZ0QbbJm+aQFKJxhno9hMKAuRFmJozwp2q3ko5xRQkOKxmfPbGbfjIxc2GAmbZT6UMAJgg5CUIGv6tZwp/+tPjCIRjuW4XWmySjMo9nbBUuHRWWgL9FpazNOLTfgTODoLIQl7vCiTUuG24ZfsmPHhVBzZ5bJyPsByA+VhGYBkIUMfJp0+N48EfH4ciukZoRo+IBaYgmUyounS7Hg4tg0F3rkRi8Cfb1BdoCb27uQo//U+XwWaiXITSEJdcrcfLBCELyWSzjP/5wll851VqI2r45rKOo25o1JBJUwzXeVkRBAqnaAicPo/YpL8wOZIkmCQZB7bU4bE7dqHaYRHd75gprNby5fMwAkIfCN2+MO75wesYnaXM/QVVRT0JSG8m5dhcC/fWJpEzpJXJIiRnQXTSj2B3v76RywkXS4Ci4cvv3YN7L2oSpIoN1MKqYoKQhyDQFLn1yddxfNiX9+VHTNyzswOWKmd52idNhiRriM+F4D/ZDy2RrYmQDosEq0nC3Ze04BNXdxriJOUJG981I7AaCCRfYfR3NKHg6FgAj7zYi8P9FFpIdpbM/CbZYkbFni6Y3XaUTV46hROILKkK/KcHEZ9NJixmYkN6EJ0NHjx37ztQweHQDHCYIGQTBADnfRFc98SvkRA9F3KbMpk9TlTsaQcRBT3YZ0zE1Vj9F8Q5jPvVNNFBbb5/rKCnJcnGqYPahy5twcevakeNQ69u4MEIMAIrQ4CsUlzR8H+7J/D1l8/h7GRAt1S0A06arNRmWIKtthKurc16cmIJVy9koqlbGWq7TfLwpABLZdq5YncSnLKMb9y5Dzd3VnOyYhqITBDyEISnjo/ik88cE70HsgdNMGqT6u5qgLaOLVxXZkbW+FPkrlNVhPrGEZ2cFSJKhfpU0DKtctnw2eu34kN7G42Fu8bXx6dnBEoQAd1zoOLZ3ik8+suzGJgm0bJ0v0L6TUsg7wEpJ1prK0Rr6vIbElJlj+RFyFOVZpFN+KOrO/GJ/W2wW4xchPIDKueOmSDkEAQNH332JJ57YxCyWcqdSxrg3tYKe0OVHtsr972wpkGNJ/R+7KMzgjAUIgkSJDR7nfjenfuwtdYlmD39Hw9GgBEoHoGEquHpM+P4wr92YzYSXWjIRC++POUL1HvBtaVREIWyW24GJmRrwmM+zPeNAiolnssZtl2WZNy8ox5/dfMObHJxQnVyNjJByFqXiqLhmidfQ9/wXK4HQdPEIvPsbIe51GWVi7RXkkQkShVuufDghBBQKhRyofiompBRt9mDVz9yBRwWmQlCkTjzYeWLgEicNmRJ6d9vjPpx/49+i5FgRHBxEVEgXp7NtTUNJodDhENlu20R714JY5siCHofmeCZASTySjBL2N3oxdfu2IldtHkpmzDM4s+eCUIaPrTQpufjuOHbhzBJrVJzFhxgclFL51aY7Fb2HmTNLVpTYfIkDE7maeZkHCxJkBXg07fswH37mrhZSgnbZr611UWAyEHvbBif/3k3XuydgCri6dkjmQ8lwey0wdnRCIvXU57kIAMaDVosgeDZYcR8wbxtsFurXHj0jt24urWKu9EmzTVLLS/MIlpuA/4IbnviEHzRXP0DOlJIK29vgclqZoKQY5z07UxkZBrzA+NCBz3v0IB3tFXjK7ftwvZqJ7P11X2P8NlKEgENc1EFX/lVL/7hjQHERb5PgSFJsFZ54Gith9nj4LK9JEwiX4r6yMwYBEHP2zAqQVHhsOGRW3fi/bvq2bPJBCF3cdF0OT8Xwe1PHII/HssrI0zxPKolliwWZuX57JMmQVMSCA9MIDI2ZWQNZx2oAR6HFZ85sA337N0Mc7nIVJfki4tvaj0QIO/B8+em8annTmHMP1+IGYgqBUtNJVyt9TA5bSXbkGllmGuIDE+LJk66dzjTA0MS8X9x0w58ZF9z2aVqFOSa7EHI9CD0zMzjPUQQKNmOmhClJ/5ogLWmCu5tjZDNJvYgLLJK1XAUwbODiPvDBYiUhJu21uNLt+1Ag5uSgjhZcWVGjz9V6ggkxdvu/eFv8YvuCVBqtBjZmj5C/t3wcNrYw5lvXpDscuB0v17NQfY9DURJNuGT13Thv+9vE90e2SZR1WzZqGYsbUaSHoQ7vnkIvljcIJhpLFMDzFVueDjEUASYKiKjMyJrWJ9iWVoR1DjGZsETv38xDnRWc8xvaUT5iDJEQBf/0/By/yzufurwol5LSkSsurgLMoU/S7jFwu8yDeK+IPxvndOb64nk6rSqRw34g/0deOjaLjg5gVrAzAQhbbbRmpoMxnDDt1/FdJB2vtlDgsntQMUOSlK0sAdhiZWqRuPwnzgHJRTLq0hJBP6Pr+7Ep6/rhEWEGdiL8LsYP/5s6SFANmkiFMVd/3QEZ8f8euO4HNcBYLJZ4draAqvX6A1TelCsyh0l5kKYO9YDyKa8iYr3XdmBP7u2Ey6hhcD2iAlC1rQj6dJrv/sbDIz5czVFNEC2WuHZ1QpSU+SRH4GUr4B00MdmEeweKkgQLuuowT/8x4tRaae20LwgeU4xAukIkCfgB6fG8NAzx6FI+TVG6BhXWwMcLXVlpJK4snkiCMLRHoBUcEWIITl02/PRK9vxqWu74GIPAnsQ8k0xYux3PXMULx0fhWzSmxJlDkkIJdnqK1c2Q8voUyROQsZr9vAZqOlVIaLlqi7q0lThxFMf3IfOGidMQlOButAxUSijacK3uggC/mgCn/t5N354dASaRlVBtD6SbnFyk2swV7rh2daid2nktbPofIrPBuA/TiGGdIJgbGkkGR+7qgMfv7oDNjNrtBCQ7EHImk5UWvytNwbx8METkE30isscJLXsbK6Dq2MzNF6Mixt3EpYyyQicGdRLi3Le+xKcVjO+eecluLbNC1qSPBgBRiCJgIbu2bBoO390eM5gBcleAqLnPCSzDFdnE2ybqhi2DASStiTTgscmfAic6TdyENJ/J8Eky/j09Vvwh5e3wSSzP5MJQp4lRRnCPVPzuOFbh5BIqLmucWLsFW5U7OkwCIQkdryc65kPTA2SLAvxpFDfSN5WqyaThK+9by/ev20Tb37YxDMCaQiQLfpl3wweOngCw75s4TZ6uckwux1wb2uGyWln7JZCgJrLDU5ifiDZXC75Ad2DYLeY8Ze37MSH9m7mcKcBDXsQsj0ENFVUDdd/9zWcHfXnEgRJgmSSUbGjTVQ08FgKAQ3xmSACZwagidLRTEZP5OqzN+3E/e9oESdiH8JSePLvywMBvc/LPx4dwReeP4NgPuE2SYatrko0YpLMeTrLlQdQRd6lBi2hItQ7iuiULzdBUQPq3HZ86bZduGVrDag3Aw8OMeTMgaTswedeOItvvdaXt/MXvcZsNRXw7G7PLwTEM0t/2ZMXVFWR8IfhP9UPLaHHUFNDVD9KeOjAdnx8f1ue3GwGkhEoTwRE+pwGPP5qHx57sQdqqglaWl2eLMPZvhmOxlpm1kVME9JmCZwZRiJIQlNZSpQa0FXnwWN37MblTRXsQWAPQuEZlTBUyz724+MGcze6pKXvfkkNcFeb6LPONceLrE5NRXwuLMRJcgiC4TP4sxu34WNXtAsBGI78FWHp+JCSRiCpGjIfS+CRX/TgO28MZuUfELEmj4GGip1tsFRTwjQLH+SdFMlmTRIQm/Yj2DMMlTRu0gd5hSHhqrYaPHbHLrRWcrgmCQ+HGPLMKsonoJ4M9//kLRwdnM1g5wsZxBJMDivcFGpw8YQqZLEpZBAZ9yHYOwSI5jKZhkyWZXzp3Xtwzx6K+/FgBBgBWiNElefCcfz5893452NDuvBfaunQhkV3gVfu7eKS62KmTKoPw3Rer7BJNuGui5vw8PVbUSFKrnkILzArKeafCOGEgv/z2gC+9lIvEin3Xtaxkgz7Ji+crZsgWc08o/IgQNrwoZ4RhEem8paM2i0m/O0HLsGNHdVcxcAziBEwECAyMBWO4+H/dwY/OT5sbFLS1Ehp1ytJqLx4C0y8QVli3mhI+EIIdA/meg/EJ2XYZA2fv20P7t3bADPnH6TwZIJQYGpRhOr0ZAgPPXcKbwzNJJdtztGS2Qx7QzWcLXUiYm6F4AAAEbdJREFUeZGYPw8dAWHOVA2+N7uhzEfzljnWuW34/gcvw556F8st88RhBNIszVw4ZngQkgQhDR7xEtNQeVEXzBUs2lZw4hDTUlUEzo4gNjVb4DAJ1S4bfvrhK9DudbAFT59m7EEobJMUVcOTvx3Gl17oRjA7brXAscSLz7G5Fq7OBt0NKOIQMiCUz8p3EAyRkRkEeoYM8aPcOOn2pir8y537UO20sAehfKcK33keBCJxFX/1Yg+++Xo/JKiZuU6GBotnWzOsdV7GLx8CJLpmNon285R7kKGcmGp0JUFVgP/2rk589rotokUDjwUE2IOQNRuSegZJNb+hQBQPHjyBl3qn0zJfdVefJJFSIKkC6pnFtnovHM11MNmtujehzPOGlPmwaIyixhJ5Fd5I6fTDV7ThizduhyUlTJLdoo6XKyNQZgikLYGvv96Pr7xwFgmFKoCyhiTB0VQHB4U4RY8GHhkIaEDCH0Lg9ADUeGIhxJnVobe+yomf33clqsluM4wZEDJBWGJNkRfh0JAP9z99DNPzkcUnkCQJwRL7pmrY6qsgW0xlRBLSuzVK0OIJhPrHEB2fyV8qSvrxdgsef89FuGVrHUy8MNm6MwJZ7zcNPzoxjof//TRmw9HM1vN0pCTBUuWGe0szZJulzNFLtz+ayIWOzwaFQJsSoc68+b25VpOM/3HNVjzwznYmB3lmEBOEIpYVEfqnT4zhCy+cwVQgWqCkaKHLGnkPrN4KWOu9sFQ4DRGTdA31Ir70gjyEioVUaIqG8NgswoMT0BJZJUXivvRixpu3b8Ijt+zAZreN434X5PPmi15LBMjuHB6ewwPPnkDvVDCPhgg1j7PA1dUEa3VFmWshpBEEVUFsJoTw0AQSoXDWBsXQkaBeMJqEvc1e/PW7d2NLtZNzoJggrHw5RxIK/v7IEP7m5V6Eovleejn+P8gWCyyVLqGTbqlyidIk0cCoVF+HIqSiIjwwhfDoVAHdA7JzEmpcNvz5Tdvxvp31QgOdByPACOQiMBKM4qGDJ/GL3ilo2btgI7RpqXTDLZo1pXkRkg3RyghUgkONKYIYRCd9emgzWVadHbnUgCqHDZ+5YSvu2tMAq+juaIDF3szUrGEPQjELyJhc1Fnt0V/34cnfDBgxQWKhhohSlnNQX7vGTNMAa20lXJ2NMNktuvoipS7omQzFXMEFcQzlbYT6xsQC1e8uza2XtkBl2YQDXXX48m070eBKj/tx/sEF8aD5ItcFAVoNiqri0Vf78Y1f9kCT9DyEBbui6yFQ3pSjsQburiYjJ6r8kp9o45UIRhDoHoISms/NeVoQsBEYmmUT/suV7Xj4ui7RmIlHfgSYICxjZhAX8McT+LsjQ/inI/0Yn4ukufWyXm7ZDJ7Wstmkhx6q3aLJimSzQjaTAkoxOmjpMbZlXPR6HKqoSATmRVOm2EyAyooLSFQb3gOnDV9+727c2l4DmRfnejwh/o4LFAGyKqenQrj7H49gMpjdsGnhpiTZBGd7A2ybvCJBumwG2Z5gBNFpH2ITs1CFnHu2rcz8mQjWgW31ePjANmyrcZbQFm31nzoThGViSmw9EFPwYv8Mnjh0HoeHSGkxM0FPf93nf6GL6giTWXgSiCQIslDhFgmNxvbA8CosPsmXedmre7hxe3QrSjgmyohis34okVhhYmBcgctqwf+6fQ/es60WVtFznQcjwAgshgAlSn//2Ag+c/Ck4TLP7yGQTCZBEJwt9XqC9AW/uhZ8rAt3rHexJM9tfC4oQgnxuRBUCvsWSERMx5bIwf62anzx5u3YUeuGmTcoiy4+JggrsE00RSlKcHoygG8eHsTB0+MIhGPLTxKifu4Wk5BqpmxkS4ULJqdN/J/eQlrfcYMSahZ/jOumxa43YIJYkKRtTgtUb36S7xqNxWz8zmWz4I+u7MADV3eIElHuu7CCyccfKTsEaFMSUzT81x+/hV+cHYe6SP20IAm1VXC01EK220oCK7GJSPaoUhTE/WFEp+YQ9wV0YlBkHwqzScZ1HbX4/I3b0emlpMSSgGdNb4IJworh1USEPRhV8MuBWTz2q150j/gM916aRkLR55dELbNst8JS6YHF64G10gHJoks4i7yFvPkO9FtyKa6VKJOu2CacJMJjEEV03Ifo5KxRPpS8rkI3qu8CKBHxw5e34cGr2uF1kNa5ccKi8eEDGYHyRUCFikODfvzJz97C+CwR8sWGXm7tatsEa43ngvIk6BsjY7NhbI7o/yjhMDrlR3RiBsp8BJqStHdL2NqUzZRw4456PHzdVnRWk2qrsKoGiMwUClpvVlL83YxOcor5Iwk8eug8/vXYMKZjCcQS8YVkooJfkSeMQAtEUcTrU7ZZhWfBWu2Bye2ETD3fxS+MvTe9tVdT2SNDQMR48Yu/NCihMKKTc4hO+KApJHykE4dihsduxb37WvDJd3XAbqGwAi/IYnDjYxiBdATCCRXfOTKIx1/qRSBH2XUhB0p4+WjToCqwNdTC2VwresWQd2EjD12cTtNf/mSLNBVKNJGyO0o0ZmxUku6EpV/wkizDazPjzn3N+OTVHXCazatqMjcynqtxbexBWA0URU6eBkUDjozM4eDZSbzaN4OTEwFR7bCyd7j+EiXPgfAsWMyie6TssMFktUK2mSHToreYIZtMeliCygWF4pD+2eSCW+wWxRJLEvaEIkoT1bgiXHdqNCY8BolQRGftIgEodfqikGv3uvHBfc24Z+9m1DhYqawo0PggRiAPAmRjZsNxfOvIIL79ej/mSAAotSCzyXqShGswOWywVlcKr6RIjqbE6A00kvaRiAHlMVHfFiUURTwYQiIYFqJrufe5RMWTBlQ4LLis2Yvf39OI27bWwkk2cgPd94VwKUwQVvkpUSQgEEtgwBfGb4b8+O6bA+gZDegb7gy31vK/OKWhIBMZ0EMStCsgIkAEgUgE7RRIf4GSlKhqggiELsOauTQ0VRUvfFp85L6jHulKNA4tHoeW0Fm8+KMpBptfHjEgP8G7OmvxJ+/swCWbK+Cy8uJc/hPnTzACmQgQSaAuj+RJ+OoLZyFbivDkkX2QZWELzE47rHVVopqKPkvnS9dmyXDxrwX4Bo9JSkOLjdV8RKgexv0hqJGokEXWEio0lTypdHWFRlJ8Ls22CQ+shtYaF/7gijbctKUWTR67KGVkcrD8B8oEYfmYFfUJ8pBRm+jRUBTP90zjRyfGcHzMj5gQ70i+bCmOVuS0zarjTV2E7k/UhxEiEIs8eYBoC5t7yXqYbyGMIP4tzpUMexSuxMg+W+rShFIJUOm04H17m/CHl7agtcrBMspFzRg+iBEoDgFameG4IjwJ3zh0Hn5KkBYeQ+oNk+ccGbZDEiFKQRS8lOvkhslOidG0kcgsQkpakYLVEKmQ5OI5UMmvp/OpcVUQAEEK/PMiwVkNx9J6JeSrCFu4pwV9mTw3qgHVHjt+b9dm3LevCS2VDq6UKm5KFTyKCcLvCOBiH194b+uuwWNT83jm+ChePjeF6UAE8YzVXFw8v7jLTWcEhc5bzDHFfVuS8ThkGXvaa/DAO9uwv7kKpHNuBEqKJ0LL+Uo+lhEoUwRoVVNlwzOnxvD4S+cwMBsSGq3FjeRL2PAsWM0wuxwi/EB/ZLtFD19SyNIwE4V38guhDGInepWTpv9RVBGqFGGDUFSEK5VIRHgsRbgylUKQ/7pTzfAWvSlJdIGt89hw685NuOuiRuyudcJCHpOVxXaLg7BMjmKCsFoPeomQmBBPFLk1Gs7PhvHjMxN4pXcKg74wfFEF87E4VENhccnkv4LVDKt1M0WeRwNkkwyvw4KuGjfu2tuID+xqgMWIcRbpGynyy/gwRoARyEaANBJeGfLh6y+fw5tjcwil8hKWg5We9EdSzhLJwZtkUSJJXWlJvlkyE2GQdVE3kRhtEAdV1X+m3IGYnr+kJRKiuolCllosBpVCBZR0KPKpjaTqZK10jlc023tZ+B7oXE6rBQ0uCy5t9eI/X9KMSxo8kOn6DZVa+rQIoTBRWM5kyDiWCcKKoVvZB5NcmRb2WCiGnpl5nJkICk2Fk+MBnJkJIRY2anspdyC1iJZgICu7nIXT683hxEh3bGSu4czEyVavE1e2erG/xSv+bq2ws/DICp8Df4wRWAkCeqRQwzlfGAe7J3Hw1DiOj80JieaCo+AGw3hB58t3THvJEonQv9b4joxMZ+NbjYqE4u4pPaxQwM6J8KUeQqmrsOMdzVW4vNmLS5srsbfeDTupR1I4tbgv5KOKRIAJQpFArdVhtMRiCQXhuAp/NC5Iw4s9M/hZzwTOURVEVIFkJlcgXUGyE1nW1awSdyCXnr7w8y0zSSQvUhxxS1MV7t3bhGvavah3WeG2WmClazQui1n7Ws0WPi8jkB+BZF7CsD+M7701iqd+M4D5mAKJKhsF409/CW9MFPOmWVE+lQhXaKjxOnH37s24fUc9mivtqLCaYSc1VvYQrNkDZYKwZtAu78T0UhXagkalQ1zRQxG/Gvbh14M+DE6EMBYIi9ImVVQXGIEIeqmnJSrqL3li2sVy6YV4pG5DjBMbIiUmkwySR27yOnBpixe3d9XiiuYKOM0k5Zp03zFzX97T5qMZgbVBgFQWyQIcHfPjq68N4PVzU4bKa1qugPjqt5cw6CYrqWeQhkWSJWiAySShym7FzkYvbt1eh/durUW102rUZSezIoq1c2uDd6mflQnCBnzC+hLXqxPoXxSO8EXimJiPYSQUQ/9UCH1zYQzNRTAdjMIfiiEYT4gdQ0RREdeoREj4AhZPZxBrS4Isy7DJgMNigsdmhtdlQ73HjtZqBy6q96Cz2olmjw01TitEsWIqcWkDgseXxAiUMQIpX4EGhBMKjk0E8fzZKbzUN4XuqSCiGVVUbzdQmSENKn2stFnQXOXAjgYPrmqtxp5NHrRVOPQyabY76/7AmCCsO+TL/0JdejQt88Y4BRGHQDSBUX8Uo+EYJoIRTM7HMRdTkIgmEI7EEUmoiCdy45GUoEy9EZx2M2xWC2qdJtS7HWj2WNFW6YDXbtF1FlJhAyM/afmXz59gBBiB9UAgK9SYTA0gr0KfL4x/75vG0f5pnJqZx1QwhmAkgYRqiJ+tx/UZexb6i7q4Ws1m8eKvdVnR5Lajq86JPU1VuLKxAo2kXZD0jHLflvV6OjnfwwThbYN+5V+cqg5KiiAKRwGFGvT/oCVPpIKIQVzVhAciO+QgS5qoEbZRxrJEXgSjOZTBQ+hUSZUGduKt/FnxJxmBjYBAMoQ5PR/DQCCC8zPz6J4O4fRoAGdmQxiZCyNO3gUKLRrFCuK6c+L7qdhmWhdbChbIug1K9VEwbI5hrCSTBKvNjEa3HR1eOzpr3WitcGCzx47mKjvqnBbUOiiXKanyqFsdtj1v7+xhgvD24s/fzggwAozAuiJAxJ82DYqmidLqmKJiPBjD4eE5/GrIhzeGfBj1h6FEElBJP57ilbT/EK0c6I1PPWGMtq6ijFCDktA3GaJPjEmCyW5GTYUDF9W5sbvejauaqtBV60SF2QTqqkjKhsQlqN0yFSAQMeFcw3WdBkV9GROEomDa2Afp9cvEtVfOt3Xv5CqVQ2xsuPjqGAFGQCCgibb1tPKTVYlJ76Q/msBkMIqR+ThmqJNiLIFgNCE8k8GoipimospmEt5H+nCV0wIPhSotsshVqvXYROmhOS1xYMErqduZlVsrfnzrhQAThPVCmr+HEWAEGIENjECG/EHaD6mQplFhJcIQRkl08naSIUwj71mEGlKS7/lTqFLVCBsYkrK/NCYIZT8FGABGgBFgBNYeAdZHWXuMV/sbmCCsNqJ8PkaAEWAEGAFGoAQQYIJQAg+Rb4ERYAQYAUaAEVhtBJggrDaifD5GgBFgBBgBRqAEEGCCUAIPkW+BEWAEGAFGgBFYbQSYIKw2onw+RoARYAQYAUagBBBgglACD5FvgRFgBBgBRoARWG0EmCCsNqJ8PkaAEWAEGAFGoAQQYIJQAg+Rb4ERYAQYAUaAEVhtBJggrDaifD5GgBFgBBgBRqAEEGCCUAIPkW+BEWAEGAFGgBFYbQT+P9IJS/8sO/v9AAAAAElFTkSuQmCC;" vertex="1" parent="7">
                    <mxGeometry x="400" y="80" width="243.4" height="220" as="geometry"/>
                </mxCell>
            </root>
        </mxGraphModel>
    </diagram>
</mxfile>